%TF.GenerationSoftware,KiCad,Pcbnew,7.0.5-0*%
%TF.CreationDate,2023-05-28T00:51:44-07:00*%
%TF.ProjectId,gw-adapters,67772d61-6461-4707-9465-72732e6b6963,rev?*%
%TF.SameCoordinates,Original*%
%TF.FileFunction,Drillmap*%
%TF.FilePolarity,Positive*%
%FSLAX45Y45*%
G04 Gerber Fmt 4.5, Leading zero omitted, Abs format (unit mm)*
G04 Created by KiCad (PCBNEW 7.0.5-0) date 2023-05-28 00:51:44*
%MOMM*%
%LPD*%
G01*
G04 APERTURE LIST*
%ADD10C,0.100000*%
%ADD11C,0.200000*%
%ADD12C,0.040000*%
%ADD13C,0.150000*%
%ADD14C,0.230000*%
%ADD15C,0.320000*%
G04 APERTURE END LIST*
D10*
X12192000Y-5588000D02*
X16383000Y-5588000D01*
X16383000Y-12700000D01*
X12192000Y-12700000D01*
X12192000Y-5588000D01*
D11*
D12*
X13924170Y-7956030D02*
X13964170Y-7996030D01*
X13964170Y-7956030D02*
X13924170Y-7996030D01*
X13924600Y-8235000D02*
X13964600Y-8275000D01*
X13964600Y-8235000D02*
X13924600Y-8275000D01*
X13924600Y-8768400D02*
X13964600Y-8808400D01*
X13964600Y-8768400D02*
X13924600Y-8808400D01*
X13924600Y-9047800D02*
X13964600Y-9087800D01*
X13964600Y-9047800D02*
X13924600Y-9087800D01*
D10*
X12724600Y-7832800D02*
G75*
G03*
X12724600Y-7832800I-50000J0D01*
G01*
X12724600Y-8109800D02*
G75*
G03*
X12724600Y-8109800I-50000J0D01*
G01*
X12724600Y-8386800D02*
G75*
G03*
X12724600Y-8386800I-50000J0D01*
G01*
X12724600Y-8663800D02*
G75*
G03*
X12724600Y-8663800I-50000J0D01*
G01*
X12724600Y-8940800D02*
G75*
G03*
X12724600Y-8940800I-50000J0D01*
G01*
X12724600Y-9217800D02*
G75*
G03*
X12724600Y-9217800I-50000J0D01*
G01*
X12724600Y-9494800D02*
G75*
G03*
X12724600Y-9494800I-50000J0D01*
G01*
X12724600Y-9771800D02*
G75*
G03*
X12724600Y-9771800I-50000J0D01*
G01*
X12724600Y-10048800D02*
G75*
G03*
X12724600Y-10048800I-50000J0D01*
G01*
X12724600Y-10325800D02*
G75*
G03*
X12724600Y-10325800I-50000J0D01*
G01*
X12724600Y-10602800D02*
G75*
G03*
X12724600Y-10602800I-50000J0D01*
G01*
X12724600Y-10879800D02*
G75*
G03*
X12724600Y-10879800I-50000J0D01*
G01*
X13008600Y-7694300D02*
G75*
G03*
X13008600Y-7694300I-50000J0D01*
G01*
X13008600Y-7971300D02*
G75*
G03*
X13008600Y-7971300I-50000J0D01*
G01*
X13008600Y-8248300D02*
G75*
G03*
X13008600Y-8248300I-50000J0D01*
G01*
X13008600Y-8525300D02*
G75*
G03*
X13008600Y-8525300I-50000J0D01*
G01*
X13008600Y-8802300D02*
G75*
G03*
X13008600Y-8802300I-50000J0D01*
G01*
X13008600Y-9079300D02*
G75*
G03*
X13008600Y-9079300I-50000J0D01*
G01*
X13008600Y-9356300D02*
G75*
G03*
X13008600Y-9356300I-50000J0D01*
G01*
X13008600Y-9633300D02*
G75*
G03*
X13008600Y-9633300I-50000J0D01*
G01*
X13008600Y-9910300D02*
G75*
G03*
X13008600Y-9910300I-50000J0D01*
G01*
X13008600Y-10187300D02*
G75*
G03*
X13008600Y-10187300I-50000J0D01*
G01*
X13008600Y-10464300D02*
G75*
G03*
X13008600Y-10464300I-50000J0D01*
G01*
X13008600Y-10741300D02*
G75*
G03*
X13008600Y-10741300I-50000J0D01*
G01*
X13008600Y-11018300D02*
G75*
G03*
X13008600Y-11018300I-50000J0D01*
G01*
X15997500Y-7747000D02*
G75*
G03*
X15997500Y-7747000I-50000J0D01*
G01*
X15997500Y-8001000D02*
G75*
G03*
X15997500Y-8001000I-50000J0D01*
G01*
X15997500Y-8255000D02*
G75*
G03*
X15997500Y-8255000I-50000J0D01*
G01*
X15997500Y-8509000D02*
G75*
G03*
X15997500Y-8509000I-50000J0D01*
G01*
X15997500Y-8763000D02*
G75*
G03*
X15997500Y-8763000I-50000J0D01*
G01*
X15997500Y-9017000D02*
G75*
G03*
X15997500Y-9017000I-50000J0D01*
G01*
X15997500Y-9271000D02*
G75*
G03*
X15997500Y-9271000I-50000J0D01*
G01*
X15997500Y-9525000D02*
G75*
G03*
X15997500Y-9525000I-50000J0D01*
G01*
X15997500Y-9779000D02*
G75*
G03*
X15997500Y-9779000I-50000J0D01*
G01*
X15997500Y-10033000D02*
G75*
G03*
X15997500Y-10033000I-50000J0D01*
G01*
X15997500Y-10287000D02*
G75*
G03*
X15997500Y-10287000I-50000J0D01*
G01*
X15997500Y-10541000D02*
G75*
G03*
X15997500Y-10541000I-50000J0D01*
G01*
X15997500Y-10795000D02*
G75*
G03*
X15997500Y-10795000I-50000J0D01*
G01*
X15997500Y-11049000D02*
G75*
G03*
X15997500Y-11049000I-50000J0D01*
G01*
X15997500Y-11303000D02*
G75*
G03*
X15997500Y-11303000I-50000J0D01*
G01*
X15997500Y-11557000D02*
G75*
G03*
X15997500Y-11557000I-50000J0D01*
G01*
X15997500Y-11811000D02*
G75*
G03*
X15997500Y-11811000I-50000J0D01*
G01*
X16251500Y-7747000D02*
G75*
G03*
X16251500Y-7747000I-50000J0D01*
G01*
X16251500Y-8001000D02*
G75*
G03*
X16251500Y-8001000I-50000J0D01*
G01*
X16251500Y-8255000D02*
G75*
G03*
X16251500Y-8255000I-50000J0D01*
G01*
X16251500Y-8509000D02*
G75*
G03*
X16251500Y-8509000I-50000J0D01*
G01*
X16251500Y-8763000D02*
G75*
G03*
X16251500Y-8763000I-50000J0D01*
G01*
X16251500Y-9017000D02*
G75*
G03*
X16251500Y-9017000I-50000J0D01*
G01*
X16251500Y-9271000D02*
G75*
G03*
X16251500Y-9271000I-50000J0D01*
G01*
X16251500Y-9525000D02*
G75*
G03*
X16251500Y-9525000I-50000J0D01*
G01*
X16251500Y-9779000D02*
G75*
G03*
X16251500Y-9779000I-50000J0D01*
G01*
X16251500Y-10033000D02*
G75*
G03*
X16251500Y-10033000I-50000J0D01*
G01*
X16251500Y-10287000D02*
G75*
G03*
X16251500Y-10287000I-50000J0D01*
G01*
X16251500Y-10541000D02*
G75*
G03*
X16251500Y-10541000I-50000J0D01*
G01*
X16251500Y-10795000D02*
G75*
G03*
X16251500Y-10795000I-50000J0D01*
G01*
X16251500Y-11049000D02*
G75*
G03*
X16251500Y-11049000I-50000J0D01*
G01*
X16251500Y-11303000D02*
G75*
G03*
X16251500Y-11303000I-50000J0D01*
G01*
X16251500Y-11557000D02*
G75*
G03*
X16251500Y-11557000I-50000J0D01*
G01*
X16251500Y-11811000D02*
G75*
G03*
X16251500Y-11811000I-50000J0D01*
G01*
D13*
X14224000Y-6488500D02*
X14224000Y-6638500D01*
X14149000Y-6563500D02*
X14299000Y-6563500D01*
X14732000Y-6488500D02*
X14732000Y-6638500D01*
X14657000Y-6563500D02*
X14807000Y-6563500D01*
X15240000Y-6488500D02*
X15240000Y-6638500D01*
X15165000Y-6563500D02*
X15315000Y-6563500D01*
X15748000Y-6488500D02*
X15748000Y-6638500D01*
X15673000Y-6563500D02*
X15823000Y-6563500D01*
D14*
X13882318Y-6099818D02*
X13882318Y-5937182D01*
X13719682Y-5937182D01*
X13719682Y-6099818D01*
X13882318Y-6099818D01*
X16252318Y-6099818D02*
X16252318Y-5937182D01*
X16089682Y-5937182D01*
X16089682Y-6099818D01*
X16252318Y-6099818D01*
D15*
X12928600Y-7161300D02*
X13088600Y-7001300D01*
X12928600Y-6841300D01*
X12768600Y-7001300D01*
X12928600Y-7161300D01*
X12928600Y-11871300D02*
X13088600Y-11711300D01*
X12928600Y-11551300D01*
X12768600Y-11711300D01*
X12928600Y-11871300D01*
D11*
X12447777Y-13016484D02*
X12447777Y-12816484D01*
X12447777Y-12816484D02*
X12495396Y-12816484D01*
X12495396Y-12816484D02*
X12523967Y-12826008D01*
X12523967Y-12826008D02*
X12543015Y-12845055D01*
X12543015Y-12845055D02*
X12552539Y-12864103D01*
X12552539Y-12864103D02*
X12562062Y-12902198D01*
X12562062Y-12902198D02*
X12562062Y-12930769D01*
X12562062Y-12930769D02*
X12552539Y-12968865D01*
X12552539Y-12968865D02*
X12543015Y-12987912D01*
X12543015Y-12987912D02*
X12523967Y-13006960D01*
X12523967Y-13006960D02*
X12495396Y-13016484D01*
X12495396Y-13016484D02*
X12447777Y-13016484D01*
X12647777Y-13016484D02*
X12647777Y-12883150D01*
X12647777Y-12921246D02*
X12657301Y-12902198D01*
X12657301Y-12902198D02*
X12666824Y-12892674D01*
X12666824Y-12892674D02*
X12685872Y-12883150D01*
X12685872Y-12883150D02*
X12704920Y-12883150D01*
X12771586Y-13016484D02*
X12771586Y-12883150D01*
X12771586Y-12816484D02*
X12762062Y-12826008D01*
X12762062Y-12826008D02*
X12771586Y-12835531D01*
X12771586Y-12835531D02*
X12781110Y-12826008D01*
X12781110Y-12826008D02*
X12771586Y-12816484D01*
X12771586Y-12816484D02*
X12771586Y-12835531D01*
X12895396Y-13016484D02*
X12876348Y-13006960D01*
X12876348Y-13006960D02*
X12866824Y-12987912D01*
X12866824Y-12987912D02*
X12866824Y-12816484D01*
X13000158Y-13016484D02*
X12981110Y-13006960D01*
X12981110Y-13006960D02*
X12971586Y-12987912D01*
X12971586Y-12987912D02*
X12971586Y-12816484D01*
X13228729Y-13016484D02*
X13228729Y-12816484D01*
X13228729Y-12816484D02*
X13295396Y-12959341D01*
X13295396Y-12959341D02*
X13362062Y-12816484D01*
X13362062Y-12816484D02*
X13362062Y-13016484D01*
X13543015Y-13016484D02*
X13543015Y-12911722D01*
X13543015Y-12911722D02*
X13533491Y-12892674D01*
X13533491Y-12892674D02*
X13514443Y-12883150D01*
X13514443Y-12883150D02*
X13476348Y-12883150D01*
X13476348Y-12883150D02*
X13457301Y-12892674D01*
X13543015Y-13006960D02*
X13523967Y-13016484D01*
X13523967Y-13016484D02*
X13476348Y-13016484D01*
X13476348Y-13016484D02*
X13457301Y-13006960D01*
X13457301Y-13006960D02*
X13447777Y-12987912D01*
X13447777Y-12987912D02*
X13447777Y-12968865D01*
X13447777Y-12968865D02*
X13457301Y-12949817D01*
X13457301Y-12949817D02*
X13476348Y-12940293D01*
X13476348Y-12940293D02*
X13523967Y-12940293D01*
X13523967Y-12940293D02*
X13543015Y-12930769D01*
X13638253Y-12883150D02*
X13638253Y-13083150D01*
X13638253Y-12892674D02*
X13657301Y-12883150D01*
X13657301Y-12883150D02*
X13695396Y-12883150D01*
X13695396Y-12883150D02*
X13714443Y-12892674D01*
X13714443Y-12892674D02*
X13723967Y-12902198D01*
X13723967Y-12902198D02*
X13733491Y-12921246D01*
X13733491Y-12921246D02*
X13733491Y-12978388D01*
X13733491Y-12978388D02*
X13723967Y-12997436D01*
X13723967Y-12997436D02*
X13714443Y-13006960D01*
X13714443Y-13006960D02*
X13695396Y-13016484D01*
X13695396Y-13016484D02*
X13657301Y-13016484D01*
X13657301Y-13016484D02*
X13638253Y-13006960D01*
X13819205Y-12997436D02*
X13828729Y-13006960D01*
X13828729Y-13006960D02*
X13819205Y-13016484D01*
X13819205Y-13016484D02*
X13809682Y-13006960D01*
X13809682Y-13006960D02*
X13819205Y-12997436D01*
X13819205Y-12997436D02*
X13819205Y-13016484D01*
X13819205Y-12892674D02*
X13828729Y-12902198D01*
X13828729Y-12902198D02*
X13819205Y-12911722D01*
X13819205Y-12911722D02*
X13809682Y-12902198D01*
X13809682Y-12902198D02*
X13819205Y-12892674D01*
X13819205Y-12892674D02*
X13819205Y-12911722D01*
D12*
X12147000Y-13325000D02*
X12187000Y-13365000D01*
X12187000Y-13325000D02*
X12147000Y-13365000D01*
D11*
X12485872Y-13236484D02*
X12504920Y-13236484D01*
X12504920Y-13236484D02*
X12523967Y-13246008D01*
X12523967Y-13246008D02*
X12533491Y-13255531D01*
X12533491Y-13255531D02*
X12543015Y-13274579D01*
X12543015Y-13274579D02*
X12552539Y-13312674D01*
X12552539Y-13312674D02*
X12552539Y-13360293D01*
X12552539Y-13360293D02*
X12543015Y-13398388D01*
X12543015Y-13398388D02*
X12533491Y-13417436D01*
X12533491Y-13417436D02*
X12523967Y-13426960D01*
X12523967Y-13426960D02*
X12504920Y-13436484D01*
X12504920Y-13436484D02*
X12485872Y-13436484D01*
X12485872Y-13436484D02*
X12466824Y-13426960D01*
X12466824Y-13426960D02*
X12457301Y-13417436D01*
X12457301Y-13417436D02*
X12447777Y-13398388D01*
X12447777Y-13398388D02*
X12438253Y-13360293D01*
X12438253Y-13360293D02*
X12438253Y-13312674D01*
X12438253Y-13312674D02*
X12447777Y-13274579D01*
X12447777Y-13274579D02*
X12457301Y-13255531D01*
X12457301Y-13255531D02*
X12466824Y-13246008D01*
X12466824Y-13246008D02*
X12485872Y-13236484D01*
X12638253Y-13417436D02*
X12647777Y-13426960D01*
X12647777Y-13426960D02*
X12638253Y-13436484D01*
X12638253Y-13436484D02*
X12628729Y-13426960D01*
X12628729Y-13426960D02*
X12638253Y-13417436D01*
X12638253Y-13417436D02*
X12638253Y-13436484D01*
X12819205Y-13303150D02*
X12819205Y-13436484D01*
X12771586Y-13226960D02*
X12723967Y-13369817D01*
X12723967Y-13369817D02*
X12847777Y-13369817D01*
X12962062Y-13236484D02*
X12981110Y-13236484D01*
X12981110Y-13236484D02*
X13000158Y-13246008D01*
X13000158Y-13246008D02*
X13009682Y-13255531D01*
X13009682Y-13255531D02*
X13019205Y-13274579D01*
X13019205Y-13274579D02*
X13028729Y-13312674D01*
X13028729Y-13312674D02*
X13028729Y-13360293D01*
X13028729Y-13360293D02*
X13019205Y-13398388D01*
X13019205Y-13398388D02*
X13009682Y-13417436D01*
X13009682Y-13417436D02*
X13000158Y-13426960D01*
X13000158Y-13426960D02*
X12981110Y-13436484D01*
X12981110Y-13436484D02*
X12962062Y-13436484D01*
X12962062Y-13436484D02*
X12943015Y-13426960D01*
X12943015Y-13426960D02*
X12933491Y-13417436D01*
X12933491Y-13417436D02*
X12923967Y-13398388D01*
X12923967Y-13398388D02*
X12914443Y-13360293D01*
X12914443Y-13360293D02*
X12914443Y-13312674D01*
X12914443Y-13312674D02*
X12923967Y-13274579D01*
X12923967Y-13274579D02*
X12933491Y-13255531D01*
X12933491Y-13255531D02*
X12943015Y-13246008D01*
X12943015Y-13246008D02*
X12962062Y-13236484D01*
X13152539Y-13236484D02*
X13171586Y-13236484D01*
X13171586Y-13236484D02*
X13190634Y-13246008D01*
X13190634Y-13246008D02*
X13200158Y-13255531D01*
X13200158Y-13255531D02*
X13209682Y-13274579D01*
X13209682Y-13274579D02*
X13219205Y-13312674D01*
X13219205Y-13312674D02*
X13219205Y-13360293D01*
X13219205Y-13360293D02*
X13209682Y-13398388D01*
X13209682Y-13398388D02*
X13200158Y-13417436D01*
X13200158Y-13417436D02*
X13190634Y-13426960D01*
X13190634Y-13426960D02*
X13171586Y-13436484D01*
X13171586Y-13436484D02*
X13152539Y-13436484D01*
X13152539Y-13436484D02*
X13133491Y-13426960D01*
X13133491Y-13426960D02*
X13123967Y-13417436D01*
X13123967Y-13417436D02*
X13114443Y-13398388D01*
X13114443Y-13398388D02*
X13104920Y-13360293D01*
X13104920Y-13360293D02*
X13104920Y-13312674D01*
X13104920Y-13312674D02*
X13114443Y-13274579D01*
X13114443Y-13274579D02*
X13123967Y-13255531D01*
X13123967Y-13255531D02*
X13133491Y-13246008D01*
X13133491Y-13246008D02*
X13152539Y-13236484D01*
X13304920Y-13436484D02*
X13304920Y-13303150D01*
X13304920Y-13322198D02*
X13314443Y-13312674D01*
X13314443Y-13312674D02*
X13333491Y-13303150D01*
X13333491Y-13303150D02*
X13362063Y-13303150D01*
X13362063Y-13303150D02*
X13381110Y-13312674D01*
X13381110Y-13312674D02*
X13390634Y-13331722D01*
X13390634Y-13331722D02*
X13390634Y-13436484D01*
X13390634Y-13331722D02*
X13400158Y-13312674D01*
X13400158Y-13312674D02*
X13419205Y-13303150D01*
X13419205Y-13303150D02*
X13447777Y-13303150D01*
X13447777Y-13303150D02*
X13466824Y-13312674D01*
X13466824Y-13312674D02*
X13476348Y-13331722D01*
X13476348Y-13331722D02*
X13476348Y-13436484D01*
X13571586Y-13436484D02*
X13571586Y-13303150D01*
X13571586Y-13322198D02*
X13581110Y-13312674D01*
X13581110Y-13312674D02*
X13600158Y-13303150D01*
X13600158Y-13303150D02*
X13628729Y-13303150D01*
X13628729Y-13303150D02*
X13647777Y-13312674D01*
X13647777Y-13312674D02*
X13657301Y-13331722D01*
X13657301Y-13331722D02*
X13657301Y-13436484D01*
X13657301Y-13331722D02*
X13666824Y-13312674D01*
X13666824Y-13312674D02*
X13685872Y-13303150D01*
X13685872Y-13303150D02*
X13714443Y-13303150D01*
X13714443Y-13303150D02*
X13733491Y-13312674D01*
X13733491Y-13312674D02*
X13743015Y-13331722D01*
X13743015Y-13331722D02*
X13743015Y-13436484D01*
X14133491Y-13226960D02*
X13962063Y-13484103D01*
X14390634Y-13236484D02*
X14409682Y-13236484D01*
X14409682Y-13236484D02*
X14428729Y-13246008D01*
X14428729Y-13246008D02*
X14438253Y-13255531D01*
X14438253Y-13255531D02*
X14447777Y-13274579D01*
X14447777Y-13274579D02*
X14457301Y-13312674D01*
X14457301Y-13312674D02*
X14457301Y-13360293D01*
X14457301Y-13360293D02*
X14447777Y-13398388D01*
X14447777Y-13398388D02*
X14438253Y-13417436D01*
X14438253Y-13417436D02*
X14428729Y-13426960D01*
X14428729Y-13426960D02*
X14409682Y-13436484D01*
X14409682Y-13436484D02*
X14390634Y-13436484D01*
X14390634Y-13436484D02*
X14371586Y-13426960D01*
X14371586Y-13426960D02*
X14362063Y-13417436D01*
X14362063Y-13417436D02*
X14352539Y-13398388D01*
X14352539Y-13398388D02*
X14343015Y-13360293D01*
X14343015Y-13360293D02*
X14343015Y-13312674D01*
X14343015Y-13312674D02*
X14352539Y-13274579D01*
X14352539Y-13274579D02*
X14362063Y-13255531D01*
X14362063Y-13255531D02*
X14371586Y-13246008D01*
X14371586Y-13246008D02*
X14390634Y-13236484D01*
X14543015Y-13417436D02*
X14552539Y-13426960D01*
X14552539Y-13426960D02*
X14543015Y-13436484D01*
X14543015Y-13436484D02*
X14533491Y-13426960D01*
X14533491Y-13426960D02*
X14543015Y-13417436D01*
X14543015Y-13417436D02*
X14543015Y-13436484D01*
X14676348Y-13236484D02*
X14695396Y-13236484D01*
X14695396Y-13236484D02*
X14714444Y-13246008D01*
X14714444Y-13246008D02*
X14723967Y-13255531D01*
X14723967Y-13255531D02*
X14733491Y-13274579D01*
X14733491Y-13274579D02*
X14743015Y-13312674D01*
X14743015Y-13312674D02*
X14743015Y-13360293D01*
X14743015Y-13360293D02*
X14733491Y-13398388D01*
X14733491Y-13398388D02*
X14723967Y-13417436D01*
X14723967Y-13417436D02*
X14714444Y-13426960D01*
X14714444Y-13426960D02*
X14695396Y-13436484D01*
X14695396Y-13436484D02*
X14676348Y-13436484D01*
X14676348Y-13436484D02*
X14657301Y-13426960D01*
X14657301Y-13426960D02*
X14647777Y-13417436D01*
X14647777Y-13417436D02*
X14638253Y-13398388D01*
X14638253Y-13398388D02*
X14628729Y-13360293D01*
X14628729Y-13360293D02*
X14628729Y-13312674D01*
X14628729Y-13312674D02*
X14638253Y-13274579D01*
X14638253Y-13274579D02*
X14647777Y-13255531D01*
X14647777Y-13255531D02*
X14657301Y-13246008D01*
X14657301Y-13246008D02*
X14676348Y-13236484D01*
X14933491Y-13436484D02*
X14819206Y-13436484D01*
X14876348Y-13436484D02*
X14876348Y-13236484D01*
X14876348Y-13236484D02*
X14857301Y-13265055D01*
X14857301Y-13265055D02*
X14838253Y-13284103D01*
X14838253Y-13284103D02*
X14819206Y-13293627D01*
X15114444Y-13236484D02*
X15019206Y-13236484D01*
X15019206Y-13236484D02*
X15009682Y-13331722D01*
X15009682Y-13331722D02*
X15019206Y-13322198D01*
X15019206Y-13322198D02*
X15038253Y-13312674D01*
X15038253Y-13312674D02*
X15085872Y-13312674D01*
X15085872Y-13312674D02*
X15104920Y-13322198D01*
X15104920Y-13322198D02*
X15114444Y-13331722D01*
X15114444Y-13331722D02*
X15123967Y-13350769D01*
X15123967Y-13350769D02*
X15123967Y-13398388D01*
X15123967Y-13398388D02*
X15114444Y-13417436D01*
X15114444Y-13417436D02*
X15104920Y-13426960D01*
X15104920Y-13426960D02*
X15085872Y-13436484D01*
X15085872Y-13436484D02*
X15038253Y-13436484D01*
X15038253Y-13436484D02*
X15019206Y-13426960D01*
X15019206Y-13426960D02*
X15009682Y-13417436D01*
X15190634Y-13236484D02*
X15323967Y-13236484D01*
X15323967Y-13236484D02*
X15238253Y-13436484D01*
X15390634Y-13236484D02*
X15390634Y-13274579D01*
X15466825Y-13236484D02*
X15466825Y-13274579D01*
X15762063Y-13512674D02*
X15752539Y-13503150D01*
X15752539Y-13503150D02*
X15733491Y-13474579D01*
X15733491Y-13474579D02*
X15723968Y-13455531D01*
X15723968Y-13455531D02*
X15714444Y-13426960D01*
X15714444Y-13426960D02*
X15704920Y-13379341D01*
X15704920Y-13379341D02*
X15704920Y-13341246D01*
X15704920Y-13341246D02*
X15714444Y-13293627D01*
X15714444Y-13293627D02*
X15723968Y-13265055D01*
X15723968Y-13265055D02*
X15733491Y-13246008D01*
X15733491Y-13246008D02*
X15752539Y-13217436D01*
X15752539Y-13217436D02*
X15762063Y-13207912D01*
X15923968Y-13303150D02*
X15923968Y-13436484D01*
X15876348Y-13226960D02*
X15828729Y-13369817D01*
X15828729Y-13369817D02*
X15952539Y-13369817D01*
X16181110Y-13436484D02*
X16181110Y-13236484D01*
X16266825Y-13436484D02*
X16266825Y-13331722D01*
X16266825Y-13331722D02*
X16257301Y-13312674D01*
X16257301Y-13312674D02*
X16238253Y-13303150D01*
X16238253Y-13303150D02*
X16209682Y-13303150D01*
X16209682Y-13303150D02*
X16190634Y-13312674D01*
X16190634Y-13312674D02*
X16181110Y-13322198D01*
X16390634Y-13436484D02*
X16371587Y-13426960D01*
X16371587Y-13426960D02*
X16362063Y-13417436D01*
X16362063Y-13417436D02*
X16352539Y-13398388D01*
X16352539Y-13398388D02*
X16352539Y-13341246D01*
X16352539Y-13341246D02*
X16362063Y-13322198D01*
X16362063Y-13322198D02*
X16371587Y-13312674D01*
X16371587Y-13312674D02*
X16390634Y-13303150D01*
X16390634Y-13303150D02*
X16419206Y-13303150D01*
X16419206Y-13303150D02*
X16438253Y-13312674D01*
X16438253Y-13312674D02*
X16447777Y-13322198D01*
X16447777Y-13322198D02*
X16457301Y-13341246D01*
X16457301Y-13341246D02*
X16457301Y-13398388D01*
X16457301Y-13398388D02*
X16447777Y-13417436D01*
X16447777Y-13417436D02*
X16438253Y-13426960D01*
X16438253Y-13426960D02*
X16419206Y-13436484D01*
X16419206Y-13436484D02*
X16390634Y-13436484D01*
X16571587Y-13436484D02*
X16552539Y-13426960D01*
X16552539Y-13426960D02*
X16543015Y-13407912D01*
X16543015Y-13407912D02*
X16543015Y-13236484D01*
X16723968Y-13426960D02*
X16704920Y-13436484D01*
X16704920Y-13436484D02*
X16666825Y-13436484D01*
X16666825Y-13436484D02*
X16647777Y-13426960D01*
X16647777Y-13426960D02*
X16638253Y-13407912D01*
X16638253Y-13407912D02*
X16638253Y-13331722D01*
X16638253Y-13331722D02*
X16647777Y-13312674D01*
X16647777Y-13312674D02*
X16666825Y-13303150D01*
X16666825Y-13303150D02*
X16704920Y-13303150D01*
X16704920Y-13303150D02*
X16723968Y-13312674D01*
X16723968Y-13312674D02*
X16733491Y-13331722D01*
X16733491Y-13331722D02*
X16733491Y-13350769D01*
X16733491Y-13350769D02*
X16638253Y-13369817D01*
X16809682Y-13426960D02*
X16828730Y-13436484D01*
X16828730Y-13436484D02*
X16866825Y-13436484D01*
X16866825Y-13436484D02*
X16885873Y-13426960D01*
X16885873Y-13426960D02*
X16895396Y-13407912D01*
X16895396Y-13407912D02*
X16895396Y-13398388D01*
X16895396Y-13398388D02*
X16885873Y-13379341D01*
X16885873Y-13379341D02*
X16866825Y-13369817D01*
X16866825Y-13369817D02*
X16838253Y-13369817D01*
X16838253Y-13369817D02*
X16819206Y-13360293D01*
X16819206Y-13360293D02*
X16809682Y-13341246D01*
X16809682Y-13341246D02*
X16809682Y-13331722D01*
X16809682Y-13331722D02*
X16819206Y-13312674D01*
X16819206Y-13312674D02*
X16838253Y-13303150D01*
X16838253Y-13303150D02*
X16866825Y-13303150D01*
X16866825Y-13303150D02*
X16885873Y-13312674D01*
X16962063Y-13512674D02*
X16971587Y-13503150D01*
X16971587Y-13503150D02*
X16990634Y-13474579D01*
X16990634Y-13474579D02*
X17000158Y-13455531D01*
X17000158Y-13455531D02*
X17009682Y-13426960D01*
X17009682Y-13426960D02*
X17019206Y-13379341D01*
X17019206Y-13379341D02*
X17019206Y-13341246D01*
X17019206Y-13341246D02*
X17009682Y-13293627D01*
X17009682Y-13293627D02*
X17000158Y-13265055D01*
X17000158Y-13265055D02*
X16990634Y-13246008D01*
X16990634Y-13246008D02*
X16971587Y-13217436D01*
X16971587Y-13217436D02*
X16962063Y-13207912D01*
D10*
X12187000Y-13609000D02*
G75*
G03*
X12187000Y-13609000I-50000J0D01*
G01*
D11*
X12552539Y-13700484D02*
X12438253Y-13700484D01*
X12495396Y-13700484D02*
X12495396Y-13500484D01*
X12495396Y-13500484D02*
X12476348Y-13529055D01*
X12476348Y-13529055D02*
X12457301Y-13548103D01*
X12457301Y-13548103D02*
X12438253Y-13557627D01*
X12638253Y-13681436D02*
X12647777Y-13690960D01*
X12647777Y-13690960D02*
X12638253Y-13700484D01*
X12638253Y-13700484D02*
X12628729Y-13690960D01*
X12628729Y-13690960D02*
X12638253Y-13681436D01*
X12638253Y-13681436D02*
X12638253Y-13700484D01*
X12771586Y-13500484D02*
X12790634Y-13500484D01*
X12790634Y-13500484D02*
X12809682Y-13510008D01*
X12809682Y-13510008D02*
X12819205Y-13519531D01*
X12819205Y-13519531D02*
X12828729Y-13538579D01*
X12828729Y-13538579D02*
X12838253Y-13576674D01*
X12838253Y-13576674D02*
X12838253Y-13624293D01*
X12838253Y-13624293D02*
X12828729Y-13662388D01*
X12828729Y-13662388D02*
X12819205Y-13681436D01*
X12819205Y-13681436D02*
X12809682Y-13690960D01*
X12809682Y-13690960D02*
X12790634Y-13700484D01*
X12790634Y-13700484D02*
X12771586Y-13700484D01*
X12771586Y-13700484D02*
X12752539Y-13690960D01*
X12752539Y-13690960D02*
X12743015Y-13681436D01*
X12743015Y-13681436D02*
X12733491Y-13662388D01*
X12733491Y-13662388D02*
X12723967Y-13624293D01*
X12723967Y-13624293D02*
X12723967Y-13576674D01*
X12723967Y-13576674D02*
X12733491Y-13538579D01*
X12733491Y-13538579D02*
X12743015Y-13519531D01*
X12743015Y-13519531D02*
X12752539Y-13510008D01*
X12752539Y-13510008D02*
X12771586Y-13500484D01*
X12962062Y-13500484D02*
X12981110Y-13500484D01*
X12981110Y-13500484D02*
X13000158Y-13510008D01*
X13000158Y-13510008D02*
X13009682Y-13519531D01*
X13009682Y-13519531D02*
X13019205Y-13538579D01*
X13019205Y-13538579D02*
X13028729Y-13576674D01*
X13028729Y-13576674D02*
X13028729Y-13624293D01*
X13028729Y-13624293D02*
X13019205Y-13662388D01*
X13019205Y-13662388D02*
X13009682Y-13681436D01*
X13009682Y-13681436D02*
X13000158Y-13690960D01*
X13000158Y-13690960D02*
X12981110Y-13700484D01*
X12981110Y-13700484D02*
X12962062Y-13700484D01*
X12962062Y-13700484D02*
X12943015Y-13690960D01*
X12943015Y-13690960D02*
X12933491Y-13681436D01*
X12933491Y-13681436D02*
X12923967Y-13662388D01*
X12923967Y-13662388D02*
X12914443Y-13624293D01*
X12914443Y-13624293D02*
X12914443Y-13576674D01*
X12914443Y-13576674D02*
X12923967Y-13538579D01*
X12923967Y-13538579D02*
X12933491Y-13519531D01*
X12933491Y-13519531D02*
X12943015Y-13510008D01*
X12943015Y-13510008D02*
X12962062Y-13500484D01*
X13152539Y-13500484D02*
X13171586Y-13500484D01*
X13171586Y-13500484D02*
X13190634Y-13510008D01*
X13190634Y-13510008D02*
X13200158Y-13519531D01*
X13200158Y-13519531D02*
X13209682Y-13538579D01*
X13209682Y-13538579D02*
X13219205Y-13576674D01*
X13219205Y-13576674D02*
X13219205Y-13624293D01*
X13219205Y-13624293D02*
X13209682Y-13662388D01*
X13209682Y-13662388D02*
X13200158Y-13681436D01*
X13200158Y-13681436D02*
X13190634Y-13690960D01*
X13190634Y-13690960D02*
X13171586Y-13700484D01*
X13171586Y-13700484D02*
X13152539Y-13700484D01*
X13152539Y-13700484D02*
X13133491Y-13690960D01*
X13133491Y-13690960D02*
X13123967Y-13681436D01*
X13123967Y-13681436D02*
X13114443Y-13662388D01*
X13114443Y-13662388D02*
X13104920Y-13624293D01*
X13104920Y-13624293D02*
X13104920Y-13576674D01*
X13104920Y-13576674D02*
X13114443Y-13538579D01*
X13114443Y-13538579D02*
X13123967Y-13519531D01*
X13123967Y-13519531D02*
X13133491Y-13510008D01*
X13133491Y-13510008D02*
X13152539Y-13500484D01*
X13304920Y-13700484D02*
X13304920Y-13567150D01*
X13304920Y-13586198D02*
X13314443Y-13576674D01*
X13314443Y-13576674D02*
X13333491Y-13567150D01*
X13333491Y-13567150D02*
X13362063Y-13567150D01*
X13362063Y-13567150D02*
X13381110Y-13576674D01*
X13381110Y-13576674D02*
X13390634Y-13595722D01*
X13390634Y-13595722D02*
X13390634Y-13700484D01*
X13390634Y-13595722D02*
X13400158Y-13576674D01*
X13400158Y-13576674D02*
X13419205Y-13567150D01*
X13419205Y-13567150D02*
X13447777Y-13567150D01*
X13447777Y-13567150D02*
X13466824Y-13576674D01*
X13466824Y-13576674D02*
X13476348Y-13595722D01*
X13476348Y-13595722D02*
X13476348Y-13700484D01*
X13571586Y-13700484D02*
X13571586Y-13567150D01*
X13571586Y-13586198D02*
X13581110Y-13576674D01*
X13581110Y-13576674D02*
X13600158Y-13567150D01*
X13600158Y-13567150D02*
X13628729Y-13567150D01*
X13628729Y-13567150D02*
X13647777Y-13576674D01*
X13647777Y-13576674D02*
X13657301Y-13595722D01*
X13657301Y-13595722D02*
X13657301Y-13700484D01*
X13657301Y-13595722D02*
X13666824Y-13576674D01*
X13666824Y-13576674D02*
X13685872Y-13567150D01*
X13685872Y-13567150D02*
X13714443Y-13567150D01*
X13714443Y-13567150D02*
X13733491Y-13576674D01*
X13733491Y-13576674D02*
X13743015Y-13595722D01*
X13743015Y-13595722D02*
X13743015Y-13700484D01*
X14133491Y-13490960D02*
X13962063Y-13748103D01*
X14390634Y-13500484D02*
X14409682Y-13500484D01*
X14409682Y-13500484D02*
X14428729Y-13510008D01*
X14428729Y-13510008D02*
X14438253Y-13519531D01*
X14438253Y-13519531D02*
X14447777Y-13538579D01*
X14447777Y-13538579D02*
X14457301Y-13576674D01*
X14457301Y-13576674D02*
X14457301Y-13624293D01*
X14457301Y-13624293D02*
X14447777Y-13662388D01*
X14447777Y-13662388D02*
X14438253Y-13681436D01*
X14438253Y-13681436D02*
X14428729Y-13690960D01*
X14428729Y-13690960D02*
X14409682Y-13700484D01*
X14409682Y-13700484D02*
X14390634Y-13700484D01*
X14390634Y-13700484D02*
X14371586Y-13690960D01*
X14371586Y-13690960D02*
X14362063Y-13681436D01*
X14362063Y-13681436D02*
X14352539Y-13662388D01*
X14352539Y-13662388D02*
X14343015Y-13624293D01*
X14343015Y-13624293D02*
X14343015Y-13576674D01*
X14343015Y-13576674D02*
X14352539Y-13538579D01*
X14352539Y-13538579D02*
X14362063Y-13519531D01*
X14362063Y-13519531D02*
X14371586Y-13510008D01*
X14371586Y-13510008D02*
X14390634Y-13500484D01*
X14543015Y-13681436D02*
X14552539Y-13690960D01*
X14552539Y-13690960D02*
X14543015Y-13700484D01*
X14543015Y-13700484D02*
X14533491Y-13690960D01*
X14533491Y-13690960D02*
X14543015Y-13681436D01*
X14543015Y-13681436D02*
X14543015Y-13700484D01*
X14676348Y-13500484D02*
X14695396Y-13500484D01*
X14695396Y-13500484D02*
X14714444Y-13510008D01*
X14714444Y-13510008D02*
X14723967Y-13519531D01*
X14723967Y-13519531D02*
X14733491Y-13538579D01*
X14733491Y-13538579D02*
X14743015Y-13576674D01*
X14743015Y-13576674D02*
X14743015Y-13624293D01*
X14743015Y-13624293D02*
X14733491Y-13662388D01*
X14733491Y-13662388D02*
X14723967Y-13681436D01*
X14723967Y-13681436D02*
X14714444Y-13690960D01*
X14714444Y-13690960D02*
X14695396Y-13700484D01*
X14695396Y-13700484D02*
X14676348Y-13700484D01*
X14676348Y-13700484D02*
X14657301Y-13690960D01*
X14657301Y-13690960D02*
X14647777Y-13681436D01*
X14647777Y-13681436D02*
X14638253Y-13662388D01*
X14638253Y-13662388D02*
X14628729Y-13624293D01*
X14628729Y-13624293D02*
X14628729Y-13576674D01*
X14628729Y-13576674D02*
X14638253Y-13538579D01*
X14638253Y-13538579D02*
X14647777Y-13519531D01*
X14647777Y-13519531D02*
X14657301Y-13510008D01*
X14657301Y-13510008D02*
X14676348Y-13500484D01*
X14809682Y-13500484D02*
X14933491Y-13500484D01*
X14933491Y-13500484D02*
X14866825Y-13576674D01*
X14866825Y-13576674D02*
X14895396Y-13576674D01*
X14895396Y-13576674D02*
X14914444Y-13586198D01*
X14914444Y-13586198D02*
X14923967Y-13595722D01*
X14923967Y-13595722D02*
X14933491Y-13614769D01*
X14933491Y-13614769D02*
X14933491Y-13662388D01*
X14933491Y-13662388D02*
X14923967Y-13681436D01*
X14923967Y-13681436D02*
X14914444Y-13690960D01*
X14914444Y-13690960D02*
X14895396Y-13700484D01*
X14895396Y-13700484D02*
X14838253Y-13700484D01*
X14838253Y-13700484D02*
X14819206Y-13690960D01*
X14819206Y-13690960D02*
X14809682Y-13681436D01*
X15028729Y-13700484D02*
X15066825Y-13700484D01*
X15066825Y-13700484D02*
X15085872Y-13690960D01*
X15085872Y-13690960D02*
X15095396Y-13681436D01*
X15095396Y-13681436D02*
X15114444Y-13652865D01*
X15114444Y-13652865D02*
X15123967Y-13614769D01*
X15123967Y-13614769D02*
X15123967Y-13538579D01*
X15123967Y-13538579D02*
X15114444Y-13519531D01*
X15114444Y-13519531D02*
X15104920Y-13510008D01*
X15104920Y-13510008D02*
X15085872Y-13500484D01*
X15085872Y-13500484D02*
X15047777Y-13500484D01*
X15047777Y-13500484D02*
X15028729Y-13510008D01*
X15028729Y-13510008D02*
X15019206Y-13519531D01*
X15019206Y-13519531D02*
X15009682Y-13538579D01*
X15009682Y-13538579D02*
X15009682Y-13586198D01*
X15009682Y-13586198D02*
X15019206Y-13605246D01*
X15019206Y-13605246D02*
X15028729Y-13614769D01*
X15028729Y-13614769D02*
X15047777Y-13624293D01*
X15047777Y-13624293D02*
X15085872Y-13624293D01*
X15085872Y-13624293D02*
X15104920Y-13614769D01*
X15104920Y-13614769D02*
X15114444Y-13605246D01*
X15114444Y-13605246D02*
X15123967Y-13586198D01*
X15295396Y-13567150D02*
X15295396Y-13700484D01*
X15247777Y-13490960D02*
X15200158Y-13633817D01*
X15200158Y-13633817D02*
X15323967Y-13633817D01*
X15390634Y-13500484D02*
X15390634Y-13538579D01*
X15466825Y-13500484D02*
X15466825Y-13538579D01*
X15762063Y-13776674D02*
X15752539Y-13767150D01*
X15752539Y-13767150D02*
X15733491Y-13738579D01*
X15733491Y-13738579D02*
X15723968Y-13719531D01*
X15723968Y-13719531D02*
X15714444Y-13690960D01*
X15714444Y-13690960D02*
X15704920Y-13643341D01*
X15704920Y-13643341D02*
X15704920Y-13605246D01*
X15704920Y-13605246D02*
X15714444Y-13557627D01*
X15714444Y-13557627D02*
X15723968Y-13529055D01*
X15723968Y-13529055D02*
X15733491Y-13510008D01*
X15733491Y-13510008D02*
X15752539Y-13481436D01*
X15752539Y-13481436D02*
X15762063Y-13471912D01*
X15933491Y-13500484D02*
X15838253Y-13500484D01*
X15838253Y-13500484D02*
X15828729Y-13595722D01*
X15828729Y-13595722D02*
X15838253Y-13586198D01*
X15838253Y-13586198D02*
X15857301Y-13576674D01*
X15857301Y-13576674D02*
X15904920Y-13576674D01*
X15904920Y-13576674D02*
X15923968Y-13586198D01*
X15923968Y-13586198D02*
X15933491Y-13595722D01*
X15933491Y-13595722D02*
X15943015Y-13614769D01*
X15943015Y-13614769D02*
X15943015Y-13662388D01*
X15943015Y-13662388D02*
X15933491Y-13681436D01*
X15933491Y-13681436D02*
X15923968Y-13690960D01*
X15923968Y-13690960D02*
X15904920Y-13700484D01*
X15904920Y-13700484D02*
X15857301Y-13700484D01*
X15857301Y-13700484D02*
X15838253Y-13690960D01*
X15838253Y-13690960D02*
X15828729Y-13681436D01*
X16038253Y-13700484D02*
X16076348Y-13700484D01*
X16076348Y-13700484D02*
X16095396Y-13690960D01*
X16095396Y-13690960D02*
X16104920Y-13681436D01*
X16104920Y-13681436D02*
X16123968Y-13652865D01*
X16123968Y-13652865D02*
X16133491Y-13614769D01*
X16133491Y-13614769D02*
X16133491Y-13538579D01*
X16133491Y-13538579D02*
X16123968Y-13519531D01*
X16123968Y-13519531D02*
X16114444Y-13510008D01*
X16114444Y-13510008D02*
X16095396Y-13500484D01*
X16095396Y-13500484D02*
X16057301Y-13500484D01*
X16057301Y-13500484D02*
X16038253Y-13510008D01*
X16038253Y-13510008D02*
X16028729Y-13519531D01*
X16028729Y-13519531D02*
X16019206Y-13538579D01*
X16019206Y-13538579D02*
X16019206Y-13586198D01*
X16019206Y-13586198D02*
X16028729Y-13605246D01*
X16028729Y-13605246D02*
X16038253Y-13614769D01*
X16038253Y-13614769D02*
X16057301Y-13624293D01*
X16057301Y-13624293D02*
X16095396Y-13624293D01*
X16095396Y-13624293D02*
X16114444Y-13614769D01*
X16114444Y-13614769D02*
X16123968Y-13605246D01*
X16123968Y-13605246D02*
X16133491Y-13586198D01*
X16371587Y-13700484D02*
X16371587Y-13500484D01*
X16457301Y-13700484D02*
X16457301Y-13595722D01*
X16457301Y-13595722D02*
X16447777Y-13576674D01*
X16447777Y-13576674D02*
X16428730Y-13567150D01*
X16428730Y-13567150D02*
X16400158Y-13567150D01*
X16400158Y-13567150D02*
X16381110Y-13576674D01*
X16381110Y-13576674D02*
X16371587Y-13586198D01*
X16581110Y-13700484D02*
X16562063Y-13690960D01*
X16562063Y-13690960D02*
X16552539Y-13681436D01*
X16552539Y-13681436D02*
X16543015Y-13662388D01*
X16543015Y-13662388D02*
X16543015Y-13605246D01*
X16543015Y-13605246D02*
X16552539Y-13586198D01*
X16552539Y-13586198D02*
X16562063Y-13576674D01*
X16562063Y-13576674D02*
X16581110Y-13567150D01*
X16581110Y-13567150D02*
X16609682Y-13567150D01*
X16609682Y-13567150D02*
X16628730Y-13576674D01*
X16628730Y-13576674D02*
X16638253Y-13586198D01*
X16638253Y-13586198D02*
X16647777Y-13605246D01*
X16647777Y-13605246D02*
X16647777Y-13662388D01*
X16647777Y-13662388D02*
X16638253Y-13681436D01*
X16638253Y-13681436D02*
X16628730Y-13690960D01*
X16628730Y-13690960D02*
X16609682Y-13700484D01*
X16609682Y-13700484D02*
X16581110Y-13700484D01*
X16762063Y-13700484D02*
X16743015Y-13690960D01*
X16743015Y-13690960D02*
X16733491Y-13671912D01*
X16733491Y-13671912D02*
X16733491Y-13500484D01*
X16914444Y-13690960D02*
X16895396Y-13700484D01*
X16895396Y-13700484D02*
X16857301Y-13700484D01*
X16857301Y-13700484D02*
X16838253Y-13690960D01*
X16838253Y-13690960D02*
X16828730Y-13671912D01*
X16828730Y-13671912D02*
X16828730Y-13595722D01*
X16828730Y-13595722D02*
X16838253Y-13576674D01*
X16838253Y-13576674D02*
X16857301Y-13567150D01*
X16857301Y-13567150D02*
X16895396Y-13567150D01*
X16895396Y-13567150D02*
X16914444Y-13576674D01*
X16914444Y-13576674D02*
X16923968Y-13595722D01*
X16923968Y-13595722D02*
X16923968Y-13614769D01*
X16923968Y-13614769D02*
X16828730Y-13633817D01*
X17000158Y-13690960D02*
X17019206Y-13700484D01*
X17019206Y-13700484D02*
X17057301Y-13700484D01*
X17057301Y-13700484D02*
X17076349Y-13690960D01*
X17076349Y-13690960D02*
X17085873Y-13671912D01*
X17085873Y-13671912D02*
X17085873Y-13662388D01*
X17085873Y-13662388D02*
X17076349Y-13643341D01*
X17076349Y-13643341D02*
X17057301Y-13633817D01*
X17057301Y-13633817D02*
X17028730Y-13633817D01*
X17028730Y-13633817D02*
X17009682Y-13624293D01*
X17009682Y-13624293D02*
X17000158Y-13605246D01*
X17000158Y-13605246D02*
X17000158Y-13595722D01*
X17000158Y-13595722D02*
X17009682Y-13576674D01*
X17009682Y-13576674D02*
X17028730Y-13567150D01*
X17028730Y-13567150D02*
X17057301Y-13567150D01*
X17057301Y-13567150D02*
X17076349Y-13576674D01*
X17152539Y-13776674D02*
X17162063Y-13767150D01*
X17162063Y-13767150D02*
X17181111Y-13738579D01*
X17181111Y-13738579D02*
X17190634Y-13719531D01*
X17190634Y-13719531D02*
X17200158Y-13690960D01*
X17200158Y-13690960D02*
X17209682Y-13643341D01*
X17209682Y-13643341D02*
X17209682Y-13605246D01*
X17209682Y-13605246D02*
X17200158Y-13557627D01*
X17200158Y-13557627D02*
X17190634Y-13529055D01*
X17190634Y-13529055D02*
X17181111Y-13510008D01*
X17181111Y-13510008D02*
X17162063Y-13481436D01*
X17162063Y-13481436D02*
X17152539Y-13471912D01*
D13*
X12112000Y-13798000D02*
X12112000Y-13948000D01*
X12037000Y-13873000D02*
X12187000Y-13873000D01*
D11*
X12552539Y-13964484D02*
X12438253Y-13964484D01*
X12495396Y-13964484D02*
X12495396Y-13764484D01*
X12495396Y-13764484D02*
X12476348Y-13793055D01*
X12476348Y-13793055D02*
X12457301Y-13812103D01*
X12457301Y-13812103D02*
X12438253Y-13821627D01*
X12638253Y-13945436D02*
X12647777Y-13954960D01*
X12647777Y-13954960D02*
X12638253Y-13964484D01*
X12638253Y-13964484D02*
X12628729Y-13954960D01*
X12628729Y-13954960D02*
X12638253Y-13945436D01*
X12638253Y-13945436D02*
X12638253Y-13964484D01*
X12828729Y-13764484D02*
X12733491Y-13764484D01*
X12733491Y-13764484D02*
X12723967Y-13859722D01*
X12723967Y-13859722D02*
X12733491Y-13850198D01*
X12733491Y-13850198D02*
X12752539Y-13840674D01*
X12752539Y-13840674D02*
X12800158Y-13840674D01*
X12800158Y-13840674D02*
X12819205Y-13850198D01*
X12819205Y-13850198D02*
X12828729Y-13859722D01*
X12828729Y-13859722D02*
X12838253Y-13878769D01*
X12838253Y-13878769D02*
X12838253Y-13926388D01*
X12838253Y-13926388D02*
X12828729Y-13945436D01*
X12828729Y-13945436D02*
X12819205Y-13954960D01*
X12819205Y-13954960D02*
X12800158Y-13964484D01*
X12800158Y-13964484D02*
X12752539Y-13964484D01*
X12752539Y-13964484D02*
X12733491Y-13954960D01*
X12733491Y-13954960D02*
X12723967Y-13945436D01*
X12962062Y-13764484D02*
X12981110Y-13764484D01*
X12981110Y-13764484D02*
X13000158Y-13774008D01*
X13000158Y-13774008D02*
X13009682Y-13783531D01*
X13009682Y-13783531D02*
X13019205Y-13802579D01*
X13019205Y-13802579D02*
X13028729Y-13840674D01*
X13028729Y-13840674D02*
X13028729Y-13888293D01*
X13028729Y-13888293D02*
X13019205Y-13926388D01*
X13019205Y-13926388D02*
X13009682Y-13945436D01*
X13009682Y-13945436D02*
X13000158Y-13954960D01*
X13000158Y-13954960D02*
X12981110Y-13964484D01*
X12981110Y-13964484D02*
X12962062Y-13964484D01*
X12962062Y-13964484D02*
X12943015Y-13954960D01*
X12943015Y-13954960D02*
X12933491Y-13945436D01*
X12933491Y-13945436D02*
X12923967Y-13926388D01*
X12923967Y-13926388D02*
X12914443Y-13888293D01*
X12914443Y-13888293D02*
X12914443Y-13840674D01*
X12914443Y-13840674D02*
X12923967Y-13802579D01*
X12923967Y-13802579D02*
X12933491Y-13783531D01*
X12933491Y-13783531D02*
X12943015Y-13774008D01*
X12943015Y-13774008D02*
X12962062Y-13764484D01*
X13152539Y-13764484D02*
X13171586Y-13764484D01*
X13171586Y-13764484D02*
X13190634Y-13774008D01*
X13190634Y-13774008D02*
X13200158Y-13783531D01*
X13200158Y-13783531D02*
X13209682Y-13802579D01*
X13209682Y-13802579D02*
X13219205Y-13840674D01*
X13219205Y-13840674D02*
X13219205Y-13888293D01*
X13219205Y-13888293D02*
X13209682Y-13926388D01*
X13209682Y-13926388D02*
X13200158Y-13945436D01*
X13200158Y-13945436D02*
X13190634Y-13954960D01*
X13190634Y-13954960D02*
X13171586Y-13964484D01*
X13171586Y-13964484D02*
X13152539Y-13964484D01*
X13152539Y-13964484D02*
X13133491Y-13954960D01*
X13133491Y-13954960D02*
X13123967Y-13945436D01*
X13123967Y-13945436D02*
X13114443Y-13926388D01*
X13114443Y-13926388D02*
X13104920Y-13888293D01*
X13104920Y-13888293D02*
X13104920Y-13840674D01*
X13104920Y-13840674D02*
X13114443Y-13802579D01*
X13114443Y-13802579D02*
X13123967Y-13783531D01*
X13123967Y-13783531D02*
X13133491Y-13774008D01*
X13133491Y-13774008D02*
X13152539Y-13764484D01*
X13304920Y-13964484D02*
X13304920Y-13831150D01*
X13304920Y-13850198D02*
X13314443Y-13840674D01*
X13314443Y-13840674D02*
X13333491Y-13831150D01*
X13333491Y-13831150D02*
X13362063Y-13831150D01*
X13362063Y-13831150D02*
X13381110Y-13840674D01*
X13381110Y-13840674D02*
X13390634Y-13859722D01*
X13390634Y-13859722D02*
X13390634Y-13964484D01*
X13390634Y-13859722D02*
X13400158Y-13840674D01*
X13400158Y-13840674D02*
X13419205Y-13831150D01*
X13419205Y-13831150D02*
X13447777Y-13831150D01*
X13447777Y-13831150D02*
X13466824Y-13840674D01*
X13466824Y-13840674D02*
X13476348Y-13859722D01*
X13476348Y-13859722D02*
X13476348Y-13964484D01*
X13571586Y-13964484D02*
X13571586Y-13831150D01*
X13571586Y-13850198D02*
X13581110Y-13840674D01*
X13581110Y-13840674D02*
X13600158Y-13831150D01*
X13600158Y-13831150D02*
X13628729Y-13831150D01*
X13628729Y-13831150D02*
X13647777Y-13840674D01*
X13647777Y-13840674D02*
X13657301Y-13859722D01*
X13657301Y-13859722D02*
X13657301Y-13964484D01*
X13657301Y-13859722D02*
X13666824Y-13840674D01*
X13666824Y-13840674D02*
X13685872Y-13831150D01*
X13685872Y-13831150D02*
X13714443Y-13831150D01*
X13714443Y-13831150D02*
X13733491Y-13840674D01*
X13733491Y-13840674D02*
X13743015Y-13859722D01*
X13743015Y-13859722D02*
X13743015Y-13964484D01*
X14133491Y-13754960D02*
X13962063Y-14012103D01*
X14390634Y-13764484D02*
X14409682Y-13764484D01*
X14409682Y-13764484D02*
X14428729Y-13774008D01*
X14428729Y-13774008D02*
X14438253Y-13783531D01*
X14438253Y-13783531D02*
X14447777Y-13802579D01*
X14447777Y-13802579D02*
X14457301Y-13840674D01*
X14457301Y-13840674D02*
X14457301Y-13888293D01*
X14457301Y-13888293D02*
X14447777Y-13926388D01*
X14447777Y-13926388D02*
X14438253Y-13945436D01*
X14438253Y-13945436D02*
X14428729Y-13954960D01*
X14428729Y-13954960D02*
X14409682Y-13964484D01*
X14409682Y-13964484D02*
X14390634Y-13964484D01*
X14390634Y-13964484D02*
X14371586Y-13954960D01*
X14371586Y-13954960D02*
X14362063Y-13945436D01*
X14362063Y-13945436D02*
X14352539Y-13926388D01*
X14352539Y-13926388D02*
X14343015Y-13888293D01*
X14343015Y-13888293D02*
X14343015Y-13840674D01*
X14343015Y-13840674D02*
X14352539Y-13802579D01*
X14352539Y-13802579D02*
X14362063Y-13783531D01*
X14362063Y-13783531D02*
X14371586Y-13774008D01*
X14371586Y-13774008D02*
X14390634Y-13764484D01*
X14543015Y-13945436D02*
X14552539Y-13954960D01*
X14552539Y-13954960D02*
X14543015Y-13964484D01*
X14543015Y-13964484D02*
X14533491Y-13954960D01*
X14533491Y-13954960D02*
X14543015Y-13945436D01*
X14543015Y-13945436D02*
X14543015Y-13964484D01*
X14676348Y-13764484D02*
X14695396Y-13764484D01*
X14695396Y-13764484D02*
X14714444Y-13774008D01*
X14714444Y-13774008D02*
X14723967Y-13783531D01*
X14723967Y-13783531D02*
X14733491Y-13802579D01*
X14733491Y-13802579D02*
X14743015Y-13840674D01*
X14743015Y-13840674D02*
X14743015Y-13888293D01*
X14743015Y-13888293D02*
X14733491Y-13926388D01*
X14733491Y-13926388D02*
X14723967Y-13945436D01*
X14723967Y-13945436D02*
X14714444Y-13954960D01*
X14714444Y-13954960D02*
X14695396Y-13964484D01*
X14695396Y-13964484D02*
X14676348Y-13964484D01*
X14676348Y-13964484D02*
X14657301Y-13954960D01*
X14657301Y-13954960D02*
X14647777Y-13945436D01*
X14647777Y-13945436D02*
X14638253Y-13926388D01*
X14638253Y-13926388D02*
X14628729Y-13888293D01*
X14628729Y-13888293D02*
X14628729Y-13840674D01*
X14628729Y-13840674D02*
X14638253Y-13802579D01*
X14638253Y-13802579D02*
X14647777Y-13783531D01*
X14647777Y-13783531D02*
X14657301Y-13774008D01*
X14657301Y-13774008D02*
X14676348Y-13764484D01*
X14923967Y-13764484D02*
X14828729Y-13764484D01*
X14828729Y-13764484D02*
X14819206Y-13859722D01*
X14819206Y-13859722D02*
X14828729Y-13850198D01*
X14828729Y-13850198D02*
X14847777Y-13840674D01*
X14847777Y-13840674D02*
X14895396Y-13840674D01*
X14895396Y-13840674D02*
X14914444Y-13850198D01*
X14914444Y-13850198D02*
X14923967Y-13859722D01*
X14923967Y-13859722D02*
X14933491Y-13878769D01*
X14933491Y-13878769D02*
X14933491Y-13926388D01*
X14933491Y-13926388D02*
X14923967Y-13945436D01*
X14923967Y-13945436D02*
X14914444Y-13954960D01*
X14914444Y-13954960D02*
X14895396Y-13964484D01*
X14895396Y-13964484D02*
X14847777Y-13964484D01*
X14847777Y-13964484D02*
X14828729Y-13954960D01*
X14828729Y-13954960D02*
X14819206Y-13945436D01*
X15028729Y-13964484D02*
X15066825Y-13964484D01*
X15066825Y-13964484D02*
X15085872Y-13954960D01*
X15085872Y-13954960D02*
X15095396Y-13945436D01*
X15095396Y-13945436D02*
X15114444Y-13916865D01*
X15114444Y-13916865D02*
X15123967Y-13878769D01*
X15123967Y-13878769D02*
X15123967Y-13802579D01*
X15123967Y-13802579D02*
X15114444Y-13783531D01*
X15114444Y-13783531D02*
X15104920Y-13774008D01*
X15104920Y-13774008D02*
X15085872Y-13764484D01*
X15085872Y-13764484D02*
X15047777Y-13764484D01*
X15047777Y-13764484D02*
X15028729Y-13774008D01*
X15028729Y-13774008D02*
X15019206Y-13783531D01*
X15019206Y-13783531D02*
X15009682Y-13802579D01*
X15009682Y-13802579D02*
X15009682Y-13850198D01*
X15009682Y-13850198D02*
X15019206Y-13869246D01*
X15019206Y-13869246D02*
X15028729Y-13878769D01*
X15028729Y-13878769D02*
X15047777Y-13888293D01*
X15047777Y-13888293D02*
X15085872Y-13888293D01*
X15085872Y-13888293D02*
X15104920Y-13878769D01*
X15104920Y-13878769D02*
X15114444Y-13869246D01*
X15114444Y-13869246D02*
X15123967Y-13850198D01*
X15314444Y-13964484D02*
X15200158Y-13964484D01*
X15257301Y-13964484D02*
X15257301Y-13764484D01*
X15257301Y-13764484D02*
X15238253Y-13793055D01*
X15238253Y-13793055D02*
X15219206Y-13812103D01*
X15219206Y-13812103D02*
X15200158Y-13821627D01*
X15390634Y-13764484D02*
X15390634Y-13802579D01*
X15466825Y-13764484D02*
X15466825Y-13802579D01*
X15762063Y-14040674D02*
X15752539Y-14031150D01*
X15752539Y-14031150D02*
X15733491Y-14002579D01*
X15733491Y-14002579D02*
X15723968Y-13983531D01*
X15723968Y-13983531D02*
X15714444Y-13954960D01*
X15714444Y-13954960D02*
X15704920Y-13907341D01*
X15704920Y-13907341D02*
X15704920Y-13869246D01*
X15704920Y-13869246D02*
X15714444Y-13821627D01*
X15714444Y-13821627D02*
X15723968Y-13793055D01*
X15723968Y-13793055D02*
X15733491Y-13774008D01*
X15733491Y-13774008D02*
X15752539Y-13745436D01*
X15752539Y-13745436D02*
X15762063Y-13735912D01*
X15923968Y-13831150D02*
X15923968Y-13964484D01*
X15876348Y-13754960D02*
X15828729Y-13897817D01*
X15828729Y-13897817D02*
X15952539Y-13897817D01*
X16181110Y-13964484D02*
X16181110Y-13764484D01*
X16266825Y-13964484D02*
X16266825Y-13859722D01*
X16266825Y-13859722D02*
X16257301Y-13840674D01*
X16257301Y-13840674D02*
X16238253Y-13831150D01*
X16238253Y-13831150D02*
X16209682Y-13831150D01*
X16209682Y-13831150D02*
X16190634Y-13840674D01*
X16190634Y-13840674D02*
X16181110Y-13850198D01*
X16390634Y-13964484D02*
X16371587Y-13954960D01*
X16371587Y-13954960D02*
X16362063Y-13945436D01*
X16362063Y-13945436D02*
X16352539Y-13926388D01*
X16352539Y-13926388D02*
X16352539Y-13869246D01*
X16352539Y-13869246D02*
X16362063Y-13850198D01*
X16362063Y-13850198D02*
X16371587Y-13840674D01*
X16371587Y-13840674D02*
X16390634Y-13831150D01*
X16390634Y-13831150D02*
X16419206Y-13831150D01*
X16419206Y-13831150D02*
X16438253Y-13840674D01*
X16438253Y-13840674D02*
X16447777Y-13850198D01*
X16447777Y-13850198D02*
X16457301Y-13869246D01*
X16457301Y-13869246D02*
X16457301Y-13926388D01*
X16457301Y-13926388D02*
X16447777Y-13945436D01*
X16447777Y-13945436D02*
X16438253Y-13954960D01*
X16438253Y-13954960D02*
X16419206Y-13964484D01*
X16419206Y-13964484D02*
X16390634Y-13964484D01*
X16571587Y-13964484D02*
X16552539Y-13954960D01*
X16552539Y-13954960D02*
X16543015Y-13935912D01*
X16543015Y-13935912D02*
X16543015Y-13764484D01*
X16723968Y-13954960D02*
X16704920Y-13964484D01*
X16704920Y-13964484D02*
X16666825Y-13964484D01*
X16666825Y-13964484D02*
X16647777Y-13954960D01*
X16647777Y-13954960D02*
X16638253Y-13935912D01*
X16638253Y-13935912D02*
X16638253Y-13859722D01*
X16638253Y-13859722D02*
X16647777Y-13840674D01*
X16647777Y-13840674D02*
X16666825Y-13831150D01*
X16666825Y-13831150D02*
X16704920Y-13831150D01*
X16704920Y-13831150D02*
X16723968Y-13840674D01*
X16723968Y-13840674D02*
X16733491Y-13859722D01*
X16733491Y-13859722D02*
X16733491Y-13878769D01*
X16733491Y-13878769D02*
X16638253Y-13897817D01*
X16809682Y-13954960D02*
X16828730Y-13964484D01*
X16828730Y-13964484D02*
X16866825Y-13964484D01*
X16866825Y-13964484D02*
X16885873Y-13954960D01*
X16885873Y-13954960D02*
X16895396Y-13935912D01*
X16895396Y-13935912D02*
X16895396Y-13926388D01*
X16895396Y-13926388D02*
X16885873Y-13907341D01*
X16885873Y-13907341D02*
X16866825Y-13897817D01*
X16866825Y-13897817D02*
X16838253Y-13897817D01*
X16838253Y-13897817D02*
X16819206Y-13888293D01*
X16819206Y-13888293D02*
X16809682Y-13869246D01*
X16809682Y-13869246D02*
X16809682Y-13859722D01*
X16809682Y-13859722D02*
X16819206Y-13840674D01*
X16819206Y-13840674D02*
X16838253Y-13831150D01*
X16838253Y-13831150D02*
X16866825Y-13831150D01*
X16866825Y-13831150D02*
X16885873Y-13840674D01*
X16962063Y-14040674D02*
X16971587Y-14031150D01*
X16971587Y-14031150D02*
X16990634Y-14002579D01*
X16990634Y-14002579D02*
X17000158Y-13983531D01*
X17000158Y-13983531D02*
X17009682Y-13954960D01*
X17009682Y-13954960D02*
X17019206Y-13907341D01*
X17019206Y-13907341D02*
X17019206Y-13869246D01*
X17019206Y-13869246D02*
X17009682Y-13821627D01*
X17009682Y-13821627D02*
X17000158Y-13793055D01*
X17000158Y-13793055D02*
X16990634Y-13774008D01*
X16990634Y-13774008D02*
X16971587Y-13745436D01*
X16971587Y-13745436D02*
X16962063Y-13735912D01*
X12157711Y-14213711D02*
X12157711Y-14072289D01*
X12016289Y-14072289D01*
X12016289Y-14213711D01*
X12157711Y-14213711D01*
X12438253Y-14053531D02*
X12447777Y-14044008D01*
X12447777Y-14044008D02*
X12466824Y-14034484D01*
X12466824Y-14034484D02*
X12514443Y-14034484D01*
X12514443Y-14034484D02*
X12533491Y-14044008D01*
X12533491Y-14044008D02*
X12543015Y-14053531D01*
X12543015Y-14053531D02*
X12552539Y-14072579D01*
X12552539Y-14072579D02*
X12552539Y-14091627D01*
X12552539Y-14091627D02*
X12543015Y-14120198D01*
X12543015Y-14120198D02*
X12428729Y-14234484D01*
X12428729Y-14234484D02*
X12552539Y-14234484D01*
X12638253Y-14215436D02*
X12647777Y-14224960D01*
X12647777Y-14224960D02*
X12638253Y-14234484D01*
X12638253Y-14234484D02*
X12628729Y-14224960D01*
X12628729Y-14224960D02*
X12638253Y-14215436D01*
X12638253Y-14215436D02*
X12638253Y-14234484D01*
X12714443Y-14034484D02*
X12838253Y-14034484D01*
X12838253Y-14034484D02*
X12771586Y-14110674D01*
X12771586Y-14110674D02*
X12800158Y-14110674D01*
X12800158Y-14110674D02*
X12819205Y-14120198D01*
X12819205Y-14120198D02*
X12828729Y-14129722D01*
X12828729Y-14129722D02*
X12838253Y-14148769D01*
X12838253Y-14148769D02*
X12838253Y-14196388D01*
X12838253Y-14196388D02*
X12828729Y-14215436D01*
X12828729Y-14215436D02*
X12819205Y-14224960D01*
X12819205Y-14224960D02*
X12800158Y-14234484D01*
X12800158Y-14234484D02*
X12743015Y-14234484D01*
X12743015Y-14234484D02*
X12723967Y-14224960D01*
X12723967Y-14224960D02*
X12714443Y-14215436D01*
X12962062Y-14034484D02*
X12981110Y-14034484D01*
X12981110Y-14034484D02*
X13000158Y-14044008D01*
X13000158Y-14044008D02*
X13009682Y-14053531D01*
X13009682Y-14053531D02*
X13019205Y-14072579D01*
X13019205Y-14072579D02*
X13028729Y-14110674D01*
X13028729Y-14110674D02*
X13028729Y-14158293D01*
X13028729Y-14158293D02*
X13019205Y-14196388D01*
X13019205Y-14196388D02*
X13009682Y-14215436D01*
X13009682Y-14215436D02*
X13000158Y-14224960D01*
X13000158Y-14224960D02*
X12981110Y-14234484D01*
X12981110Y-14234484D02*
X12962062Y-14234484D01*
X12962062Y-14234484D02*
X12943015Y-14224960D01*
X12943015Y-14224960D02*
X12933491Y-14215436D01*
X12933491Y-14215436D02*
X12923967Y-14196388D01*
X12923967Y-14196388D02*
X12914443Y-14158293D01*
X12914443Y-14158293D02*
X12914443Y-14110674D01*
X12914443Y-14110674D02*
X12923967Y-14072579D01*
X12923967Y-14072579D02*
X12933491Y-14053531D01*
X12933491Y-14053531D02*
X12943015Y-14044008D01*
X12943015Y-14044008D02*
X12962062Y-14034484D01*
X13152539Y-14034484D02*
X13171586Y-14034484D01*
X13171586Y-14034484D02*
X13190634Y-14044008D01*
X13190634Y-14044008D02*
X13200158Y-14053531D01*
X13200158Y-14053531D02*
X13209682Y-14072579D01*
X13209682Y-14072579D02*
X13219205Y-14110674D01*
X13219205Y-14110674D02*
X13219205Y-14158293D01*
X13219205Y-14158293D02*
X13209682Y-14196388D01*
X13209682Y-14196388D02*
X13200158Y-14215436D01*
X13200158Y-14215436D02*
X13190634Y-14224960D01*
X13190634Y-14224960D02*
X13171586Y-14234484D01*
X13171586Y-14234484D02*
X13152539Y-14234484D01*
X13152539Y-14234484D02*
X13133491Y-14224960D01*
X13133491Y-14224960D02*
X13123967Y-14215436D01*
X13123967Y-14215436D02*
X13114443Y-14196388D01*
X13114443Y-14196388D02*
X13104920Y-14158293D01*
X13104920Y-14158293D02*
X13104920Y-14110674D01*
X13104920Y-14110674D02*
X13114443Y-14072579D01*
X13114443Y-14072579D02*
X13123967Y-14053531D01*
X13123967Y-14053531D02*
X13133491Y-14044008D01*
X13133491Y-14044008D02*
X13152539Y-14034484D01*
X13304920Y-14234484D02*
X13304920Y-14101150D01*
X13304920Y-14120198D02*
X13314443Y-14110674D01*
X13314443Y-14110674D02*
X13333491Y-14101150D01*
X13333491Y-14101150D02*
X13362063Y-14101150D01*
X13362063Y-14101150D02*
X13381110Y-14110674D01*
X13381110Y-14110674D02*
X13390634Y-14129722D01*
X13390634Y-14129722D02*
X13390634Y-14234484D01*
X13390634Y-14129722D02*
X13400158Y-14110674D01*
X13400158Y-14110674D02*
X13419205Y-14101150D01*
X13419205Y-14101150D02*
X13447777Y-14101150D01*
X13447777Y-14101150D02*
X13466824Y-14110674D01*
X13466824Y-14110674D02*
X13476348Y-14129722D01*
X13476348Y-14129722D02*
X13476348Y-14234484D01*
X13571586Y-14234484D02*
X13571586Y-14101150D01*
X13571586Y-14120198D02*
X13581110Y-14110674D01*
X13581110Y-14110674D02*
X13600158Y-14101150D01*
X13600158Y-14101150D02*
X13628729Y-14101150D01*
X13628729Y-14101150D02*
X13647777Y-14110674D01*
X13647777Y-14110674D02*
X13657301Y-14129722D01*
X13657301Y-14129722D02*
X13657301Y-14234484D01*
X13657301Y-14129722D02*
X13666824Y-14110674D01*
X13666824Y-14110674D02*
X13685872Y-14101150D01*
X13685872Y-14101150D02*
X13714443Y-14101150D01*
X13714443Y-14101150D02*
X13733491Y-14110674D01*
X13733491Y-14110674D02*
X13743015Y-14129722D01*
X13743015Y-14129722D02*
X13743015Y-14234484D01*
X14133491Y-14024960D02*
X13962063Y-14282103D01*
X14390634Y-14034484D02*
X14409682Y-14034484D01*
X14409682Y-14034484D02*
X14428729Y-14044008D01*
X14428729Y-14044008D02*
X14438253Y-14053531D01*
X14438253Y-14053531D02*
X14447777Y-14072579D01*
X14447777Y-14072579D02*
X14457301Y-14110674D01*
X14457301Y-14110674D02*
X14457301Y-14158293D01*
X14457301Y-14158293D02*
X14447777Y-14196388D01*
X14447777Y-14196388D02*
X14438253Y-14215436D01*
X14438253Y-14215436D02*
X14428729Y-14224960D01*
X14428729Y-14224960D02*
X14409682Y-14234484D01*
X14409682Y-14234484D02*
X14390634Y-14234484D01*
X14390634Y-14234484D02*
X14371586Y-14224960D01*
X14371586Y-14224960D02*
X14362063Y-14215436D01*
X14362063Y-14215436D02*
X14352539Y-14196388D01*
X14352539Y-14196388D02*
X14343015Y-14158293D01*
X14343015Y-14158293D02*
X14343015Y-14110674D01*
X14343015Y-14110674D02*
X14352539Y-14072579D01*
X14352539Y-14072579D02*
X14362063Y-14053531D01*
X14362063Y-14053531D02*
X14371586Y-14044008D01*
X14371586Y-14044008D02*
X14390634Y-14034484D01*
X14543015Y-14215436D02*
X14552539Y-14224960D01*
X14552539Y-14224960D02*
X14543015Y-14234484D01*
X14543015Y-14234484D02*
X14533491Y-14224960D01*
X14533491Y-14224960D02*
X14543015Y-14215436D01*
X14543015Y-14215436D02*
X14543015Y-14234484D01*
X14676348Y-14034484D02*
X14695396Y-14034484D01*
X14695396Y-14034484D02*
X14714444Y-14044008D01*
X14714444Y-14044008D02*
X14723967Y-14053531D01*
X14723967Y-14053531D02*
X14733491Y-14072579D01*
X14733491Y-14072579D02*
X14743015Y-14110674D01*
X14743015Y-14110674D02*
X14743015Y-14158293D01*
X14743015Y-14158293D02*
X14733491Y-14196388D01*
X14733491Y-14196388D02*
X14723967Y-14215436D01*
X14723967Y-14215436D02*
X14714444Y-14224960D01*
X14714444Y-14224960D02*
X14695396Y-14234484D01*
X14695396Y-14234484D02*
X14676348Y-14234484D01*
X14676348Y-14234484D02*
X14657301Y-14224960D01*
X14657301Y-14224960D02*
X14647777Y-14215436D01*
X14647777Y-14215436D02*
X14638253Y-14196388D01*
X14638253Y-14196388D02*
X14628729Y-14158293D01*
X14628729Y-14158293D02*
X14628729Y-14110674D01*
X14628729Y-14110674D02*
X14638253Y-14072579D01*
X14638253Y-14072579D02*
X14647777Y-14053531D01*
X14647777Y-14053531D02*
X14657301Y-14044008D01*
X14657301Y-14044008D02*
X14676348Y-14034484D01*
X14838253Y-14234484D02*
X14876348Y-14234484D01*
X14876348Y-14234484D02*
X14895396Y-14224960D01*
X14895396Y-14224960D02*
X14904920Y-14215436D01*
X14904920Y-14215436D02*
X14923967Y-14186865D01*
X14923967Y-14186865D02*
X14933491Y-14148769D01*
X14933491Y-14148769D02*
X14933491Y-14072579D01*
X14933491Y-14072579D02*
X14923967Y-14053531D01*
X14923967Y-14053531D02*
X14914444Y-14044008D01*
X14914444Y-14044008D02*
X14895396Y-14034484D01*
X14895396Y-14034484D02*
X14857301Y-14034484D01*
X14857301Y-14034484D02*
X14838253Y-14044008D01*
X14838253Y-14044008D02*
X14828729Y-14053531D01*
X14828729Y-14053531D02*
X14819206Y-14072579D01*
X14819206Y-14072579D02*
X14819206Y-14120198D01*
X14819206Y-14120198D02*
X14828729Y-14139246D01*
X14828729Y-14139246D02*
X14838253Y-14148769D01*
X14838253Y-14148769D02*
X14857301Y-14158293D01*
X14857301Y-14158293D02*
X14895396Y-14158293D01*
X14895396Y-14158293D02*
X14914444Y-14148769D01*
X14914444Y-14148769D02*
X14923967Y-14139246D01*
X14923967Y-14139246D02*
X14933491Y-14120198D01*
X15057301Y-14034484D02*
X15076348Y-14034484D01*
X15076348Y-14034484D02*
X15095396Y-14044008D01*
X15095396Y-14044008D02*
X15104920Y-14053531D01*
X15104920Y-14053531D02*
X15114444Y-14072579D01*
X15114444Y-14072579D02*
X15123967Y-14110674D01*
X15123967Y-14110674D02*
X15123967Y-14158293D01*
X15123967Y-14158293D02*
X15114444Y-14196388D01*
X15114444Y-14196388D02*
X15104920Y-14215436D01*
X15104920Y-14215436D02*
X15095396Y-14224960D01*
X15095396Y-14224960D02*
X15076348Y-14234484D01*
X15076348Y-14234484D02*
X15057301Y-14234484D01*
X15057301Y-14234484D02*
X15038253Y-14224960D01*
X15038253Y-14224960D02*
X15028729Y-14215436D01*
X15028729Y-14215436D02*
X15019206Y-14196388D01*
X15019206Y-14196388D02*
X15009682Y-14158293D01*
X15009682Y-14158293D02*
X15009682Y-14110674D01*
X15009682Y-14110674D02*
X15019206Y-14072579D01*
X15019206Y-14072579D02*
X15028729Y-14053531D01*
X15028729Y-14053531D02*
X15038253Y-14044008D01*
X15038253Y-14044008D02*
X15057301Y-14034484D01*
X15295396Y-14034484D02*
X15257301Y-14034484D01*
X15257301Y-14034484D02*
X15238253Y-14044008D01*
X15238253Y-14044008D02*
X15228729Y-14053531D01*
X15228729Y-14053531D02*
X15209682Y-14082103D01*
X15209682Y-14082103D02*
X15200158Y-14120198D01*
X15200158Y-14120198D02*
X15200158Y-14196388D01*
X15200158Y-14196388D02*
X15209682Y-14215436D01*
X15209682Y-14215436D02*
X15219206Y-14224960D01*
X15219206Y-14224960D02*
X15238253Y-14234484D01*
X15238253Y-14234484D02*
X15276348Y-14234484D01*
X15276348Y-14234484D02*
X15295396Y-14224960D01*
X15295396Y-14224960D02*
X15304920Y-14215436D01*
X15304920Y-14215436D02*
X15314444Y-14196388D01*
X15314444Y-14196388D02*
X15314444Y-14148769D01*
X15314444Y-14148769D02*
X15304920Y-14129722D01*
X15304920Y-14129722D02*
X15295396Y-14120198D01*
X15295396Y-14120198D02*
X15276348Y-14110674D01*
X15276348Y-14110674D02*
X15238253Y-14110674D01*
X15238253Y-14110674D02*
X15219206Y-14120198D01*
X15219206Y-14120198D02*
X15209682Y-14129722D01*
X15209682Y-14129722D02*
X15200158Y-14148769D01*
X15390634Y-14034484D02*
X15390634Y-14072579D01*
X15466825Y-14034484D02*
X15466825Y-14072579D01*
X15762063Y-14310674D02*
X15752539Y-14301150D01*
X15752539Y-14301150D02*
X15733491Y-14272579D01*
X15733491Y-14272579D02*
X15723968Y-14253531D01*
X15723968Y-14253531D02*
X15714444Y-14224960D01*
X15714444Y-14224960D02*
X15704920Y-14177341D01*
X15704920Y-14177341D02*
X15704920Y-14139246D01*
X15704920Y-14139246D02*
X15714444Y-14091627D01*
X15714444Y-14091627D02*
X15723968Y-14063055D01*
X15723968Y-14063055D02*
X15733491Y-14044008D01*
X15733491Y-14044008D02*
X15752539Y-14015436D01*
X15752539Y-14015436D02*
X15762063Y-14005912D01*
X15828729Y-14053531D02*
X15838253Y-14044008D01*
X15838253Y-14044008D02*
X15857301Y-14034484D01*
X15857301Y-14034484D02*
X15904920Y-14034484D01*
X15904920Y-14034484D02*
X15923968Y-14044008D01*
X15923968Y-14044008D02*
X15933491Y-14053531D01*
X15933491Y-14053531D02*
X15943015Y-14072579D01*
X15943015Y-14072579D02*
X15943015Y-14091627D01*
X15943015Y-14091627D02*
X15933491Y-14120198D01*
X15933491Y-14120198D02*
X15819206Y-14234484D01*
X15819206Y-14234484D02*
X15943015Y-14234484D01*
X16181110Y-14234484D02*
X16181110Y-14034484D01*
X16266825Y-14234484D02*
X16266825Y-14129722D01*
X16266825Y-14129722D02*
X16257301Y-14110674D01*
X16257301Y-14110674D02*
X16238253Y-14101150D01*
X16238253Y-14101150D02*
X16209682Y-14101150D01*
X16209682Y-14101150D02*
X16190634Y-14110674D01*
X16190634Y-14110674D02*
X16181110Y-14120198D01*
X16390634Y-14234484D02*
X16371587Y-14224960D01*
X16371587Y-14224960D02*
X16362063Y-14215436D01*
X16362063Y-14215436D02*
X16352539Y-14196388D01*
X16352539Y-14196388D02*
X16352539Y-14139246D01*
X16352539Y-14139246D02*
X16362063Y-14120198D01*
X16362063Y-14120198D02*
X16371587Y-14110674D01*
X16371587Y-14110674D02*
X16390634Y-14101150D01*
X16390634Y-14101150D02*
X16419206Y-14101150D01*
X16419206Y-14101150D02*
X16438253Y-14110674D01*
X16438253Y-14110674D02*
X16447777Y-14120198D01*
X16447777Y-14120198D02*
X16457301Y-14139246D01*
X16457301Y-14139246D02*
X16457301Y-14196388D01*
X16457301Y-14196388D02*
X16447777Y-14215436D01*
X16447777Y-14215436D02*
X16438253Y-14224960D01*
X16438253Y-14224960D02*
X16419206Y-14234484D01*
X16419206Y-14234484D02*
X16390634Y-14234484D01*
X16571587Y-14234484D02*
X16552539Y-14224960D01*
X16552539Y-14224960D02*
X16543015Y-14205912D01*
X16543015Y-14205912D02*
X16543015Y-14034484D01*
X16723968Y-14224960D02*
X16704920Y-14234484D01*
X16704920Y-14234484D02*
X16666825Y-14234484D01*
X16666825Y-14234484D02*
X16647777Y-14224960D01*
X16647777Y-14224960D02*
X16638253Y-14205912D01*
X16638253Y-14205912D02*
X16638253Y-14129722D01*
X16638253Y-14129722D02*
X16647777Y-14110674D01*
X16647777Y-14110674D02*
X16666825Y-14101150D01*
X16666825Y-14101150D02*
X16704920Y-14101150D01*
X16704920Y-14101150D02*
X16723968Y-14110674D01*
X16723968Y-14110674D02*
X16733491Y-14129722D01*
X16733491Y-14129722D02*
X16733491Y-14148769D01*
X16733491Y-14148769D02*
X16638253Y-14167817D01*
X16809682Y-14224960D02*
X16828730Y-14234484D01*
X16828730Y-14234484D02*
X16866825Y-14234484D01*
X16866825Y-14234484D02*
X16885873Y-14224960D01*
X16885873Y-14224960D02*
X16895396Y-14205912D01*
X16895396Y-14205912D02*
X16895396Y-14196388D01*
X16895396Y-14196388D02*
X16885873Y-14177341D01*
X16885873Y-14177341D02*
X16866825Y-14167817D01*
X16866825Y-14167817D02*
X16838253Y-14167817D01*
X16838253Y-14167817D02*
X16819206Y-14158293D01*
X16819206Y-14158293D02*
X16809682Y-14139246D01*
X16809682Y-14139246D02*
X16809682Y-14129722D01*
X16809682Y-14129722D02*
X16819206Y-14110674D01*
X16819206Y-14110674D02*
X16838253Y-14101150D01*
X16838253Y-14101150D02*
X16866825Y-14101150D01*
X16866825Y-14101150D02*
X16885873Y-14110674D01*
X16962063Y-14310674D02*
X16971587Y-14301150D01*
X16971587Y-14301150D02*
X16990634Y-14272579D01*
X16990634Y-14272579D02*
X17000158Y-14253531D01*
X17000158Y-14253531D02*
X17009682Y-14224960D01*
X17009682Y-14224960D02*
X17019206Y-14177341D01*
X17019206Y-14177341D02*
X17019206Y-14139246D01*
X17019206Y-14139246D02*
X17009682Y-14091627D01*
X17009682Y-14091627D02*
X17000158Y-14063055D01*
X17000158Y-14063055D02*
X16990634Y-14044008D01*
X16990634Y-14044008D02*
X16971587Y-14015436D01*
X16971587Y-14015436D02*
X16962063Y-14005912D01*
X12087000Y-14563000D02*
X12187000Y-14463000D01*
X12087000Y-14363000D01*
X11987000Y-14463000D01*
X12087000Y-14563000D01*
X12428729Y-14354484D02*
X12552539Y-14354484D01*
X12552539Y-14354484D02*
X12485872Y-14430674D01*
X12485872Y-14430674D02*
X12514443Y-14430674D01*
X12514443Y-14430674D02*
X12533491Y-14440198D01*
X12533491Y-14440198D02*
X12543015Y-14449722D01*
X12543015Y-14449722D02*
X12552539Y-14468769D01*
X12552539Y-14468769D02*
X12552539Y-14516388D01*
X12552539Y-14516388D02*
X12543015Y-14535436D01*
X12543015Y-14535436D02*
X12533491Y-14544960D01*
X12533491Y-14544960D02*
X12514443Y-14554484D01*
X12514443Y-14554484D02*
X12457301Y-14554484D01*
X12457301Y-14554484D02*
X12438253Y-14544960D01*
X12438253Y-14544960D02*
X12428729Y-14535436D01*
X12638253Y-14535436D02*
X12647777Y-14544960D01*
X12647777Y-14544960D02*
X12638253Y-14554484D01*
X12638253Y-14554484D02*
X12628729Y-14544960D01*
X12628729Y-14544960D02*
X12638253Y-14535436D01*
X12638253Y-14535436D02*
X12638253Y-14554484D01*
X12723967Y-14373531D02*
X12733491Y-14364008D01*
X12733491Y-14364008D02*
X12752539Y-14354484D01*
X12752539Y-14354484D02*
X12800158Y-14354484D01*
X12800158Y-14354484D02*
X12819205Y-14364008D01*
X12819205Y-14364008D02*
X12828729Y-14373531D01*
X12828729Y-14373531D02*
X12838253Y-14392579D01*
X12838253Y-14392579D02*
X12838253Y-14411627D01*
X12838253Y-14411627D02*
X12828729Y-14440198D01*
X12828729Y-14440198D02*
X12714443Y-14554484D01*
X12714443Y-14554484D02*
X12838253Y-14554484D01*
X12962062Y-14354484D02*
X12981110Y-14354484D01*
X12981110Y-14354484D02*
X13000158Y-14364008D01*
X13000158Y-14364008D02*
X13009682Y-14373531D01*
X13009682Y-14373531D02*
X13019205Y-14392579D01*
X13019205Y-14392579D02*
X13028729Y-14430674D01*
X13028729Y-14430674D02*
X13028729Y-14478293D01*
X13028729Y-14478293D02*
X13019205Y-14516388D01*
X13019205Y-14516388D02*
X13009682Y-14535436D01*
X13009682Y-14535436D02*
X13000158Y-14544960D01*
X13000158Y-14544960D02*
X12981110Y-14554484D01*
X12981110Y-14554484D02*
X12962062Y-14554484D01*
X12962062Y-14554484D02*
X12943015Y-14544960D01*
X12943015Y-14544960D02*
X12933491Y-14535436D01*
X12933491Y-14535436D02*
X12923967Y-14516388D01*
X12923967Y-14516388D02*
X12914443Y-14478293D01*
X12914443Y-14478293D02*
X12914443Y-14430674D01*
X12914443Y-14430674D02*
X12923967Y-14392579D01*
X12923967Y-14392579D02*
X12933491Y-14373531D01*
X12933491Y-14373531D02*
X12943015Y-14364008D01*
X12943015Y-14364008D02*
X12962062Y-14354484D01*
X13152539Y-14354484D02*
X13171586Y-14354484D01*
X13171586Y-14354484D02*
X13190634Y-14364008D01*
X13190634Y-14364008D02*
X13200158Y-14373531D01*
X13200158Y-14373531D02*
X13209682Y-14392579D01*
X13209682Y-14392579D02*
X13219205Y-14430674D01*
X13219205Y-14430674D02*
X13219205Y-14478293D01*
X13219205Y-14478293D02*
X13209682Y-14516388D01*
X13209682Y-14516388D02*
X13200158Y-14535436D01*
X13200158Y-14535436D02*
X13190634Y-14544960D01*
X13190634Y-14544960D02*
X13171586Y-14554484D01*
X13171586Y-14554484D02*
X13152539Y-14554484D01*
X13152539Y-14554484D02*
X13133491Y-14544960D01*
X13133491Y-14544960D02*
X13123967Y-14535436D01*
X13123967Y-14535436D02*
X13114443Y-14516388D01*
X13114443Y-14516388D02*
X13104920Y-14478293D01*
X13104920Y-14478293D02*
X13104920Y-14430674D01*
X13104920Y-14430674D02*
X13114443Y-14392579D01*
X13114443Y-14392579D02*
X13123967Y-14373531D01*
X13123967Y-14373531D02*
X13133491Y-14364008D01*
X13133491Y-14364008D02*
X13152539Y-14354484D01*
X13304920Y-14554484D02*
X13304920Y-14421150D01*
X13304920Y-14440198D02*
X13314443Y-14430674D01*
X13314443Y-14430674D02*
X13333491Y-14421150D01*
X13333491Y-14421150D02*
X13362063Y-14421150D01*
X13362063Y-14421150D02*
X13381110Y-14430674D01*
X13381110Y-14430674D02*
X13390634Y-14449722D01*
X13390634Y-14449722D02*
X13390634Y-14554484D01*
X13390634Y-14449722D02*
X13400158Y-14430674D01*
X13400158Y-14430674D02*
X13419205Y-14421150D01*
X13419205Y-14421150D02*
X13447777Y-14421150D01*
X13447777Y-14421150D02*
X13466824Y-14430674D01*
X13466824Y-14430674D02*
X13476348Y-14449722D01*
X13476348Y-14449722D02*
X13476348Y-14554484D01*
X13571586Y-14554484D02*
X13571586Y-14421150D01*
X13571586Y-14440198D02*
X13581110Y-14430674D01*
X13581110Y-14430674D02*
X13600158Y-14421150D01*
X13600158Y-14421150D02*
X13628729Y-14421150D01*
X13628729Y-14421150D02*
X13647777Y-14430674D01*
X13647777Y-14430674D02*
X13657301Y-14449722D01*
X13657301Y-14449722D02*
X13657301Y-14554484D01*
X13657301Y-14449722D02*
X13666824Y-14430674D01*
X13666824Y-14430674D02*
X13685872Y-14421150D01*
X13685872Y-14421150D02*
X13714443Y-14421150D01*
X13714443Y-14421150D02*
X13733491Y-14430674D01*
X13733491Y-14430674D02*
X13743015Y-14449722D01*
X13743015Y-14449722D02*
X13743015Y-14554484D01*
X14133491Y-14344960D02*
X13962063Y-14602103D01*
X14390634Y-14354484D02*
X14409682Y-14354484D01*
X14409682Y-14354484D02*
X14428729Y-14364008D01*
X14428729Y-14364008D02*
X14438253Y-14373531D01*
X14438253Y-14373531D02*
X14447777Y-14392579D01*
X14447777Y-14392579D02*
X14457301Y-14430674D01*
X14457301Y-14430674D02*
X14457301Y-14478293D01*
X14457301Y-14478293D02*
X14447777Y-14516388D01*
X14447777Y-14516388D02*
X14438253Y-14535436D01*
X14438253Y-14535436D02*
X14428729Y-14544960D01*
X14428729Y-14544960D02*
X14409682Y-14554484D01*
X14409682Y-14554484D02*
X14390634Y-14554484D01*
X14390634Y-14554484D02*
X14371586Y-14544960D01*
X14371586Y-14544960D02*
X14362063Y-14535436D01*
X14362063Y-14535436D02*
X14352539Y-14516388D01*
X14352539Y-14516388D02*
X14343015Y-14478293D01*
X14343015Y-14478293D02*
X14343015Y-14430674D01*
X14343015Y-14430674D02*
X14352539Y-14392579D01*
X14352539Y-14392579D02*
X14362063Y-14373531D01*
X14362063Y-14373531D02*
X14371586Y-14364008D01*
X14371586Y-14364008D02*
X14390634Y-14354484D01*
X14543015Y-14535436D02*
X14552539Y-14544960D01*
X14552539Y-14544960D02*
X14543015Y-14554484D01*
X14543015Y-14554484D02*
X14533491Y-14544960D01*
X14533491Y-14544960D02*
X14543015Y-14535436D01*
X14543015Y-14535436D02*
X14543015Y-14554484D01*
X14743015Y-14554484D02*
X14628729Y-14554484D01*
X14685872Y-14554484D02*
X14685872Y-14354484D01*
X14685872Y-14354484D02*
X14666825Y-14383055D01*
X14666825Y-14383055D02*
X14647777Y-14402103D01*
X14647777Y-14402103D02*
X14628729Y-14411627D01*
X14819206Y-14373531D02*
X14828729Y-14364008D01*
X14828729Y-14364008D02*
X14847777Y-14354484D01*
X14847777Y-14354484D02*
X14895396Y-14354484D01*
X14895396Y-14354484D02*
X14914444Y-14364008D01*
X14914444Y-14364008D02*
X14923967Y-14373531D01*
X14923967Y-14373531D02*
X14933491Y-14392579D01*
X14933491Y-14392579D02*
X14933491Y-14411627D01*
X14933491Y-14411627D02*
X14923967Y-14440198D01*
X14923967Y-14440198D02*
X14809682Y-14554484D01*
X14809682Y-14554484D02*
X14933491Y-14554484D01*
X15104920Y-14354484D02*
X15066825Y-14354484D01*
X15066825Y-14354484D02*
X15047777Y-14364008D01*
X15047777Y-14364008D02*
X15038253Y-14373531D01*
X15038253Y-14373531D02*
X15019206Y-14402103D01*
X15019206Y-14402103D02*
X15009682Y-14440198D01*
X15009682Y-14440198D02*
X15009682Y-14516388D01*
X15009682Y-14516388D02*
X15019206Y-14535436D01*
X15019206Y-14535436D02*
X15028729Y-14544960D01*
X15028729Y-14544960D02*
X15047777Y-14554484D01*
X15047777Y-14554484D02*
X15085872Y-14554484D01*
X15085872Y-14554484D02*
X15104920Y-14544960D01*
X15104920Y-14544960D02*
X15114444Y-14535436D01*
X15114444Y-14535436D02*
X15123967Y-14516388D01*
X15123967Y-14516388D02*
X15123967Y-14468769D01*
X15123967Y-14468769D02*
X15114444Y-14449722D01*
X15114444Y-14449722D02*
X15104920Y-14440198D01*
X15104920Y-14440198D02*
X15085872Y-14430674D01*
X15085872Y-14430674D02*
X15047777Y-14430674D01*
X15047777Y-14430674D02*
X15028729Y-14440198D01*
X15028729Y-14440198D02*
X15019206Y-14449722D01*
X15019206Y-14449722D02*
X15009682Y-14468769D01*
X15247777Y-14354484D02*
X15266825Y-14354484D01*
X15266825Y-14354484D02*
X15285872Y-14364008D01*
X15285872Y-14364008D02*
X15295396Y-14373531D01*
X15295396Y-14373531D02*
X15304920Y-14392579D01*
X15304920Y-14392579D02*
X15314444Y-14430674D01*
X15314444Y-14430674D02*
X15314444Y-14478293D01*
X15314444Y-14478293D02*
X15304920Y-14516388D01*
X15304920Y-14516388D02*
X15295396Y-14535436D01*
X15295396Y-14535436D02*
X15285872Y-14544960D01*
X15285872Y-14544960D02*
X15266825Y-14554484D01*
X15266825Y-14554484D02*
X15247777Y-14554484D01*
X15247777Y-14554484D02*
X15228729Y-14544960D01*
X15228729Y-14544960D02*
X15219206Y-14535436D01*
X15219206Y-14535436D02*
X15209682Y-14516388D01*
X15209682Y-14516388D02*
X15200158Y-14478293D01*
X15200158Y-14478293D02*
X15200158Y-14430674D01*
X15200158Y-14430674D02*
X15209682Y-14392579D01*
X15209682Y-14392579D02*
X15219206Y-14373531D01*
X15219206Y-14373531D02*
X15228729Y-14364008D01*
X15228729Y-14364008D02*
X15247777Y-14354484D01*
X15390634Y-14354484D02*
X15390634Y-14392579D01*
X15466825Y-14354484D02*
X15466825Y-14392579D01*
X15762063Y-14630674D02*
X15752539Y-14621150D01*
X15752539Y-14621150D02*
X15733491Y-14592579D01*
X15733491Y-14592579D02*
X15723968Y-14573531D01*
X15723968Y-14573531D02*
X15714444Y-14544960D01*
X15714444Y-14544960D02*
X15704920Y-14497341D01*
X15704920Y-14497341D02*
X15704920Y-14459246D01*
X15704920Y-14459246D02*
X15714444Y-14411627D01*
X15714444Y-14411627D02*
X15723968Y-14383055D01*
X15723968Y-14383055D02*
X15733491Y-14364008D01*
X15733491Y-14364008D02*
X15752539Y-14335436D01*
X15752539Y-14335436D02*
X15762063Y-14325912D01*
X15828729Y-14373531D02*
X15838253Y-14364008D01*
X15838253Y-14364008D02*
X15857301Y-14354484D01*
X15857301Y-14354484D02*
X15904920Y-14354484D01*
X15904920Y-14354484D02*
X15923968Y-14364008D01*
X15923968Y-14364008D02*
X15933491Y-14373531D01*
X15933491Y-14373531D02*
X15943015Y-14392579D01*
X15943015Y-14392579D02*
X15943015Y-14411627D01*
X15943015Y-14411627D02*
X15933491Y-14440198D01*
X15933491Y-14440198D02*
X15819206Y-14554484D01*
X15819206Y-14554484D02*
X15943015Y-14554484D01*
X16181110Y-14554484D02*
X16181110Y-14354484D01*
X16266825Y-14554484D02*
X16266825Y-14449722D01*
X16266825Y-14449722D02*
X16257301Y-14430674D01*
X16257301Y-14430674D02*
X16238253Y-14421150D01*
X16238253Y-14421150D02*
X16209682Y-14421150D01*
X16209682Y-14421150D02*
X16190634Y-14430674D01*
X16190634Y-14430674D02*
X16181110Y-14440198D01*
X16390634Y-14554484D02*
X16371587Y-14544960D01*
X16371587Y-14544960D02*
X16362063Y-14535436D01*
X16362063Y-14535436D02*
X16352539Y-14516388D01*
X16352539Y-14516388D02*
X16352539Y-14459246D01*
X16352539Y-14459246D02*
X16362063Y-14440198D01*
X16362063Y-14440198D02*
X16371587Y-14430674D01*
X16371587Y-14430674D02*
X16390634Y-14421150D01*
X16390634Y-14421150D02*
X16419206Y-14421150D01*
X16419206Y-14421150D02*
X16438253Y-14430674D01*
X16438253Y-14430674D02*
X16447777Y-14440198D01*
X16447777Y-14440198D02*
X16457301Y-14459246D01*
X16457301Y-14459246D02*
X16457301Y-14516388D01*
X16457301Y-14516388D02*
X16447777Y-14535436D01*
X16447777Y-14535436D02*
X16438253Y-14544960D01*
X16438253Y-14544960D02*
X16419206Y-14554484D01*
X16419206Y-14554484D02*
X16390634Y-14554484D01*
X16571587Y-14554484D02*
X16552539Y-14544960D01*
X16552539Y-14544960D02*
X16543015Y-14525912D01*
X16543015Y-14525912D02*
X16543015Y-14354484D01*
X16723968Y-14544960D02*
X16704920Y-14554484D01*
X16704920Y-14554484D02*
X16666825Y-14554484D01*
X16666825Y-14554484D02*
X16647777Y-14544960D01*
X16647777Y-14544960D02*
X16638253Y-14525912D01*
X16638253Y-14525912D02*
X16638253Y-14449722D01*
X16638253Y-14449722D02*
X16647777Y-14430674D01*
X16647777Y-14430674D02*
X16666825Y-14421150D01*
X16666825Y-14421150D02*
X16704920Y-14421150D01*
X16704920Y-14421150D02*
X16723968Y-14430674D01*
X16723968Y-14430674D02*
X16733491Y-14449722D01*
X16733491Y-14449722D02*
X16733491Y-14468769D01*
X16733491Y-14468769D02*
X16638253Y-14487817D01*
X16809682Y-14544960D02*
X16828730Y-14554484D01*
X16828730Y-14554484D02*
X16866825Y-14554484D01*
X16866825Y-14554484D02*
X16885873Y-14544960D01*
X16885873Y-14544960D02*
X16895396Y-14525912D01*
X16895396Y-14525912D02*
X16895396Y-14516388D01*
X16895396Y-14516388D02*
X16885873Y-14497341D01*
X16885873Y-14497341D02*
X16866825Y-14487817D01*
X16866825Y-14487817D02*
X16838253Y-14487817D01*
X16838253Y-14487817D02*
X16819206Y-14478293D01*
X16819206Y-14478293D02*
X16809682Y-14459246D01*
X16809682Y-14459246D02*
X16809682Y-14449722D01*
X16809682Y-14449722D02*
X16819206Y-14430674D01*
X16819206Y-14430674D02*
X16838253Y-14421150D01*
X16838253Y-14421150D02*
X16866825Y-14421150D01*
X16866825Y-14421150D02*
X16885873Y-14430674D01*
X16962063Y-14630674D02*
X16971587Y-14621150D01*
X16971587Y-14621150D02*
X16990634Y-14592579D01*
X16990634Y-14592579D02*
X17000158Y-14573531D01*
X17000158Y-14573531D02*
X17009682Y-14544960D01*
X17009682Y-14544960D02*
X17019206Y-14497341D01*
X17019206Y-14497341D02*
X17019206Y-14459246D01*
X17019206Y-14459246D02*
X17009682Y-14411627D01*
X17009682Y-14411627D02*
X17000158Y-14383055D01*
X17000158Y-14383055D02*
X16990634Y-14364008D01*
X16990634Y-14364008D02*
X16971587Y-14335436D01*
X16971587Y-14335436D02*
X16962063Y-14325912D01*
M02*
