%TF.GenerationSoftware,KiCad,Pcbnew,6.0.7-f9a2dced07~116~ubuntu20.04.1*%
%TF.CreationDate,2023-05-24T09:43:33-07:00*%
%TF.ProjectId,gw-adapters,67772d61-6461-4707-9465-72732e6b6963,rev?*%
%TF.SameCoordinates,Original*%
%TF.FileFunction,Legend,Top*%
%TF.FilePolarity,Positive*%
%FSLAX46Y46*%
G04 Gerber Fmt 4.6, Leading zero omitted, Abs format (unit mm)*
G04 Created by KiCad (PCBNEW 6.0.7-f9a2dced07~116~ubuntu20.04.1) date 2023-05-24 09:43:33*
%MOMM*%
%LPD*%
G01*
G04 APERTURE LIST*
%ADD10C,0.150000*%
%ADD11C,0.254000*%
%ADD12C,0.120000*%
%ADD13C,0.100000*%
%ADD14C,0.200000*%
G04 APERTURE END LIST*
D10*
%TO.C,J1*%
X164791666Y-120332380D02*
X164791666Y-121046666D01*
X164744047Y-121189523D01*
X164648809Y-121284761D01*
X164505952Y-121332380D01*
X164410714Y-121332380D01*
X165791666Y-121332380D02*
X165220238Y-121332380D01*
X165505952Y-121332380D02*
X165505952Y-120332380D01*
X165410714Y-120475238D01*
X165315476Y-120570476D01*
X165220238Y-120618095D01*
D11*
%TO.C,J2*%
X149436666Y-60264523D02*
X149436666Y-61171666D01*
X149376190Y-61353095D01*
X149255238Y-61474047D01*
X149073809Y-61534523D01*
X148952857Y-61534523D01*
X149980952Y-60385476D02*
X150041428Y-60325000D01*
X150162380Y-60264523D01*
X150464761Y-60264523D01*
X150585714Y-60325000D01*
X150646190Y-60385476D01*
X150706666Y-60506428D01*
X150706666Y-60627380D01*
X150646190Y-60808809D01*
X149920476Y-61534523D01*
X150706666Y-61534523D01*
D12*
%TO.C,J1*%
X160965000Y-98150000D02*
X160525000Y-98150000D01*
X158365000Y-119440000D02*
X158365000Y-118110000D01*
X172105000Y-118729525D02*
X163475000Y-118729525D01*
X163475000Y-84730000D02*
X163065000Y-84730000D01*
X172105000Y-117312385D02*
X163475000Y-117312385D01*
X172105000Y-117430480D02*
X163475000Y-117430480D01*
X163475000Y-82190000D02*
X163065000Y-82190000D01*
X172105000Y-119201905D02*
X163475000Y-119201905D01*
X163475000Y-97430000D02*
X163065000Y-97430000D01*
X163475000Y-117750000D02*
X163065000Y-117750000D01*
X172105000Y-99060000D02*
X163475000Y-99060000D01*
X172105000Y-101600000D02*
X163475000Y-101600000D01*
X172105000Y-118257145D02*
X163475000Y-118257145D01*
X160965000Y-115210000D02*
X160525000Y-115210000D01*
X163475000Y-87270000D02*
X163065000Y-87270000D01*
X172105000Y-118020955D02*
X163475000Y-118020955D01*
X160965000Y-97430000D02*
X160525000Y-97430000D01*
X172105000Y-76140000D02*
X163475000Y-76140000D01*
X163475000Y-77830000D02*
X163065000Y-77830000D01*
X163475000Y-110850000D02*
X163065000Y-110850000D01*
X163475000Y-77110000D02*
X163065000Y-77110000D01*
X172105000Y-119083810D02*
X163475000Y-119083810D01*
X172105000Y-109220000D02*
X163475000Y-109220000D01*
X163475000Y-105770000D02*
X163065000Y-105770000D01*
X163475000Y-100690000D02*
X163065000Y-100690000D01*
X163475000Y-99970000D02*
X163065000Y-99970000D01*
X160965000Y-108310000D02*
X160525000Y-108310000D01*
X160965000Y-89810000D02*
X160525000Y-89810000D01*
X163475000Y-89810000D02*
X163065000Y-89810000D01*
X172105000Y-86360000D02*
X163475000Y-86360000D01*
X172105000Y-106680000D02*
X163475000Y-106680000D01*
X163475000Y-79650000D02*
X163065000Y-79650000D01*
X160965000Y-87990000D02*
X160525000Y-87990000D01*
X160965000Y-90530000D02*
X160525000Y-90530000D01*
X172105000Y-119320000D02*
X163475000Y-119320000D01*
X160965000Y-105050000D02*
X160525000Y-105050000D01*
X172105000Y-93980000D02*
X163475000Y-93980000D01*
X160965000Y-115930000D02*
X160525000Y-115930000D01*
X160965000Y-77110000D02*
X160525000Y-77110000D01*
X163475000Y-92350000D02*
X163065000Y-92350000D01*
X172105000Y-114300000D02*
X163475000Y-114300000D01*
X160965000Y-103230000D02*
X160525000Y-103230000D01*
X172105000Y-118493335D02*
X163475000Y-118493335D01*
X160965000Y-87270000D02*
X160525000Y-87270000D01*
X163475000Y-110130000D02*
X163065000Y-110130000D01*
X172105000Y-118611430D02*
X163475000Y-118611430D01*
X160965000Y-118470000D02*
X160585000Y-118470000D01*
X163475000Y-119440000D02*
X163475000Y-76140000D01*
X160965000Y-100690000D02*
X160525000Y-100690000D01*
X163475000Y-102510000D02*
X163065000Y-102510000D01*
X160965000Y-77830000D02*
X160525000Y-77830000D01*
X163475000Y-93070000D02*
X163065000Y-93070000D01*
X160965000Y-110130000D02*
X160525000Y-110130000D01*
X163475000Y-112670000D02*
X163065000Y-112670000D01*
X160965000Y-113390000D02*
X160525000Y-113390000D01*
X160965000Y-79650000D02*
X160525000Y-79650000D01*
X172105000Y-78740000D02*
X163475000Y-78740000D01*
X160965000Y-94890000D02*
X160525000Y-94890000D01*
X163475000Y-85450000D02*
X163065000Y-85450000D01*
X172105000Y-117666670D02*
X163475000Y-117666670D01*
X163475000Y-82910000D02*
X163065000Y-82910000D01*
X160965000Y-107590000D02*
X160525000Y-107590000D01*
X172105000Y-83820000D02*
X163475000Y-83820000D01*
X163475000Y-105050000D02*
X163065000Y-105050000D01*
X172105000Y-117076195D02*
X163475000Y-117076195D01*
X159475000Y-119440000D02*
X158365000Y-119440000D01*
X163475000Y-115210000D02*
X163065000Y-115210000D01*
X163475000Y-87990000D02*
X163065000Y-87990000D01*
X163475000Y-107590000D02*
X163065000Y-107590000D01*
X163475000Y-115930000D02*
X163065000Y-115930000D01*
X160965000Y-93070000D02*
X160525000Y-93070000D01*
X163475000Y-80370000D02*
X163065000Y-80370000D01*
X172105000Y-116958100D02*
X163475000Y-116958100D01*
X172105000Y-116840000D02*
X163475000Y-116840000D01*
X160965000Y-82910000D02*
X160525000Y-82910000D01*
X160965000Y-105770000D02*
X160525000Y-105770000D01*
X172105000Y-118965715D02*
X163475000Y-118965715D01*
X163475000Y-95610000D02*
X163065000Y-95610000D01*
X172105000Y-118139050D02*
X163475000Y-118139050D01*
X163475000Y-113390000D02*
X163065000Y-113390000D01*
X172105000Y-104140000D02*
X163475000Y-104140000D01*
X160965000Y-80370000D02*
X160525000Y-80370000D01*
X172105000Y-119440000D02*
X163475000Y-119440000D01*
X160965000Y-117750000D02*
X160585000Y-117750000D01*
X160965000Y-82190000D02*
X160525000Y-82190000D01*
X160965000Y-84730000D02*
X160525000Y-84730000D01*
X172105000Y-88900000D02*
X163475000Y-88900000D01*
X160965000Y-110850000D02*
X160525000Y-110850000D01*
X163475000Y-118470000D02*
X163065000Y-118470000D01*
X172105000Y-118375240D02*
X163475000Y-118375240D01*
X160965000Y-112670000D02*
X160525000Y-112670000D01*
X172105000Y-117784765D02*
X163475000Y-117784765D01*
X160965000Y-92350000D02*
X160525000Y-92350000D01*
X172105000Y-91440000D02*
X163475000Y-91440000D01*
X163475000Y-98150000D02*
X163065000Y-98150000D01*
X163475000Y-108310000D02*
X163065000Y-108310000D01*
X160965000Y-95610000D02*
X160525000Y-95610000D01*
X172105000Y-117194290D02*
X163475000Y-117194290D01*
X172105000Y-119440000D02*
X172105000Y-76140000D01*
X172105000Y-118847620D02*
X163475000Y-118847620D01*
X172105000Y-96520000D02*
X163475000Y-96520000D01*
X172105000Y-117548575D02*
X163475000Y-117548575D01*
X172105000Y-111760000D02*
X163475000Y-111760000D01*
X172105000Y-81280000D02*
X163475000Y-81280000D01*
X160965000Y-85450000D02*
X160525000Y-85450000D01*
X160965000Y-102510000D02*
X160525000Y-102510000D01*
X163475000Y-90530000D02*
X163065000Y-90530000D01*
X172105000Y-117902860D02*
X163475000Y-117902860D01*
X163475000Y-94890000D02*
X163065000Y-94890000D01*
X163475000Y-103230000D02*
X163065000Y-103230000D01*
X160965000Y-99970000D02*
X160525000Y-99970000D01*
D13*
%TO.C,J2*%
X159360000Y-65285000D02*
X162510000Y-65285000D01*
D14*
X159060000Y-66185000D02*
X159060000Y-66185000D01*
D13*
X162510000Y-65285000D02*
X162510000Y-62685000D01*
X140360000Y-65285000D02*
X137210000Y-65285000D01*
X162510000Y-55085000D02*
X162510000Y-57685000D01*
X137210000Y-65285000D02*
X137210000Y-62685000D01*
D14*
X159060000Y-65985000D02*
X159060000Y-65985000D01*
D13*
X137210000Y-57685000D02*
X137210000Y-55085000D01*
X137210000Y-55085000D02*
X162510000Y-55085000D01*
D14*
X159060000Y-66185000D02*
G75*
G03*
X159060000Y-65985000I0J100000D01*
G01*
X159060000Y-65985000D02*
G75*
G03*
X159060000Y-66185000I0J-100000D01*
G01*
%TD*%
M02*
