M48
; DRILL file {KiCad 7.0.5-0} date 2023 May 28, Sunday 00:51:45
; FORMAT={-:-/ absolute / inch / decimal}
; #@! TF.CreationDate,2023-05-28T00:51:45-07:00
; #@! TF.GenerationSoftware,Kicad,Pcbnew,7.0.5-0
; #@! TF.FileFunction,Plated,1,2,PTH
FMAT,2
INCH
; #@! TA.AperFunction,Plated,PTH,ViaDrill
T1C0.0157
; #@! TA.AperFunction,Plated,PTH,ComponentDrill
T2C0.0394
; #@! TA.AperFunction,Plated,PTH,ComponentDrill
T3C0.0591
; #@! TA.AperFunction,Plated,PTH,ComponentDrill
T4C0.0906
; #@! TA.AperFunction,Plated,PTH,ComponentDrill
T5C0.1260
%
G90
G05
T1
X5.4898Y-3.1402
X5.49Y-3.25
X5.49Y-3.46
X5.49Y-3.57
T2
X4.99Y-3.0838
X4.99Y-3.1928
X4.99Y-3.3019
X4.99Y-3.4109
X4.99Y-3.52
X4.99Y-3.6291
X4.99Y-3.7381
X4.99Y-3.8472
X4.99Y-3.9562
X4.99Y-4.0653
X4.99Y-4.1743
X4.99Y-4.2834
X5.1018Y-3.0293
X5.1018Y-3.1383
X5.1018Y-3.2474
X5.1018Y-3.3564
X5.1018Y-3.4655
X5.1018Y-3.5745
X5.1018Y-3.6836
X5.1018Y-3.7926
X5.1018Y-3.9017
X5.1018Y-4.0107
X5.1018Y-4.1198
X5.1018Y-4.2289
X5.1018Y-4.3379
X6.2785Y-3.05
X6.2785Y-3.15
X6.2785Y-3.25
X6.2785Y-3.35
X6.2785Y-3.45
X6.2785Y-3.55
X6.2785Y-3.65
X6.2785Y-3.75
X6.2785Y-3.85
X6.2785Y-3.95
X6.2785Y-4.05
X6.2785Y-4.15
X6.2785Y-4.25
X6.2785Y-4.35
X6.2785Y-4.45
X6.2785Y-4.55
X6.2785Y-4.65
X6.3785Y-3.05
X6.3785Y-3.15
X6.3785Y-3.25
X6.3785Y-3.35
X6.3785Y-3.45
X6.3785Y-3.55
X6.3785Y-3.65
X6.3785Y-3.75
X6.3785Y-3.85
X6.3785Y-3.95
X6.3785Y-4.05
X6.3785Y-4.15
X6.3785Y-4.25
X6.3785Y-4.35
X6.3785Y-4.45
X6.3785Y-4.55
X6.3785Y-4.65
T3
X5.6Y-2.5841
X5.8Y-2.5841
X6.0Y-2.5841
X6.2Y-2.5841
T4
X5.4335Y-2.3695
X6.3665Y-2.3695
T5
X5.09Y-2.7564
X5.09Y-4.6107
T0
M30
