%TF.GenerationSoftware,KiCad,Pcbnew,6.0.7-f9a2dced07~116~ubuntu20.04.1*%
%TF.CreationDate,2023-05-24T09:43:33-07:00*%
%TF.ProjectId,gw-adapters,67772d61-6461-4707-9465-72732e6b6963,rev?*%
%TF.SameCoordinates,Original*%
%TF.FileFunction,Copper,L1,Top*%
%TF.FilePolarity,Positive*%
%FSLAX46Y46*%
G04 Gerber Fmt 4.6, Leading zero omitted, Abs format (unit mm)*
G04 Created by KiCad (PCBNEW 6.0.7-f9a2dced07~116~ubuntu20.04.1) date 2023-05-24 09:43:33*
%MOMM*%
%LPD*%
G01*
G04 APERTURE LIST*
%TA.AperFunction,ComponentPad*%
%ADD10R,1.700000X1.700000*%
%TD*%
%TA.AperFunction,ComponentPad*%
%ADD11O,1.700000X1.700000*%
%TD*%
%TA.AperFunction,ComponentPad*%
%ADD12C,2.250000*%
%TD*%
%TA.AperFunction,ComponentPad*%
%ADD13C,3.600000*%
%TD*%
%TA.AperFunction,ComponentPad*%
%ADD14C,4.000000*%
%TD*%
%TA.AperFunction,ComponentPad*%
%ADD15R,1.600000X1.600000*%
%TD*%
%TA.AperFunction,ComponentPad*%
%ADD16C,1.600000*%
%TD*%
%TA.AperFunction,Conductor*%
%ADD17C,0.250000*%
%TD*%
G04 APERTURE END LIST*
D10*
%TO.P,J1,1,GND*%
%TO.N,GND*%
X159475000Y-118110000D03*
D11*
%TO.P,J1,2,Density_Select*%
%TO.N,/Density Select*%
X162015000Y-118110000D03*
%TO.P,J1,3,GND_/_Key*%
%TO.N,GND*%
X159475000Y-115570000D03*
%TO.P,J1,4,N/C*%
%TO.N,unconnected-(J1-Pad4)*%
X162015000Y-115570000D03*
%TO.P,J1,5,GND_/_Key*%
%TO.N,GND*%
X159475000Y-113030000D03*
%TO.P,J1,6,N/C*%
%TO.N,unconnected-(J1-Pad6)*%
X162015000Y-113030000D03*
%TO.P,J1,7,GND*%
%TO.N,GND*%
X159475000Y-110490000D03*
%TO.P,J1,8,Index*%
%TO.N,/Index*%
X162015000Y-110490000D03*
%TO.P,J1,9,GND*%
%TO.N,GND*%
X159475000Y-107950000D03*
%TO.P,J1,10,Motor_0*%
%TO.N,/Motor 0*%
X162015000Y-107950000D03*
%TO.P,J1,11,GND*%
%TO.N,GND*%
X159475000Y-105410000D03*
%TO.P,J1,12,Drive_Select_1*%
%TO.N,/Drive Select 1*%
X162015000Y-105410000D03*
%TO.P,J1,13,GND*%
%TO.N,GND*%
X159475000Y-102870000D03*
%TO.P,J1,14,Drive_Select_0*%
%TO.N,/Drive Select 0*%
X162015000Y-102870000D03*
%TO.P,J1,15,GND*%
%TO.N,GND*%
X159475000Y-100330000D03*
%TO.P,J1,16,Motor_1*%
%TO.N,/Motor 1*%
X162015000Y-100330000D03*
%TO.P,J1,17,GND*%
%TO.N,GND*%
X159475000Y-97790000D03*
%TO.P,J1,18,Direction*%
%TO.N,/Direction*%
X162015000Y-97790000D03*
%TO.P,J1,19,GND*%
%TO.N,GND*%
X159475000Y-95250000D03*
%TO.P,J1,20,Step*%
%TO.N,/Step*%
X162015000Y-95250000D03*
%TO.P,J1,21,GND*%
%TO.N,GND*%
X159475000Y-92710000D03*
%TO.P,J1,22,Write_Data*%
%TO.N,/Write Data*%
X162015000Y-92710000D03*
%TO.P,J1,23,GND*%
%TO.N,GND*%
X159475000Y-90170000D03*
%TO.P,J1,24,Write_Gate*%
%TO.N,/Write Gate*%
X162015000Y-90170000D03*
%TO.P,J1,25,GND*%
%TO.N,GND*%
X159475000Y-87630000D03*
%TO.P,J1,26,Track_0*%
%TO.N,/Track 0*%
X162015000Y-87630000D03*
%TO.P,J1,27,GND*%
%TO.N,GND*%
X159475000Y-85090000D03*
%TO.P,J1,28,Write_Protect*%
%TO.N,/Write Protect*%
X162015000Y-85090000D03*
%TO.P,J1,29,GND*%
%TO.N,GND*%
X159475000Y-82550000D03*
%TO.P,J1,30,Read_Data*%
%TO.N,/Read Data*%
X162015000Y-82550000D03*
%TO.P,J1,31,GND*%
%TO.N,GND*%
X159475000Y-80010000D03*
%TO.P,J1,32,Head_Select*%
%TO.N,/Head Select*%
X162015000Y-80010000D03*
%TO.P,J1,33,GND*%
%TO.N,GND*%
X159475000Y-77470000D03*
%TO.P,J1,34,Disk_Change*%
%TO.N,/Disk Change*%
X162015000Y-77470000D03*
%TD*%
D12*
%TO.P,J2,1,Pin_1*%
%TO.N,+12V*%
X157480000Y-65635000D03*
%TO.P,J2,2,Pin_2*%
%TO.N,GND*%
X152400000Y-65635000D03*
%TO.P,J2,3,Pin_3*%
X147320000Y-65635000D03*
%TO.P,J2,4,Pin_4*%
%TO.N,+5V*%
X142240000Y-65635000D03*
D13*
%TO.P,J2,MH1*%
%TO.N,N/C*%
X138010000Y-60185000D03*
%TO.P,J2,MH2*%
X161710000Y-60185000D03*
%TD*%
D14*
%TO.P,J3,0,PAD*%
%TO.N,unconnected-(J3-Pad0)*%
X131780000Y-67780000D03*
X131780000Y-114880000D03*
D15*
%TO.P,J3,1,5V*%
%TO.N,+5V*%
X132080000Y-107950000D03*
D16*
%TO.P,J3,2,Index*%
%TO.N,/Index*%
X132080000Y-105180000D03*
%TO.P,J3,3,Drive_Select_1*%
%TO.N,/Drive Select 1*%
X132080000Y-102410000D03*
%TO.P,J3,4,Motor_1*%
%TO.N,/Motor 1*%
X132080000Y-99640000D03*
%TO.P,J3,5,Direction*%
%TO.N,/Direction*%
X132080000Y-96870000D03*
%TO.P,J3,6,Step*%
%TO.N,/Step*%
X132080000Y-94100000D03*
%TO.P,J3,7,Write_Data*%
%TO.N,/Write Data*%
X132080000Y-91330000D03*
%TO.P,J3,8,Write_Gate*%
%TO.N,/Write Gate*%
X132080000Y-88560000D03*
%TO.P,J3,9,Track_0*%
%TO.N,/Track 0*%
X132080000Y-85790000D03*
%TO.P,J3,10,Write_Protect*%
%TO.N,/Write Protect*%
X132080000Y-83020000D03*
%TO.P,J3,11,Read_Data*%
%TO.N,/Read Data*%
X132080000Y-80250000D03*
%TO.P,J3,12,Head_Select*%
%TO.N,/Head Select*%
X132080000Y-77480000D03*
%TO.P,J3,13,Disk_Change*%
%TO.N,/Disk Change*%
X132080000Y-74710000D03*
%TO.P,J3,14,N/C*%
%TO.N,unconnected-(J3-Pad14)*%
X129240000Y-106565000D03*
%TO.P,J3,15,N/C*%
%TO.N,unconnected-(J3-Pad15)*%
X129240000Y-103795000D03*
%TO.P,J3,16,N/C*%
%TO.N,unconnected-(J3-Pad16)*%
X129240000Y-101025000D03*
%TO.P,J3,17,Density_Select*%
%TO.N,/Density Select*%
X129240000Y-98255000D03*
%TO.P,J3,18,GND*%
%TO.N,GND*%
X129240000Y-95485000D03*
%TO.P,J3,19,GND*%
X129240000Y-92715000D03*
%TO.P,J3,20,GND*%
X129240000Y-89945000D03*
%TO.P,J3,21,GND*%
X129240000Y-87175000D03*
%TO.P,J3,22,GND*%
X129240000Y-84405000D03*
%TO.P,J3,23,GND*%
X129240000Y-81635000D03*
%TO.P,J3,24,N/C*%
%TO.N,unconnected-(J3-Pad24)*%
X129240000Y-78865000D03*
%TO.P,J3,25,12V*%
%TO.N,+12V*%
X129240000Y-76095000D03*
%TD*%
D17*
%TO.N,/Density Select*%
X162015000Y-118110000D02*
X160649511Y-116744511D01*
X160649511Y-116744511D02*
X137829211Y-116744511D01*
X127000000Y-105915300D02*
X127000000Y-100495000D01*
X127000000Y-100495000D02*
X129240000Y-98255000D01*
X137829211Y-116744511D02*
X127000000Y-105915300D01*
%TO.N,/Index*%
X162015000Y-110490000D02*
X160649511Y-109124511D01*
X136024511Y-109124511D02*
X132080000Y-105180000D01*
X160649511Y-109124511D02*
X136024511Y-109124511D01*
%TO.N,/Drive Select 1*%
X133905489Y-104235489D02*
X132080000Y-102410000D01*
X160840489Y-104235489D02*
X133905489Y-104235489D01*
X162015000Y-105410000D02*
X160840489Y-104235489D01*
%TO.N,/Motor 1*%
X160840489Y-99155489D02*
X132564511Y-99155489D01*
X162015000Y-100330000D02*
X160840489Y-99155489D01*
X132564511Y-99155489D02*
X132080000Y-99640000D01*
%TO.N,/Direction*%
X162015000Y-97790000D02*
X160840489Y-96615489D01*
X132334511Y-96615489D02*
X132080000Y-96870000D01*
X160840489Y-96615489D02*
X132334511Y-96615489D01*
%TO.N,/Step*%
X132104511Y-94075489D02*
X132080000Y-94100000D01*
X160840489Y-94075489D02*
X132104511Y-94075489D01*
X162015000Y-95250000D02*
X160840489Y-94075489D01*
%TO.N,/Write Data*%
X160745000Y-91440000D02*
X132190000Y-91440000D01*
X162015000Y-92710000D02*
X160745000Y-91440000D01*
X132190000Y-91440000D02*
X132080000Y-91330000D01*
%TO.N,/Write Gate*%
X160840489Y-88995489D02*
X132515489Y-88995489D01*
X162015000Y-90170000D02*
X160840489Y-88995489D01*
X132515489Y-88995489D02*
X132080000Y-88560000D01*
%TO.N,/Track 0*%
X160840489Y-86455489D02*
X132745489Y-86455489D01*
X162015000Y-87630000D02*
X160840489Y-86455489D01*
X132745489Y-86455489D02*
X132080000Y-85790000D01*
%TO.N,/Write Protect*%
X132975489Y-83915489D02*
X132080000Y-83020000D01*
X162015000Y-85090000D02*
X160840489Y-83915489D01*
X160840489Y-83915489D02*
X132975489Y-83915489D01*
%TO.N,/Read Data*%
X133205489Y-81375489D02*
X132080000Y-80250000D01*
X160840489Y-81375489D02*
X133205489Y-81375489D01*
X162015000Y-82550000D02*
X160840489Y-81375489D01*
%TO.N,/Head Select*%
X160840489Y-78835489D02*
X133435489Y-78835489D01*
X162015000Y-80010000D02*
X160840489Y-78835489D01*
X133435489Y-78835489D02*
X132080000Y-77480000D01*
%TO.N,/Disk Change*%
X133570000Y-76200000D02*
X161290000Y-76200000D01*
X161290000Y-76200000D02*
X162015000Y-76925000D01*
X162015000Y-76925000D02*
X162015000Y-77470000D01*
X132080000Y-74710000D02*
X133570000Y-76200000D01*
%TD*%
M02*
