%TF.GenerationSoftware,KiCad,Pcbnew,7.0.5-0*%
%TF.CreationDate,2023-05-28T00:51:44-07:00*%
%TF.ProjectId,gw-adapters,67772d61-6461-4707-9465-72732e6b6963,rev?*%
%TF.SameCoordinates,Original*%
%TF.FileFunction,Drillmap*%
%TF.FilePolarity,Positive*%
%FSLAX45Y45*%
G04 Gerber Fmt 4.5, Leading zero omitted, Abs format (unit mm)*
G04 Created by KiCad (PCBNEW 7.0.5-0) date 2023-05-28 00:51:44*
%MOMM*%
%LPD*%
G01*
G04 APERTURE LIST*
%ADD10C,0.100000*%
%ADD11C,0.200000*%
G04 APERTURE END LIST*
D10*
X12192000Y-5588000D02*
X16383000Y-5588000D01*
X16383000Y-12700000D01*
X12192000Y-12700000D01*
X12192000Y-5588000D01*
D11*
X12447777Y-13016484D02*
X12447777Y-12816484D01*
X12447777Y-12816484D02*
X12495396Y-12816484D01*
X12495396Y-12816484D02*
X12523967Y-12826008D01*
X12523967Y-12826008D02*
X12543015Y-12845055D01*
X12543015Y-12845055D02*
X12552539Y-12864103D01*
X12552539Y-12864103D02*
X12562062Y-12902198D01*
X12562062Y-12902198D02*
X12562062Y-12930769D01*
X12562062Y-12930769D02*
X12552539Y-12968865D01*
X12552539Y-12968865D02*
X12543015Y-12987912D01*
X12543015Y-12987912D02*
X12523967Y-13006960D01*
X12523967Y-13006960D02*
X12495396Y-13016484D01*
X12495396Y-13016484D02*
X12447777Y-13016484D01*
X12647777Y-13016484D02*
X12647777Y-12883150D01*
X12647777Y-12921246D02*
X12657301Y-12902198D01*
X12657301Y-12902198D02*
X12666824Y-12892674D01*
X12666824Y-12892674D02*
X12685872Y-12883150D01*
X12685872Y-12883150D02*
X12704920Y-12883150D01*
X12771586Y-13016484D02*
X12771586Y-12883150D01*
X12771586Y-12816484D02*
X12762062Y-12826008D01*
X12762062Y-12826008D02*
X12771586Y-12835531D01*
X12771586Y-12835531D02*
X12781110Y-12826008D01*
X12781110Y-12826008D02*
X12771586Y-12816484D01*
X12771586Y-12816484D02*
X12771586Y-12835531D01*
X12895396Y-13016484D02*
X12876348Y-13006960D01*
X12876348Y-13006960D02*
X12866824Y-12987912D01*
X12866824Y-12987912D02*
X12866824Y-12816484D01*
X13000158Y-13016484D02*
X12981110Y-13006960D01*
X12981110Y-13006960D02*
X12971586Y-12987912D01*
X12971586Y-12987912D02*
X12971586Y-12816484D01*
X13228729Y-13016484D02*
X13228729Y-12816484D01*
X13228729Y-12816484D02*
X13295396Y-12959341D01*
X13295396Y-12959341D02*
X13362062Y-12816484D01*
X13362062Y-12816484D02*
X13362062Y-13016484D01*
X13543015Y-13016484D02*
X13543015Y-12911722D01*
X13543015Y-12911722D02*
X13533491Y-12892674D01*
X13533491Y-12892674D02*
X13514443Y-12883150D01*
X13514443Y-12883150D02*
X13476348Y-12883150D01*
X13476348Y-12883150D02*
X13457301Y-12892674D01*
X13543015Y-13006960D02*
X13523967Y-13016484D01*
X13523967Y-13016484D02*
X13476348Y-13016484D01*
X13476348Y-13016484D02*
X13457301Y-13006960D01*
X13457301Y-13006960D02*
X13447777Y-12987912D01*
X13447777Y-12987912D02*
X13447777Y-12968865D01*
X13447777Y-12968865D02*
X13457301Y-12949817D01*
X13457301Y-12949817D02*
X13476348Y-12940293D01*
X13476348Y-12940293D02*
X13523967Y-12940293D01*
X13523967Y-12940293D02*
X13543015Y-12930769D01*
X13638253Y-12883150D02*
X13638253Y-13083150D01*
X13638253Y-12892674D02*
X13657301Y-12883150D01*
X13657301Y-12883150D02*
X13695396Y-12883150D01*
X13695396Y-12883150D02*
X13714443Y-12892674D01*
X13714443Y-12892674D02*
X13723967Y-12902198D01*
X13723967Y-12902198D02*
X13733491Y-12921246D01*
X13733491Y-12921246D02*
X13733491Y-12978388D01*
X13733491Y-12978388D02*
X13723967Y-12997436D01*
X13723967Y-12997436D02*
X13714443Y-13006960D01*
X13714443Y-13006960D02*
X13695396Y-13016484D01*
X13695396Y-13016484D02*
X13657301Y-13016484D01*
X13657301Y-13016484D02*
X13638253Y-13006960D01*
X13819205Y-12997436D02*
X13828729Y-13006960D01*
X13828729Y-13006960D02*
X13819205Y-13016484D01*
X13819205Y-13016484D02*
X13809682Y-13006960D01*
X13809682Y-13006960D02*
X13819205Y-12997436D01*
X13819205Y-12997436D02*
X13819205Y-13016484D01*
X13819205Y-12892674D02*
X13828729Y-12902198D01*
X13828729Y-12902198D02*
X13819205Y-12911722D01*
X13819205Y-12911722D02*
X13809682Y-12902198D01*
X13809682Y-12902198D02*
X13819205Y-12892674D01*
X13819205Y-12892674D02*
X13819205Y-12911722D01*
M02*
