%TF.GenerationSoftware,KiCad,Pcbnew,6.0.7-f9a2dced07~116~ubuntu20.04.1*%
%TF.CreationDate,2023-05-24T09:43:33-07:00*%
%TF.ProjectId,gw-adapters,67772d61-6461-4707-9465-72732e6b6963,rev?*%
%TF.SameCoordinates,Original*%
%TF.FileFunction,Soldermask,Top*%
%TF.FilePolarity,Negative*%
%FSLAX46Y46*%
G04 Gerber Fmt 4.6, Leading zero omitted, Abs format (unit mm)*
G04 Created by KiCad (PCBNEW 6.0.7-f9a2dced07~116~ubuntu20.04.1) date 2023-05-24 09:43:33*
%MOMM*%
%LPD*%
G01*
G04 APERTURE LIST*
%ADD10R,1.700000X1.700000*%
%ADD11O,1.700000X1.700000*%
%ADD12C,2.250000*%
%ADD13C,3.600000*%
%ADD14C,4.000000*%
%ADD15R,1.600000X1.600000*%
%ADD16C,1.600000*%
G04 APERTURE END LIST*
D10*
%TO.C,J1*%
X159475000Y-118110000D03*
D11*
X162015000Y-118110000D03*
X159475000Y-115570000D03*
X162015000Y-115570000D03*
X159475000Y-113030000D03*
X162015000Y-113030000D03*
X159475000Y-110490000D03*
X162015000Y-110490000D03*
X159475000Y-107950000D03*
X162015000Y-107950000D03*
X159475000Y-105410000D03*
X162015000Y-105410000D03*
X159475000Y-102870000D03*
X162015000Y-102870000D03*
X159475000Y-100330000D03*
X162015000Y-100330000D03*
X159475000Y-97790000D03*
X162015000Y-97790000D03*
X159475000Y-95250000D03*
X162015000Y-95250000D03*
X159475000Y-92710000D03*
X162015000Y-92710000D03*
X159475000Y-90170000D03*
X162015000Y-90170000D03*
X159475000Y-87630000D03*
X162015000Y-87630000D03*
X159475000Y-85090000D03*
X162015000Y-85090000D03*
X159475000Y-82550000D03*
X162015000Y-82550000D03*
X159475000Y-80010000D03*
X162015000Y-80010000D03*
X159475000Y-77470000D03*
X162015000Y-77470000D03*
%TD*%
D12*
%TO.C,J2*%
X157480000Y-65635000D03*
X152400000Y-65635000D03*
X147320000Y-65635000D03*
X142240000Y-65635000D03*
D13*
X138010000Y-60185000D03*
X161710000Y-60185000D03*
%TD*%
D14*
%TO.C,J3*%
X131780000Y-67780000D03*
X131780000Y-114880000D03*
D15*
X132080000Y-107950000D03*
D16*
X132080000Y-105180000D03*
X132080000Y-102410000D03*
X132080000Y-99640000D03*
X132080000Y-96870000D03*
X132080000Y-94100000D03*
X132080000Y-91330000D03*
X132080000Y-88560000D03*
X132080000Y-85790000D03*
X132080000Y-83020000D03*
X132080000Y-80250000D03*
X132080000Y-77480000D03*
X132080000Y-74710000D03*
X129240000Y-106565000D03*
X129240000Y-103795000D03*
X129240000Y-101025000D03*
X129240000Y-98255000D03*
X129240000Y-95485000D03*
X129240000Y-92715000D03*
X129240000Y-89945000D03*
X129240000Y-87175000D03*
X129240000Y-84405000D03*
X129240000Y-81635000D03*
X129240000Y-78865000D03*
X129240000Y-76095000D03*
%TD*%
M02*
