M48
; DRILL file {KiCad 6.0.7-f9a2dced07~116~ubuntu20.04.1} date Wed 24 May 2023 09:43:38 AM MST
; FORMAT={-:-/ absolute / inch / decimal}
; #@! TF.CreationDate,2023-05-24T09:43:38-07:00
; #@! TF.GenerationSoftware,Kicad,Pcbnew,6.0.7-f9a2dced07~116~ubuntu20.04.1
; #@! TF.FileFunction,Plated,1,2,PTH
FMAT,2
INCH
; #@! TA.AperFunction,Plated,PTH,ComponentDrill
T1C0.0394
; #@! TA.AperFunction,Plated,PTH,ComponentDrill
T2C0.0591
; #@! TA.AperFunction,Plated,PTH,ComponentDrill
T3C0.0906
; #@! TA.AperFunction,Plated,PTH,ComponentDrill
T4C0.1260
%
G90
G05
T1
X5.0882Y-2.9959
X5.0882Y-3.1049
X5.0882Y-3.214
X5.0882Y-3.323
X5.0882Y-3.4321
X5.0882Y-3.5411
X5.0882Y-3.6502
X5.0882Y-3.7593
X5.0882Y-3.8683
X5.0882Y-3.9774
X5.0882Y-4.0864
X5.0882Y-4.1955
X5.2Y-2.9413
X5.2Y-3.0504
X5.2Y-3.1594
X5.2Y-3.2685
X5.2Y-3.3776
X5.2Y-3.4866
X5.2Y-3.5957
X5.2Y-3.7047
X5.2Y-3.8138
X5.2Y-3.9228
X5.2Y-4.0319
X5.2Y-4.1409
X5.2Y-4.25
X6.2785Y-3.05
X6.2785Y-3.15
X6.2785Y-3.25
X6.2785Y-3.35
X6.2785Y-3.45
X6.2785Y-3.55
X6.2785Y-3.65
X6.2785Y-3.75
X6.2785Y-3.85
X6.2785Y-3.95
X6.2785Y-4.05
X6.2785Y-4.15
X6.2785Y-4.25
X6.2785Y-4.35
X6.2785Y-4.45
X6.2785Y-4.55
X6.2785Y-4.65
X6.3785Y-3.05
X6.3785Y-3.15
X6.3785Y-3.25
X6.3785Y-3.35
X6.3785Y-3.45
X6.3785Y-3.55
X6.3785Y-3.65
X6.3785Y-3.75
X6.3785Y-3.85
X6.3785Y-3.95
X6.3785Y-4.05
X6.3785Y-4.15
X6.3785Y-4.25
X6.3785Y-4.35
X6.3785Y-4.45
X6.3785Y-4.55
X6.3785Y-4.65
T2
X5.6Y-2.5841
X5.8Y-2.5841
X6.0Y-2.5841
X6.2Y-2.5841
T3
X5.4335Y-2.3695
X6.3665Y-2.3695
T4
X5.1882Y-2.6685
X5.1882Y-4.5228
T0
M30
