%TF.GenerationSoftware,KiCad,Pcbnew,7.0.5-0*%
%TF.CreationDate,2023-05-28T00:51:51-07:00*%
%TF.ProjectId,gw-adapters,67772d61-6461-4707-9465-72732e6b6963,rev?*%
%TF.SameCoordinates,Original*%
%TF.FileFunction,Copper,L2,Bot*%
%TF.FilePolarity,Positive*%
%FSLAX46Y46*%
G04 Gerber Fmt 4.6, Leading zero omitted, Abs format (unit mm)*
G04 Created by KiCad (PCBNEW 7.0.5-0) date 2023-05-28 00:51:51*
%MOMM*%
%LPD*%
G01*
G04 APERTURE LIST*
%TA.AperFunction,ComponentPad*%
%ADD10C,4.000000*%
%TD*%
%TA.AperFunction,ComponentPad*%
%ADD11R,1.600000X1.600000*%
%TD*%
%TA.AperFunction,ComponentPad*%
%ADD12C,1.600000*%
%TD*%
%TA.AperFunction,ComponentPad*%
%ADD13R,1.700000X1.700000*%
%TD*%
%TA.AperFunction,ComponentPad*%
%ADD14O,1.700000X1.700000*%
%TD*%
%TA.AperFunction,ComponentPad*%
%ADD15C,2.250000*%
%TD*%
%TA.AperFunction,ComponentPad*%
%ADD16C,3.600000*%
%TD*%
%TA.AperFunction,ViaPad*%
%ADD17C,0.800000*%
%TD*%
%TA.AperFunction,Conductor*%
%ADD18C,0.750000*%
%TD*%
%TA.AperFunction,Conductor*%
%ADD19C,0.250000*%
%TD*%
G04 APERTURE END LIST*
D10*
%TO.P,J3,0,PAD*%
%TO.N,unconnected-(J3-Pad0)*%
X129286000Y-117113000D03*
X129286000Y-70013000D03*
D11*
%TO.P,J3,1,5V*%
%TO.N,+5V*%
X129586000Y-76943000D03*
D12*
%TO.P,J3,2,Index*%
%TO.N,/Index*%
X129586000Y-79713000D03*
%TO.P,J3,3,Drive_Select_1*%
%TO.N,/Drive Select 1*%
X129586000Y-82483000D03*
%TO.P,J3,4,Motor_1*%
%TO.N,/Motor 1*%
X129586000Y-85253000D03*
%TO.P,J3,5,Direction*%
%TO.N,/Direction*%
X129586000Y-88023000D03*
%TO.P,J3,6,Step*%
%TO.N,/Step*%
X129586000Y-90793000D03*
%TO.P,J3,7,Write_Data*%
%TO.N,/Write Data*%
X129586000Y-93563000D03*
%TO.P,J3,8,Write_Gate*%
%TO.N,/Write Gate*%
X129586000Y-96333000D03*
%TO.P,J3,9,Track_0*%
%TO.N,/Track 0*%
X129586000Y-99103000D03*
%TO.P,J3,10,Write_Protect*%
%TO.N,/Write Protect*%
X129586000Y-101873000D03*
%TO.P,J3,11,Read_Data*%
%TO.N,/Read Data*%
X129586000Y-104643000D03*
%TO.P,J3,12,Head_Select*%
%TO.N,/Head Select*%
X129586000Y-107413000D03*
%TO.P,J3,13,Disk_Change*%
%TO.N,/Disk Change*%
X129586000Y-110183000D03*
%TO.P,J3,14,N/C*%
%TO.N,unconnected-(J3-Pad14)*%
X126746000Y-78328000D03*
%TO.P,J3,15,N/C*%
%TO.N,unconnected-(J3-Pad15)*%
X126746000Y-81098000D03*
%TO.P,J3,16,N/C*%
%TO.N,unconnected-(J3-Pad16)*%
X126746000Y-83868000D03*
%TO.P,J3,17,Density_Select*%
%TO.N,/Density Select*%
X126746000Y-86638000D03*
%TO.P,J3,18,GND*%
%TO.N,GND*%
X126746000Y-89408000D03*
%TO.P,J3,19,GND*%
X126746000Y-92178000D03*
%TO.P,J3,20,GND*%
X126746000Y-94948000D03*
%TO.P,J3,21,GND*%
X126746000Y-97718000D03*
%TO.P,J3,22,GND*%
X126746000Y-100488000D03*
%TO.P,J3,23,GND*%
X126746000Y-103258000D03*
%TO.P,J3,24,N/C*%
%TO.N,unconnected-(J3-Pad24)*%
X126746000Y-106028000D03*
%TO.P,J3,25,12V*%
%TO.N,+12V*%
X126746000Y-108798000D03*
%TD*%
D13*
%TO.P,J1,1,GND*%
%TO.N,GND*%
X159475000Y-118110000D03*
D14*
%TO.P,J1,2,Density_Select*%
%TO.N,/Density Select*%
X162015000Y-118110000D03*
%TO.P,J1,3,GND_/_Key*%
%TO.N,GND*%
X159475000Y-115570000D03*
%TO.P,J1,4,N/C*%
%TO.N,unconnected-(J1-Pad4)*%
X162015000Y-115570000D03*
%TO.P,J1,5,GND_/_Key*%
%TO.N,GND*%
X159475000Y-113030000D03*
%TO.P,J1,6,N/C*%
%TO.N,unconnected-(J1-Pad6)*%
X162015000Y-113030000D03*
%TO.P,J1,7,GND*%
%TO.N,GND*%
X159475000Y-110490000D03*
%TO.P,J1,8,Index*%
%TO.N,/Index*%
X162015000Y-110490000D03*
%TO.P,J1,9,GND*%
%TO.N,GND*%
X159475000Y-107950000D03*
%TO.P,J1,10,Motor_0*%
%TO.N,/Motor 0*%
X162015000Y-107950000D03*
%TO.P,J1,11,GND*%
%TO.N,GND*%
X159475000Y-105410000D03*
%TO.P,J1,12,Drive_Select_1*%
%TO.N,/Drive Select 1*%
X162015000Y-105410000D03*
%TO.P,J1,13,GND*%
%TO.N,GND*%
X159475000Y-102870000D03*
%TO.P,J1,14,Drive_Select_0*%
%TO.N,/Drive Select 0*%
X162015000Y-102870000D03*
%TO.P,J1,15,GND*%
%TO.N,GND*%
X159475000Y-100330000D03*
%TO.P,J1,16,Motor_1*%
%TO.N,/Motor 1*%
X162015000Y-100330000D03*
%TO.P,J1,17,GND*%
%TO.N,GND*%
X159475000Y-97790000D03*
%TO.P,J1,18,Direction*%
%TO.N,/Direction*%
X162015000Y-97790000D03*
%TO.P,J1,19,GND*%
%TO.N,GND*%
X159475000Y-95250000D03*
%TO.P,J1,20,Step*%
%TO.N,/Step*%
X162015000Y-95250000D03*
%TO.P,J1,21,GND*%
%TO.N,GND*%
X159475000Y-92710000D03*
%TO.P,J1,22,Write_Data*%
%TO.N,/Write Data*%
X162015000Y-92710000D03*
%TO.P,J1,23,GND*%
%TO.N,GND*%
X159475000Y-90170000D03*
%TO.P,J1,24,Write_Gate*%
%TO.N,/Write Gate*%
X162015000Y-90170000D03*
%TO.P,J1,25,GND*%
%TO.N,GND*%
X159475000Y-87630000D03*
%TO.P,J1,26,Track_0*%
%TO.N,/Track 0*%
X162015000Y-87630000D03*
%TO.P,J1,27,GND*%
%TO.N,GND*%
X159475000Y-85090000D03*
%TO.P,J1,28,Write_Protect*%
%TO.N,/Write Protect*%
X162015000Y-85090000D03*
%TO.P,J1,29,GND*%
%TO.N,GND*%
X159475000Y-82550000D03*
%TO.P,J1,30,Read_Data*%
%TO.N,/Read Data*%
X162015000Y-82550000D03*
%TO.P,J1,31,GND*%
%TO.N,GND*%
X159475000Y-80010000D03*
%TO.P,J1,32,Head_Select*%
%TO.N,/Head Select*%
X162015000Y-80010000D03*
%TO.P,J1,33,GND*%
%TO.N,GND*%
X159475000Y-77470000D03*
%TO.P,J1,34,Disk_Change*%
%TO.N,/Disk Change*%
X162015000Y-77470000D03*
%TD*%
D15*
%TO.P,J2,1,Pin_1*%
%TO.N,+12V*%
X157480000Y-65635000D03*
%TO.P,J2,2,Pin_2*%
%TO.N,GND*%
X152400000Y-65635000D03*
%TO.P,J2,3,Pin_3*%
X147320000Y-65635000D03*
%TO.P,J2,4,Pin_4*%
%TO.N,+5V*%
X142240000Y-65635000D03*
D16*
%TO.P,J2,MH1*%
%TO.N,N/C*%
X138010000Y-60185000D03*
%TO.P,J2,MH2*%
X161710000Y-60185000D03*
%TD*%
D17*
%TO.N,/Index*%
X139446000Y-90678000D03*
%TO.N,/Drive Select 1*%
X139446000Y-87884000D03*
X139446000Y-82550000D03*
%TO.N,/Index*%
X139441701Y-79760299D03*
%TD*%
D18*
%TO.N,+12V*%
X153773000Y-69342000D02*
X145034000Y-69342000D01*
X145034000Y-69342000D02*
X134620000Y-79756000D01*
X134620000Y-79756000D02*
X134620000Y-110236000D01*
X157480000Y-65635000D02*
X153773000Y-69342000D01*
X134620000Y-110236000D02*
X132842000Y-112014000D01*
X132842000Y-112014000D02*
X128016000Y-112014000D01*
X128016000Y-112014000D02*
X126746000Y-110744000D01*
X126746000Y-110744000D02*
X126746000Y-108798000D01*
D19*
%TO.N,/Index*%
X139441701Y-79760299D02*
X136906000Y-82296000D01*
X136906000Y-82296000D02*
X136906000Y-88138000D01*
X136906000Y-88138000D02*
X139446000Y-90678000D01*
%TO.N,/Drive Select 1*%
X139446000Y-82550000D02*
X139446000Y-87884000D01*
%TO.N,/Density Select*%
X126746000Y-86638000D02*
X126746000Y-87293991D01*
D18*
%TO.N,+5V*%
X129586000Y-76943000D02*
X130932000Y-76943000D01*
X130932000Y-76943000D02*
X142240000Y-65635000D01*
%TD*%
%TA.AperFunction,Conductor*%
%TO.N,GND*%
G36*
X159725000Y-117674498D02*
G01*
X159617315Y-117625320D01*
X159510763Y-117610000D01*
X159439237Y-117610000D01*
X159332685Y-117625320D01*
X159225000Y-117674498D01*
X159225000Y-116005501D01*
X159332685Y-116054680D01*
X159439237Y-116070000D01*
X159510763Y-116070000D01*
X159617315Y-116054680D01*
X159725000Y-116005501D01*
X159725000Y-117674498D01*
G37*
%TD.AperFunction*%
%TA.AperFunction,Conductor*%
G36*
X159725000Y-115134498D02*
G01*
X159617315Y-115085320D01*
X159510763Y-115070000D01*
X159439237Y-115070000D01*
X159332685Y-115085320D01*
X159225000Y-115134498D01*
X159225000Y-113465501D01*
X159332685Y-113514680D01*
X159439237Y-113530000D01*
X159510763Y-113530000D01*
X159617315Y-113514680D01*
X159725000Y-113465501D01*
X159725000Y-115134498D01*
G37*
%TD.AperFunction*%
%TA.AperFunction,Conductor*%
G36*
X159725000Y-112594498D02*
G01*
X159617315Y-112545320D01*
X159510763Y-112530000D01*
X159439237Y-112530000D01*
X159332685Y-112545320D01*
X159225000Y-112594498D01*
X159225000Y-110925501D01*
X159332685Y-110974680D01*
X159439237Y-110990000D01*
X159510763Y-110990000D01*
X159617315Y-110974680D01*
X159725000Y-110925501D01*
X159725000Y-112594498D01*
G37*
%TD.AperFunction*%
%TA.AperFunction,Conductor*%
G36*
X159725000Y-110054498D02*
G01*
X159617315Y-110005320D01*
X159510763Y-109990000D01*
X159439237Y-109990000D01*
X159332685Y-110005320D01*
X159225000Y-110054498D01*
X159225000Y-108385501D01*
X159332685Y-108434680D01*
X159439237Y-108450000D01*
X159510763Y-108450000D01*
X159617315Y-108434680D01*
X159725000Y-108385501D01*
X159725000Y-110054498D01*
G37*
%TD.AperFunction*%
%TA.AperFunction,Conductor*%
G36*
X159725000Y-107514498D02*
G01*
X159617315Y-107465320D01*
X159510763Y-107450000D01*
X159439237Y-107450000D01*
X159332685Y-107465320D01*
X159225000Y-107514498D01*
X159225000Y-105845501D01*
X159332685Y-105894680D01*
X159439237Y-105910000D01*
X159510763Y-105910000D01*
X159617315Y-105894680D01*
X159725000Y-105845501D01*
X159725000Y-107514498D01*
G37*
%TD.AperFunction*%
%TA.AperFunction,Conductor*%
G36*
X159725000Y-104974498D02*
G01*
X159617315Y-104925320D01*
X159510763Y-104910000D01*
X159439237Y-104910000D01*
X159332685Y-104925320D01*
X159225000Y-104974498D01*
X159225000Y-103305501D01*
X159332685Y-103354680D01*
X159439237Y-103370000D01*
X159510763Y-103370000D01*
X159617315Y-103354680D01*
X159725000Y-103305501D01*
X159725000Y-104974498D01*
G37*
%TD.AperFunction*%
%TA.AperFunction,Conductor*%
G36*
X159725000Y-102434498D02*
G01*
X159617315Y-102385320D01*
X159510763Y-102370000D01*
X159439237Y-102370000D01*
X159332685Y-102385320D01*
X159225000Y-102434498D01*
X159225000Y-100765501D01*
X159332685Y-100814680D01*
X159439237Y-100830000D01*
X159510763Y-100830000D01*
X159617315Y-100814680D01*
X159725000Y-100765501D01*
X159725000Y-102434498D01*
G37*
%TD.AperFunction*%
%TA.AperFunction,Conductor*%
G36*
X159725000Y-99894498D02*
G01*
X159617315Y-99845320D01*
X159510763Y-99830000D01*
X159439237Y-99830000D01*
X159332685Y-99845320D01*
X159225000Y-99894498D01*
X159225000Y-98225501D01*
X159332685Y-98274680D01*
X159439237Y-98290000D01*
X159510763Y-98290000D01*
X159617315Y-98274680D01*
X159725000Y-98225501D01*
X159725000Y-99894498D01*
G37*
%TD.AperFunction*%
%TA.AperFunction,Conductor*%
G36*
X159725000Y-97354498D02*
G01*
X159617315Y-97305320D01*
X159510763Y-97290000D01*
X159439237Y-97290000D01*
X159332685Y-97305320D01*
X159225000Y-97354498D01*
X159225000Y-95685501D01*
X159332685Y-95734680D01*
X159439237Y-95750000D01*
X159510763Y-95750000D01*
X159617315Y-95734680D01*
X159725000Y-95685501D01*
X159725000Y-97354498D01*
G37*
%TD.AperFunction*%
%TA.AperFunction,Conductor*%
G36*
X159725000Y-94814498D02*
G01*
X159617315Y-94765320D01*
X159510763Y-94750000D01*
X159439237Y-94750000D01*
X159332685Y-94765320D01*
X159225000Y-94814498D01*
X159225000Y-93145501D01*
X159332685Y-93194680D01*
X159439237Y-93210000D01*
X159510763Y-93210000D01*
X159617315Y-93194680D01*
X159725000Y-93145501D01*
X159725000Y-94814498D01*
G37*
%TD.AperFunction*%
%TA.AperFunction,Conductor*%
G36*
X159725000Y-92274498D02*
G01*
X159617315Y-92225320D01*
X159510763Y-92210000D01*
X159439237Y-92210000D01*
X159332685Y-92225320D01*
X159225000Y-92274498D01*
X159225000Y-90605501D01*
X159332685Y-90654680D01*
X159439237Y-90670000D01*
X159510763Y-90670000D01*
X159617315Y-90654680D01*
X159725000Y-90605501D01*
X159725000Y-92274498D01*
G37*
%TD.AperFunction*%
%TA.AperFunction,Conductor*%
G36*
X159725000Y-89734498D02*
G01*
X159617315Y-89685320D01*
X159510763Y-89670000D01*
X159439237Y-89670000D01*
X159332685Y-89685320D01*
X159225000Y-89734498D01*
X159225000Y-88065501D01*
X159332685Y-88114680D01*
X159439237Y-88130000D01*
X159510763Y-88130000D01*
X159617315Y-88114680D01*
X159725000Y-88065501D01*
X159725000Y-89734498D01*
G37*
%TD.AperFunction*%
%TA.AperFunction,Conductor*%
G36*
X159725000Y-87194498D02*
G01*
X159617315Y-87145320D01*
X159510763Y-87130000D01*
X159439237Y-87130000D01*
X159332685Y-87145320D01*
X159225000Y-87194498D01*
X159225000Y-85525501D01*
X159332685Y-85574680D01*
X159439237Y-85590000D01*
X159510763Y-85590000D01*
X159617315Y-85574680D01*
X159725000Y-85525501D01*
X159725000Y-87194498D01*
G37*
%TD.AperFunction*%
%TA.AperFunction,Conductor*%
G36*
X159725000Y-84654498D02*
G01*
X159617315Y-84605320D01*
X159510763Y-84590000D01*
X159439237Y-84590000D01*
X159332685Y-84605320D01*
X159225000Y-84654498D01*
X159225000Y-82985501D01*
X159332685Y-83034680D01*
X159439237Y-83050000D01*
X159510763Y-83050000D01*
X159617315Y-83034680D01*
X159725000Y-82985501D01*
X159725000Y-84654498D01*
G37*
%TD.AperFunction*%
%TA.AperFunction,Conductor*%
G36*
X159725000Y-82114498D02*
G01*
X159617315Y-82065320D01*
X159510763Y-82050000D01*
X159439237Y-82050000D01*
X159332685Y-82065320D01*
X159225000Y-82114498D01*
X159225000Y-80445501D01*
X159332685Y-80494680D01*
X159439237Y-80510000D01*
X159510763Y-80510000D01*
X159617315Y-80494680D01*
X159725000Y-80445501D01*
X159725000Y-82114498D01*
G37*
%TD.AperFunction*%
%TA.AperFunction,Conductor*%
G36*
X159725000Y-79574498D02*
G01*
X159617315Y-79525320D01*
X159510763Y-79510000D01*
X159439237Y-79510000D01*
X159332685Y-79525320D01*
X159225000Y-79574498D01*
X159225000Y-77905501D01*
X159332685Y-77954680D01*
X159439237Y-77970000D01*
X159510763Y-77970000D01*
X159617315Y-77954680D01*
X159725000Y-77905501D01*
X159725000Y-79574498D01*
G37*
%TD.AperFunction*%
%TA.AperFunction,Conductor*%
G36*
X163772539Y-55900185D02*
G01*
X163818294Y-55952989D01*
X163829500Y-56004500D01*
X163829500Y-58793092D01*
X163809815Y-58860131D01*
X163757011Y-58905886D01*
X163687853Y-58915830D01*
X163624297Y-58886805D01*
X163602398Y-58861983D01*
X163545385Y-58776657D01*
X163345858Y-58549141D01*
X163118339Y-58349612D01*
X162866729Y-58181492D01*
X162866722Y-58181488D01*
X162595322Y-58047648D01*
X162595312Y-58047644D01*
X162308779Y-57950380D01*
X162308773Y-57950378D01*
X162308766Y-57950376D01*
X162011966Y-57891339D01*
X161710000Y-57871547D01*
X161408034Y-57891339D01*
X161408028Y-57891340D01*
X161408023Y-57891341D01*
X161111239Y-57950375D01*
X161111225Y-57950378D01*
X160824684Y-58047646D01*
X160824663Y-58047655D01*
X160553283Y-58181485D01*
X160553268Y-58181494D01*
X160301657Y-58349615D01*
X160074141Y-58549141D01*
X159874615Y-58776657D01*
X159706494Y-59028268D01*
X159706485Y-59028283D01*
X159572655Y-59299663D01*
X159572646Y-59299684D01*
X159475378Y-59586225D01*
X159475376Y-59586233D01*
X159475376Y-59586234D01*
X159416339Y-59883034D01*
X159396547Y-60185000D01*
X159416339Y-60486966D01*
X159475376Y-60783766D01*
X159475378Y-60783773D01*
X159475380Y-60783779D01*
X159572644Y-61070312D01*
X159572648Y-61070322D01*
X159706488Y-61341722D01*
X159706492Y-61341729D01*
X159874612Y-61593339D01*
X160074141Y-61820858D01*
X160301660Y-62020387D01*
X160553270Y-62188507D01*
X160553277Y-62188511D01*
X160824677Y-62322351D01*
X160824687Y-62322355D01*
X161029796Y-62391979D01*
X161111234Y-62419624D01*
X161408034Y-62478661D01*
X161710000Y-62498453D01*
X162011966Y-62478661D01*
X162308766Y-62419624D01*
X162501813Y-62354093D01*
X162595312Y-62322355D01*
X162595322Y-62322351D01*
X162866727Y-62188509D01*
X163118341Y-62020386D01*
X163345858Y-61820858D01*
X163545386Y-61593341D01*
X163602397Y-61508017D01*
X163656010Y-61463211D01*
X163725335Y-61454504D01*
X163788362Y-61484658D01*
X163825082Y-61544101D01*
X163829500Y-61576907D01*
X163829500Y-126875500D01*
X163809815Y-126942539D01*
X163757011Y-126988294D01*
X163705500Y-126999500D01*
X122044500Y-126999500D01*
X121977461Y-126979815D01*
X121931706Y-126927011D01*
X121920500Y-126875500D01*
X121920500Y-117113005D01*
X126772540Y-117113005D01*
X126792357Y-117428012D01*
X126798690Y-117461209D01*
X126851505Y-117738072D01*
X126851507Y-117738077D01*
X126949044Y-118038267D01*
X126949046Y-118038272D01*
X127083436Y-118323865D01*
X127083442Y-118323876D01*
X127252561Y-118590365D01*
X127252563Y-118590368D01*
X127252568Y-118590375D01*
X127453767Y-118833582D01*
X127453772Y-118833588D01*
X127683858Y-119049652D01*
X127683868Y-119049660D01*
X127939209Y-119235176D01*
X127939214Y-119235178D01*
X127939221Y-119235184D01*
X128215821Y-119387247D01*
X128215826Y-119387249D01*
X128215828Y-119387250D01*
X128215829Y-119387251D01*
X128509294Y-119503442D01*
X128509297Y-119503443D01*
X128815021Y-119581939D01*
X128815025Y-119581940D01*
X128880717Y-119590238D01*
X129128167Y-119621499D01*
X129128176Y-119621499D01*
X129128179Y-119621500D01*
X129128181Y-119621500D01*
X129443819Y-119621500D01*
X129443821Y-119621500D01*
X129443824Y-119621499D01*
X129443832Y-119621499D01*
X129630692Y-119597892D01*
X129756975Y-119581940D01*
X130062702Y-119503443D01*
X130150958Y-119468500D01*
X130356170Y-119387251D01*
X130356171Y-119387250D01*
X130356169Y-119387250D01*
X130356179Y-119387247D01*
X130632779Y-119235184D01*
X130888140Y-119049654D01*
X130932663Y-119007844D01*
X158125000Y-119007844D01*
X158131401Y-119067372D01*
X158131403Y-119067379D01*
X158181645Y-119202086D01*
X158181649Y-119202093D01*
X158267809Y-119317187D01*
X158267812Y-119317190D01*
X158382906Y-119403350D01*
X158382913Y-119403354D01*
X158517620Y-119453596D01*
X158517627Y-119453598D01*
X158577155Y-119459999D01*
X158577172Y-119460000D01*
X159225000Y-119460000D01*
X159225000Y-118545501D01*
X159332685Y-118594680D01*
X159439237Y-118610000D01*
X159510763Y-118610000D01*
X159617315Y-118594680D01*
X159725000Y-118545501D01*
X159725000Y-119460000D01*
X160372828Y-119460000D01*
X160372844Y-119459999D01*
X160432372Y-119453598D01*
X160432379Y-119453596D01*
X160567086Y-119403354D01*
X160567093Y-119403350D01*
X160682187Y-119317190D01*
X160682190Y-119317187D01*
X160768350Y-119202093D01*
X160768354Y-119202086D01*
X160814681Y-119077877D01*
X160856552Y-119021943D01*
X160922016Y-118997526D01*
X160990289Y-119012377D01*
X161022089Y-119037223D01*
X161091760Y-119112906D01*
X161269424Y-119251189D01*
X161269425Y-119251189D01*
X161269427Y-119251191D01*
X161391378Y-119317187D01*
X161467426Y-119358342D01*
X161680365Y-119431444D01*
X161902431Y-119468500D01*
X162127569Y-119468500D01*
X162349635Y-119431444D01*
X162562574Y-119358342D01*
X162760576Y-119251189D01*
X162938240Y-119112906D01*
X163090722Y-118947268D01*
X163213860Y-118758791D01*
X163304296Y-118552616D01*
X163359564Y-118334368D01*
X163359565Y-118334359D01*
X163378156Y-118110005D01*
X163378156Y-118109994D01*
X163359565Y-117885640D01*
X163359563Y-117885628D01*
X163322198Y-117738077D01*
X163304296Y-117667384D01*
X163213860Y-117461209D01*
X163192171Y-117428012D01*
X163090723Y-117272734D01*
X163090715Y-117272723D01*
X162938243Y-117107097D01*
X162938238Y-117107092D01*
X162760577Y-116968812D01*
X162760572Y-116968808D01*
X162724068Y-116949053D01*
X162674478Y-116899833D01*
X162659371Y-116831616D01*
X162683542Y-116766061D01*
X162724069Y-116730945D01*
X162760576Y-116711189D01*
X162938240Y-116572906D01*
X163059594Y-116441082D01*
X163090715Y-116407276D01*
X163090716Y-116407274D01*
X163090722Y-116407268D01*
X163213860Y-116218791D01*
X163304296Y-116012616D01*
X163359564Y-115794368D01*
X163372199Y-115641889D01*
X163378156Y-115570005D01*
X163378156Y-115569994D01*
X163359565Y-115345640D01*
X163359563Y-115345628D01*
X163304296Y-115127385D01*
X163295138Y-115106507D01*
X163213860Y-114921209D01*
X163090722Y-114732732D01*
X163090719Y-114732729D01*
X163090715Y-114732723D01*
X162938243Y-114567097D01*
X162938238Y-114567092D01*
X162760577Y-114428812D01*
X162760578Y-114428812D01*
X162760576Y-114428811D01*
X162724070Y-114409055D01*
X162674479Y-114359836D01*
X162659371Y-114291619D01*
X162683541Y-114226064D01*
X162724070Y-114190945D01*
X162724084Y-114190936D01*
X162760576Y-114171189D01*
X162938240Y-114032906D01*
X163090722Y-113867268D01*
X163213860Y-113678791D01*
X163304296Y-113472616D01*
X163359564Y-113254368D01*
X163378156Y-113030000D01*
X163366673Y-112891429D01*
X163359565Y-112805640D01*
X163359563Y-112805628D01*
X163325591Y-112671477D01*
X163304296Y-112587384D01*
X163213860Y-112381209D01*
X163090722Y-112192732D01*
X163090719Y-112192729D01*
X163090715Y-112192723D01*
X162938243Y-112027097D01*
X162938238Y-112027092D01*
X162760577Y-111888812D01*
X162760578Y-111888812D01*
X162760576Y-111888811D01*
X162724070Y-111869055D01*
X162674479Y-111819836D01*
X162659371Y-111751619D01*
X162683541Y-111686064D01*
X162724070Y-111650945D01*
X162724084Y-111650936D01*
X162760576Y-111631189D01*
X162938240Y-111492906D01*
X163066510Y-111353569D01*
X163090715Y-111327276D01*
X163090716Y-111327274D01*
X163090722Y-111327268D01*
X163213860Y-111138791D01*
X163304296Y-110932616D01*
X163359564Y-110714368D01*
X163360961Y-110697507D01*
X163378156Y-110490005D01*
X163378156Y-110489994D01*
X163359565Y-110265640D01*
X163359563Y-110265628D01*
X163304296Y-110047385D01*
X163295138Y-110026507D01*
X163213860Y-109841209D01*
X163197625Y-109816360D01*
X163090723Y-109652734D01*
X163090715Y-109652723D01*
X162938243Y-109487097D01*
X162938238Y-109487092D01*
X162760577Y-109348812D01*
X162760578Y-109348812D01*
X162760576Y-109348811D01*
X162724070Y-109329055D01*
X162674479Y-109279836D01*
X162659371Y-109211619D01*
X162683541Y-109146064D01*
X162724070Y-109110945D01*
X162724084Y-109110936D01*
X162760576Y-109091189D01*
X162938240Y-108952906D01*
X163061913Y-108818563D01*
X163090715Y-108787276D01*
X163090716Y-108787274D01*
X163090722Y-108787268D01*
X163213860Y-108598791D01*
X163304296Y-108392616D01*
X163359564Y-108174368D01*
X163368233Y-108069749D01*
X163378156Y-107950005D01*
X163378156Y-107949994D01*
X163359565Y-107725640D01*
X163359563Y-107725628D01*
X163310726Y-107532775D01*
X163304296Y-107507384D01*
X163213860Y-107301209D01*
X163188430Y-107262286D01*
X163090723Y-107112734D01*
X163090715Y-107112723D01*
X162938243Y-106947097D01*
X162938238Y-106947092D01*
X162760577Y-106808812D01*
X162760578Y-106808812D01*
X162760576Y-106808811D01*
X162724070Y-106789055D01*
X162674479Y-106739836D01*
X162659371Y-106671619D01*
X162683541Y-106606064D01*
X162724070Y-106570945D01*
X162728218Y-106568700D01*
X162760576Y-106551189D01*
X162938240Y-106412906D01*
X163064754Y-106275477D01*
X163090715Y-106247276D01*
X163090716Y-106247274D01*
X163090722Y-106247268D01*
X163213860Y-106058791D01*
X163304296Y-105852616D01*
X163359564Y-105634368D01*
X163364173Y-105578750D01*
X163378156Y-105410005D01*
X163378156Y-105409994D01*
X163359565Y-105185640D01*
X163359563Y-105185628D01*
X163332612Y-105079202D01*
X163304296Y-104967384D01*
X163213860Y-104761209D01*
X163212008Y-104758375D01*
X163120321Y-104618037D01*
X163090722Y-104572732D01*
X163090719Y-104572729D01*
X163090715Y-104572723D01*
X162938243Y-104407097D01*
X162938238Y-104407092D01*
X162760577Y-104268812D01*
X162760572Y-104268808D01*
X162724068Y-104249053D01*
X162674478Y-104199833D01*
X162659371Y-104131616D01*
X162683542Y-104066061D01*
X162724069Y-104030945D01*
X162760576Y-104011189D01*
X162938240Y-103872906D01*
X163090722Y-103707268D01*
X163213860Y-103518791D01*
X163304296Y-103312616D01*
X163359564Y-103094368D01*
X163360768Y-103079844D01*
X163378156Y-102870005D01*
X163378156Y-102869994D01*
X163359565Y-102645640D01*
X163359563Y-102645628D01*
X163330922Y-102532527D01*
X163304296Y-102427384D01*
X163213860Y-102221209D01*
X163090722Y-102032732D01*
X163090719Y-102032729D01*
X163090715Y-102032723D01*
X162938243Y-101867097D01*
X162938238Y-101867092D01*
X162760577Y-101728812D01*
X162760572Y-101728808D01*
X162724068Y-101709053D01*
X162674478Y-101659833D01*
X162659371Y-101591616D01*
X162683542Y-101526061D01*
X162724069Y-101490945D01*
X162760576Y-101471189D01*
X162938240Y-101332906D01*
X163090722Y-101167268D01*
X163213860Y-100978791D01*
X163304296Y-100772616D01*
X163359564Y-100554368D01*
X163363360Y-100508563D01*
X163378156Y-100330005D01*
X163378156Y-100329994D01*
X163359565Y-100105640D01*
X163359563Y-100105628D01*
X163304296Y-99887385D01*
X163295138Y-99866507D01*
X163213860Y-99681209D01*
X163090722Y-99492732D01*
X163090719Y-99492729D01*
X163090715Y-99492723D01*
X162938243Y-99327097D01*
X162938238Y-99327092D01*
X162760577Y-99188812D01*
X162760578Y-99188812D01*
X162760576Y-99188811D01*
X162724070Y-99169055D01*
X162674479Y-99119836D01*
X162659371Y-99051619D01*
X162683541Y-98986064D01*
X162724070Y-98950945D01*
X162724084Y-98950936D01*
X162760576Y-98931189D01*
X162938240Y-98792906D01*
X163066337Y-98653757D01*
X163090715Y-98627276D01*
X163090716Y-98627274D01*
X163090722Y-98627268D01*
X163213860Y-98438791D01*
X163304296Y-98232616D01*
X163359564Y-98014368D01*
X163360768Y-97999844D01*
X163378156Y-97790005D01*
X163378156Y-97789994D01*
X163359565Y-97565640D01*
X163359563Y-97565628D01*
X163308769Y-97365048D01*
X163304296Y-97347384D01*
X163213860Y-97141209D01*
X163090722Y-96952732D01*
X163090719Y-96952729D01*
X163090715Y-96952723D01*
X162938243Y-96787097D01*
X162938238Y-96787092D01*
X162760577Y-96648812D01*
X162760572Y-96648808D01*
X162724068Y-96629053D01*
X162674478Y-96579833D01*
X162659371Y-96511616D01*
X162683542Y-96446061D01*
X162724069Y-96410945D01*
X162760576Y-96391189D01*
X162938240Y-96252906D01*
X163074474Y-96104918D01*
X163090715Y-96087276D01*
X163090716Y-96087274D01*
X163090722Y-96087268D01*
X163213860Y-95898791D01*
X163304296Y-95692616D01*
X163359564Y-95474368D01*
X163361749Y-95448000D01*
X163378156Y-95250005D01*
X163378156Y-95249994D01*
X163359565Y-95025640D01*
X163359563Y-95025628D01*
X163339904Y-94947997D01*
X163304296Y-94807384D01*
X163213860Y-94601209D01*
X163090722Y-94412732D01*
X163090719Y-94412729D01*
X163090715Y-94412723D01*
X162938243Y-94247097D01*
X162938238Y-94247092D01*
X162760577Y-94108812D01*
X162760578Y-94108812D01*
X162760576Y-94108811D01*
X162724070Y-94089055D01*
X162674479Y-94039836D01*
X162659371Y-93971619D01*
X162683541Y-93906064D01*
X162724070Y-93870945D01*
X162727714Y-93868973D01*
X162760576Y-93851189D01*
X162938240Y-93712906D01*
X163076240Y-93563000D01*
X163090715Y-93547276D01*
X163090716Y-93547274D01*
X163090722Y-93547268D01*
X163213860Y-93358791D01*
X163304296Y-93152616D01*
X163359564Y-92934368D01*
X163362124Y-92903472D01*
X163378156Y-92710005D01*
X163378156Y-92709994D01*
X163359565Y-92485640D01*
X163359563Y-92485628D01*
X163319827Y-92328714D01*
X163304296Y-92267384D01*
X163213860Y-92061209D01*
X163211910Y-92058225D01*
X163090723Y-91872734D01*
X163090715Y-91872723D01*
X162938243Y-91707097D01*
X162938238Y-91707092D01*
X162819797Y-91614905D01*
X162760576Y-91568811D01*
X162724070Y-91549055D01*
X162674479Y-91499836D01*
X162659371Y-91431619D01*
X162683541Y-91366064D01*
X162724070Y-91330945D01*
X162724084Y-91330936D01*
X162760576Y-91311189D01*
X162938240Y-91172906D01*
X163053349Y-91047866D01*
X163090715Y-91007276D01*
X163090716Y-91007274D01*
X163090722Y-91007268D01*
X163213860Y-90818791D01*
X163304296Y-90612616D01*
X163359564Y-90394368D01*
X163360768Y-90379844D01*
X163378156Y-90170005D01*
X163378156Y-90169994D01*
X163359565Y-89945640D01*
X163359563Y-89945628D01*
X163304296Y-89727385D01*
X163295138Y-89706507D01*
X163213860Y-89521209D01*
X163206988Y-89510691D01*
X163139895Y-89407997D01*
X163090722Y-89332732D01*
X163090719Y-89332729D01*
X163090715Y-89332723D01*
X162938243Y-89167097D01*
X162938238Y-89167092D01*
X162760577Y-89028812D01*
X162760578Y-89028812D01*
X162760576Y-89028811D01*
X162724070Y-89009055D01*
X162674479Y-88959836D01*
X162659371Y-88891619D01*
X162683541Y-88826064D01*
X162724070Y-88790945D01*
X162724084Y-88790936D01*
X162760576Y-88771189D01*
X162938240Y-88632906D01*
X163090722Y-88467268D01*
X163213860Y-88278791D01*
X163304296Y-88072616D01*
X163359564Y-87854368D01*
X163362061Y-87824233D01*
X163378156Y-87630005D01*
X163378156Y-87629994D01*
X163359565Y-87405640D01*
X163359563Y-87405628D01*
X163344731Y-87347057D01*
X163304296Y-87187384D01*
X163213860Y-86981209D01*
X163090722Y-86792732D01*
X163090719Y-86792729D01*
X163090715Y-86792723D01*
X162938243Y-86627097D01*
X162938238Y-86627092D01*
X162760577Y-86488812D01*
X162760572Y-86488808D01*
X162724068Y-86469053D01*
X162674478Y-86419833D01*
X162659371Y-86351616D01*
X162683542Y-86286061D01*
X162724069Y-86250945D01*
X162760576Y-86231189D01*
X162938240Y-86092906D01*
X163090722Y-85927268D01*
X163213860Y-85738791D01*
X163304296Y-85532616D01*
X163359564Y-85314368D01*
X163359565Y-85314359D01*
X163378156Y-85090005D01*
X163378156Y-85089994D01*
X163359565Y-84865640D01*
X163359563Y-84865628D01*
X163304296Y-84647385D01*
X163295138Y-84626507D01*
X163213860Y-84441209D01*
X163090722Y-84252732D01*
X163090719Y-84252729D01*
X163090715Y-84252723D01*
X162938243Y-84087097D01*
X162938238Y-84087092D01*
X162760577Y-83948812D01*
X162760578Y-83948812D01*
X162760576Y-83948811D01*
X162724070Y-83929055D01*
X162674479Y-83879836D01*
X162659371Y-83811619D01*
X162683541Y-83746064D01*
X162724070Y-83710945D01*
X162724084Y-83710936D01*
X162760576Y-83691189D01*
X162938240Y-83552906D01*
X163059594Y-83421082D01*
X163090715Y-83387276D01*
X163090716Y-83387274D01*
X163090722Y-83387268D01*
X163213860Y-83198791D01*
X163304296Y-82992616D01*
X163359564Y-82774368D01*
X163364808Y-82711087D01*
X163378156Y-82550005D01*
X163378156Y-82549994D01*
X163359565Y-82325640D01*
X163359563Y-82325628D01*
X163346981Y-82275942D01*
X163304296Y-82107384D01*
X163213860Y-81901209D01*
X163197546Y-81876239D01*
X163090723Y-81712734D01*
X163090715Y-81712723D01*
X162938243Y-81547097D01*
X162938238Y-81547092D01*
X162760577Y-81408812D01*
X162760578Y-81408812D01*
X162760576Y-81408811D01*
X162724070Y-81389055D01*
X162674479Y-81339836D01*
X162659371Y-81271619D01*
X162683541Y-81206064D01*
X162724070Y-81170945D01*
X162726736Y-81169502D01*
X162760576Y-81151189D01*
X162938240Y-81012906D01*
X163069876Y-80869913D01*
X163090715Y-80847276D01*
X163090716Y-80847274D01*
X163090722Y-80847268D01*
X163213860Y-80658791D01*
X163304296Y-80452616D01*
X163359564Y-80234368D01*
X163368059Y-80131855D01*
X163378156Y-80010005D01*
X163378156Y-80009994D01*
X163359565Y-79785640D01*
X163359563Y-79785628D01*
X163341171Y-79713000D01*
X163304296Y-79567384D01*
X163213860Y-79361209D01*
X163090722Y-79172732D01*
X163090719Y-79172729D01*
X163090715Y-79172723D01*
X162938243Y-79007097D01*
X162938238Y-79007092D01*
X162789733Y-78891505D01*
X162760576Y-78868811D01*
X162724070Y-78849055D01*
X162674479Y-78799836D01*
X162659371Y-78731619D01*
X162683541Y-78666064D01*
X162724070Y-78630945D01*
X162724084Y-78630936D01*
X162760576Y-78611189D01*
X162938240Y-78472906D01*
X163075329Y-78323989D01*
X163090715Y-78307276D01*
X163090716Y-78307274D01*
X163090722Y-78307268D01*
X163213860Y-78118791D01*
X163304296Y-77912616D01*
X163359564Y-77694368D01*
X163359565Y-77694359D01*
X163378156Y-77470005D01*
X163378156Y-77469994D01*
X163359565Y-77245640D01*
X163359563Y-77245628D01*
X163321094Y-77093718D01*
X163304296Y-77027384D01*
X163213860Y-76821209D01*
X163090722Y-76632732D01*
X163090719Y-76632729D01*
X163090715Y-76632723D01*
X162938243Y-76467097D01*
X162938238Y-76467092D01*
X162760577Y-76328812D01*
X162760572Y-76328808D01*
X162562580Y-76221661D01*
X162562577Y-76221659D01*
X162562574Y-76221658D01*
X162562571Y-76221657D01*
X162562569Y-76221656D01*
X162349637Y-76148556D01*
X162127569Y-76111500D01*
X161902431Y-76111500D01*
X161680362Y-76148556D01*
X161467430Y-76221656D01*
X161467419Y-76221661D01*
X161269427Y-76328808D01*
X161269422Y-76328812D01*
X161091761Y-76467092D01*
X161091756Y-76467097D01*
X160939284Y-76632723D01*
X160939276Y-76632734D01*
X160845251Y-76776650D01*
X160792105Y-76822007D01*
X160722873Y-76831430D01*
X160659538Y-76801928D01*
X160639868Y-76779951D01*
X160513113Y-76598926D01*
X160513108Y-76598920D01*
X160346082Y-76431894D01*
X160152578Y-76296399D01*
X159938492Y-76196570D01*
X159938486Y-76196567D01*
X159725000Y-76139364D01*
X159725000Y-77034498D01*
X159617315Y-76985320D01*
X159510763Y-76970000D01*
X159439237Y-76970000D01*
X159332685Y-76985320D01*
X159225000Y-77034498D01*
X159225000Y-76139364D01*
X159224999Y-76139364D01*
X159011513Y-76196567D01*
X159011507Y-76196570D01*
X158797422Y-76296399D01*
X158797420Y-76296400D01*
X158603926Y-76431886D01*
X158603920Y-76431891D01*
X158436891Y-76598920D01*
X158436886Y-76598926D01*
X158301400Y-76792420D01*
X158301399Y-76792422D01*
X158201570Y-77006507D01*
X158201567Y-77006513D01*
X158144364Y-77219999D01*
X158144364Y-77220000D01*
X159041314Y-77220000D01*
X159015507Y-77260156D01*
X158975000Y-77398111D01*
X158975000Y-77541889D01*
X159015507Y-77679844D01*
X159041314Y-77720000D01*
X158144364Y-77720000D01*
X158201567Y-77933486D01*
X158201570Y-77933492D01*
X158301399Y-78147578D01*
X158436894Y-78341082D01*
X158603917Y-78508105D01*
X158790031Y-78638425D01*
X158833656Y-78693003D01*
X158840848Y-78762501D01*
X158809326Y-78824856D01*
X158790031Y-78841575D01*
X158603922Y-78971890D01*
X158603920Y-78971891D01*
X158436891Y-79138920D01*
X158436886Y-79138926D01*
X158301400Y-79332420D01*
X158301399Y-79332422D01*
X158201570Y-79546507D01*
X158201567Y-79546513D01*
X158144364Y-79759999D01*
X158144364Y-79760000D01*
X159041314Y-79760000D01*
X159015507Y-79800156D01*
X158975000Y-79938111D01*
X158975000Y-80081889D01*
X159015507Y-80219844D01*
X159041314Y-80260000D01*
X158144364Y-80260000D01*
X158201567Y-80473486D01*
X158201570Y-80473492D01*
X158301399Y-80687578D01*
X158436894Y-80881082D01*
X158603917Y-81048105D01*
X158790031Y-81178425D01*
X158833656Y-81233003D01*
X158840848Y-81302501D01*
X158809326Y-81364856D01*
X158790031Y-81381575D01*
X158603922Y-81511890D01*
X158603920Y-81511891D01*
X158436891Y-81678920D01*
X158436886Y-81678926D01*
X158301400Y-81872420D01*
X158301399Y-81872422D01*
X158201570Y-82086507D01*
X158201567Y-82086513D01*
X158144364Y-82299999D01*
X158144364Y-82300000D01*
X159041314Y-82300000D01*
X159015507Y-82340156D01*
X158975000Y-82478111D01*
X158975000Y-82621889D01*
X159015507Y-82759844D01*
X159041314Y-82800000D01*
X158144364Y-82800000D01*
X158201567Y-83013486D01*
X158201570Y-83013492D01*
X158301399Y-83227578D01*
X158436894Y-83421082D01*
X158603917Y-83588105D01*
X158790031Y-83718425D01*
X158833656Y-83773003D01*
X158840848Y-83842501D01*
X158809326Y-83904856D01*
X158790031Y-83921575D01*
X158603922Y-84051890D01*
X158603920Y-84051891D01*
X158436891Y-84218920D01*
X158436886Y-84218926D01*
X158301400Y-84412420D01*
X158301399Y-84412422D01*
X158201570Y-84626507D01*
X158201567Y-84626513D01*
X158144364Y-84839999D01*
X158144364Y-84840000D01*
X159041314Y-84840000D01*
X159015507Y-84880156D01*
X158975000Y-85018111D01*
X158975000Y-85161889D01*
X159015507Y-85299844D01*
X159041314Y-85340000D01*
X158144364Y-85340000D01*
X158201567Y-85553486D01*
X158201570Y-85553492D01*
X158301399Y-85767578D01*
X158436894Y-85961082D01*
X158603917Y-86128105D01*
X158790031Y-86258425D01*
X158833656Y-86313003D01*
X158840848Y-86382501D01*
X158809326Y-86444856D01*
X158790031Y-86461575D01*
X158603922Y-86591890D01*
X158603920Y-86591891D01*
X158436891Y-86758920D01*
X158436886Y-86758926D01*
X158301400Y-86952420D01*
X158301399Y-86952422D01*
X158201570Y-87166507D01*
X158201567Y-87166513D01*
X158144364Y-87379999D01*
X158144364Y-87380000D01*
X159041314Y-87380000D01*
X159015507Y-87420156D01*
X158975000Y-87558111D01*
X158975000Y-87701889D01*
X159015507Y-87839844D01*
X159041314Y-87880000D01*
X158144364Y-87880000D01*
X158201567Y-88093486D01*
X158201570Y-88093492D01*
X158301399Y-88307578D01*
X158436894Y-88501082D01*
X158603917Y-88668105D01*
X158790031Y-88798425D01*
X158833656Y-88853003D01*
X158840848Y-88922501D01*
X158809326Y-88984856D01*
X158790031Y-89001575D01*
X158603922Y-89131890D01*
X158603920Y-89131891D01*
X158436891Y-89298920D01*
X158436886Y-89298926D01*
X158301400Y-89492420D01*
X158301399Y-89492422D01*
X158201570Y-89706507D01*
X158201567Y-89706513D01*
X158144364Y-89919999D01*
X158144364Y-89920000D01*
X159041314Y-89920000D01*
X159015507Y-89960156D01*
X158975000Y-90098111D01*
X158975000Y-90241889D01*
X159015507Y-90379844D01*
X159041314Y-90420000D01*
X158144364Y-90420000D01*
X158201567Y-90633486D01*
X158201570Y-90633492D01*
X158301399Y-90847578D01*
X158436894Y-91041082D01*
X158603917Y-91208105D01*
X158790031Y-91338425D01*
X158833656Y-91393003D01*
X158840848Y-91462501D01*
X158809326Y-91524856D01*
X158790031Y-91541575D01*
X158603922Y-91671890D01*
X158603920Y-91671891D01*
X158436891Y-91838920D01*
X158436886Y-91838926D01*
X158301400Y-92032420D01*
X158301399Y-92032422D01*
X158201570Y-92246507D01*
X158201567Y-92246513D01*
X158144364Y-92459999D01*
X158144364Y-92460000D01*
X159041314Y-92460000D01*
X159015507Y-92500156D01*
X158975000Y-92638111D01*
X158975000Y-92781889D01*
X159015507Y-92919844D01*
X159041314Y-92960000D01*
X158144364Y-92960000D01*
X158201567Y-93173486D01*
X158201570Y-93173492D01*
X158301399Y-93387578D01*
X158436894Y-93581082D01*
X158603917Y-93748105D01*
X158790031Y-93878425D01*
X158833656Y-93933003D01*
X158840848Y-94002501D01*
X158809326Y-94064856D01*
X158790031Y-94081575D01*
X158603922Y-94211890D01*
X158603920Y-94211891D01*
X158436891Y-94378920D01*
X158436886Y-94378926D01*
X158301400Y-94572420D01*
X158301399Y-94572422D01*
X158201570Y-94786507D01*
X158201567Y-94786513D01*
X158144364Y-94999999D01*
X158144364Y-95000000D01*
X159041314Y-95000000D01*
X159015507Y-95040156D01*
X158975000Y-95178111D01*
X158975000Y-95321889D01*
X159015507Y-95459844D01*
X159041314Y-95500000D01*
X158144364Y-95500000D01*
X158201567Y-95713486D01*
X158201570Y-95713492D01*
X158301399Y-95927578D01*
X158436894Y-96121082D01*
X158603917Y-96288105D01*
X158790031Y-96418425D01*
X158833656Y-96473003D01*
X158840848Y-96542501D01*
X158809326Y-96604856D01*
X158790031Y-96621575D01*
X158603922Y-96751890D01*
X158603920Y-96751891D01*
X158436891Y-96918920D01*
X158436886Y-96918926D01*
X158301400Y-97112420D01*
X158301399Y-97112422D01*
X158201570Y-97326507D01*
X158201567Y-97326513D01*
X158144364Y-97539999D01*
X158144364Y-97540000D01*
X159041314Y-97540000D01*
X159015507Y-97580156D01*
X158975000Y-97718111D01*
X158975000Y-97861889D01*
X159015507Y-97999844D01*
X159041314Y-98040000D01*
X158144364Y-98040000D01*
X158201567Y-98253486D01*
X158201570Y-98253492D01*
X158301399Y-98467578D01*
X158436894Y-98661082D01*
X158603917Y-98828105D01*
X158790031Y-98958425D01*
X158833656Y-99013003D01*
X158840848Y-99082501D01*
X158809326Y-99144856D01*
X158790031Y-99161575D01*
X158603922Y-99291890D01*
X158603920Y-99291891D01*
X158436891Y-99458920D01*
X158436886Y-99458926D01*
X158301400Y-99652420D01*
X158301399Y-99652422D01*
X158201570Y-99866507D01*
X158201567Y-99866513D01*
X158144364Y-100079999D01*
X158144364Y-100080000D01*
X159041314Y-100080000D01*
X159015507Y-100120156D01*
X158975000Y-100258111D01*
X158975000Y-100401889D01*
X159015507Y-100539844D01*
X159041314Y-100580000D01*
X158144364Y-100580000D01*
X158201567Y-100793486D01*
X158201570Y-100793492D01*
X158301399Y-101007578D01*
X158436894Y-101201082D01*
X158603917Y-101368105D01*
X158790031Y-101498425D01*
X158833656Y-101553003D01*
X158840848Y-101622501D01*
X158809326Y-101684856D01*
X158790031Y-101701575D01*
X158603922Y-101831890D01*
X158603920Y-101831891D01*
X158436891Y-101998920D01*
X158436886Y-101998926D01*
X158301400Y-102192420D01*
X158301399Y-102192422D01*
X158201570Y-102406507D01*
X158201567Y-102406513D01*
X158144364Y-102619999D01*
X158144364Y-102620000D01*
X159041314Y-102620000D01*
X159015507Y-102660156D01*
X158975000Y-102798111D01*
X158975000Y-102941889D01*
X159015507Y-103079844D01*
X159041314Y-103120000D01*
X158144364Y-103120000D01*
X158201567Y-103333486D01*
X158201570Y-103333492D01*
X158301399Y-103547578D01*
X158436894Y-103741082D01*
X158603917Y-103908105D01*
X158790031Y-104038425D01*
X158833656Y-104093003D01*
X158840848Y-104162501D01*
X158809326Y-104224856D01*
X158790031Y-104241575D01*
X158603922Y-104371890D01*
X158603920Y-104371891D01*
X158436891Y-104538920D01*
X158436886Y-104538926D01*
X158301400Y-104732420D01*
X158301399Y-104732422D01*
X158201570Y-104946507D01*
X158201567Y-104946513D01*
X158144364Y-105159999D01*
X158144364Y-105160000D01*
X159041314Y-105160000D01*
X159015507Y-105200156D01*
X158975000Y-105338111D01*
X158975000Y-105481889D01*
X159015507Y-105619844D01*
X159041314Y-105660000D01*
X158144364Y-105660000D01*
X158201567Y-105873486D01*
X158201570Y-105873492D01*
X158301399Y-106087578D01*
X158436894Y-106281082D01*
X158603917Y-106448105D01*
X158790031Y-106578425D01*
X158833656Y-106633003D01*
X158840848Y-106702501D01*
X158809326Y-106764856D01*
X158790031Y-106781575D01*
X158603922Y-106911890D01*
X158603920Y-106911891D01*
X158436891Y-107078920D01*
X158436886Y-107078926D01*
X158301400Y-107272420D01*
X158301399Y-107272422D01*
X158201570Y-107486507D01*
X158201567Y-107486513D01*
X158144364Y-107699999D01*
X158144364Y-107700000D01*
X159041314Y-107700000D01*
X159015507Y-107740156D01*
X158975000Y-107878111D01*
X158975000Y-108021889D01*
X159015507Y-108159844D01*
X159041314Y-108200000D01*
X158144364Y-108200000D01*
X158201567Y-108413486D01*
X158201570Y-108413492D01*
X158301399Y-108627578D01*
X158436894Y-108821082D01*
X158603917Y-108988105D01*
X158790031Y-109118425D01*
X158833656Y-109173003D01*
X158840848Y-109242501D01*
X158809326Y-109304856D01*
X158790031Y-109321575D01*
X158603922Y-109451890D01*
X158603920Y-109451891D01*
X158436891Y-109618920D01*
X158436886Y-109618926D01*
X158301400Y-109812420D01*
X158301399Y-109812422D01*
X158201570Y-110026507D01*
X158201567Y-110026513D01*
X158144364Y-110239999D01*
X158144364Y-110240000D01*
X159041314Y-110240000D01*
X159015507Y-110280156D01*
X158975000Y-110418111D01*
X158975000Y-110561889D01*
X159015507Y-110699844D01*
X159041314Y-110740000D01*
X158144364Y-110740000D01*
X158201567Y-110953486D01*
X158201570Y-110953492D01*
X158301399Y-111167578D01*
X158436894Y-111361082D01*
X158603917Y-111528105D01*
X158790031Y-111658425D01*
X158833656Y-111713003D01*
X158840848Y-111782501D01*
X158809326Y-111844856D01*
X158790031Y-111861575D01*
X158603922Y-111991890D01*
X158603920Y-111991891D01*
X158436891Y-112158920D01*
X158436886Y-112158926D01*
X158301400Y-112352420D01*
X158301399Y-112352422D01*
X158201570Y-112566507D01*
X158201567Y-112566513D01*
X158144364Y-112779999D01*
X158144364Y-112780000D01*
X159041314Y-112780000D01*
X159015507Y-112820156D01*
X158975000Y-112958111D01*
X158975000Y-113101889D01*
X159015507Y-113239844D01*
X159041314Y-113280000D01*
X158144364Y-113280000D01*
X158201567Y-113493486D01*
X158201570Y-113493492D01*
X158301399Y-113707578D01*
X158436894Y-113901082D01*
X158603917Y-114068105D01*
X158790031Y-114198425D01*
X158833656Y-114253003D01*
X158840848Y-114322501D01*
X158809326Y-114384856D01*
X158790031Y-114401575D01*
X158603922Y-114531890D01*
X158603920Y-114531891D01*
X158436891Y-114698920D01*
X158436886Y-114698926D01*
X158301400Y-114892420D01*
X158301399Y-114892422D01*
X158201570Y-115106507D01*
X158201567Y-115106513D01*
X158144364Y-115319999D01*
X158144364Y-115320000D01*
X159041314Y-115320000D01*
X159015507Y-115360156D01*
X158975000Y-115498111D01*
X158975000Y-115641889D01*
X159015507Y-115779844D01*
X159041314Y-115820000D01*
X158144364Y-115820000D01*
X158201567Y-116033486D01*
X158201570Y-116033492D01*
X158301399Y-116247578D01*
X158436894Y-116441082D01*
X158559334Y-116563522D01*
X158592819Y-116624845D01*
X158587835Y-116694537D01*
X158545963Y-116750470D01*
X158514987Y-116767385D01*
X158382911Y-116816646D01*
X158382906Y-116816649D01*
X158267812Y-116902809D01*
X158267809Y-116902812D01*
X158181649Y-117017906D01*
X158181645Y-117017913D01*
X158131403Y-117152620D01*
X158131401Y-117152627D01*
X158125000Y-117212155D01*
X158125000Y-117860000D01*
X159041314Y-117860000D01*
X159015507Y-117900156D01*
X158975000Y-118038111D01*
X158975000Y-118181889D01*
X159015507Y-118319844D01*
X159041314Y-118360000D01*
X158125000Y-118360000D01*
X158125000Y-119007844D01*
X130932663Y-119007844D01*
X131118233Y-118833582D01*
X131319432Y-118590375D01*
X131488562Y-118323869D01*
X131622956Y-118038266D01*
X131720495Y-117738072D01*
X131779641Y-117428020D01*
X131789412Y-117272723D01*
X131799460Y-117113005D01*
X131799460Y-117112994D01*
X131779642Y-116797987D01*
X131779641Y-116797980D01*
X131720495Y-116487928D01*
X131622956Y-116187734D01*
X131488562Y-115902131D01*
X131436440Y-115820000D01*
X131319438Y-115635634D01*
X131319436Y-115635632D01*
X131319432Y-115635625D01*
X131118233Y-115392418D01*
X131118232Y-115392417D01*
X131118227Y-115392411D01*
X130888141Y-115176347D01*
X130888131Y-115176339D01*
X130632790Y-114990823D01*
X130632783Y-114990818D01*
X130632779Y-114990816D01*
X130356179Y-114838753D01*
X130356176Y-114838751D01*
X130356171Y-114838749D01*
X130356170Y-114838748D01*
X130062705Y-114722557D01*
X130062702Y-114722556D01*
X129756978Y-114644060D01*
X129756965Y-114644058D01*
X129443832Y-114604500D01*
X129443821Y-114604500D01*
X129128179Y-114604500D01*
X129128167Y-114604500D01*
X128815034Y-114644058D01*
X128815021Y-114644060D01*
X128509297Y-114722556D01*
X128509294Y-114722557D01*
X128215829Y-114838748D01*
X128215828Y-114838749D01*
X127939221Y-114990816D01*
X127939209Y-114990823D01*
X127683868Y-115176339D01*
X127683858Y-115176347D01*
X127453772Y-115392411D01*
X127252561Y-115635634D01*
X127083442Y-115902123D01*
X127083436Y-115902134D01*
X126949046Y-116187727D01*
X126949044Y-116187732D01*
X126877714Y-116407265D01*
X126851505Y-116487928D01*
X126831695Y-116591776D01*
X126792357Y-116797987D01*
X126772540Y-117112994D01*
X126772540Y-117113005D01*
X121920500Y-117113005D01*
X121920500Y-108798001D01*
X125432502Y-108798001D01*
X125452456Y-109026081D01*
X125452457Y-109026089D01*
X125511714Y-109247238D01*
X125511718Y-109247249D01*
X125559078Y-109348812D01*
X125608477Y-109454749D01*
X125739802Y-109642300D01*
X125739806Y-109642304D01*
X125826181Y-109728679D01*
X125859666Y-109790002D01*
X125862500Y-109816360D01*
X125862499Y-110664704D01*
X125860973Y-110684097D01*
X125858850Y-110697504D01*
X125858850Y-110697507D01*
X125859733Y-110714359D01*
X125862415Y-110765528D01*
X125862500Y-110768774D01*
X125862500Y-110790302D01*
X125864750Y-110811725D01*
X125865004Y-110814957D01*
X125868569Y-110882970D01*
X125868570Y-110882974D01*
X125872083Y-110896088D01*
X125875626Y-110915202D01*
X125877045Y-110928696D01*
X125877047Y-110928708D01*
X125898087Y-110993460D01*
X125899008Y-110996572D01*
X125916637Y-111062361D01*
X125922799Y-111074456D01*
X125930241Y-111092424D01*
X125934433Y-111105325D01*
X125934434Y-111105328D01*
X125968479Y-111164295D01*
X125970028Y-111167147D01*
X125986811Y-111200084D01*
X126000953Y-111227839D01*
X126000956Y-111227843D01*
X126000957Y-111227844D01*
X126009486Y-111238376D01*
X126020507Y-111254411D01*
X126027296Y-111266169D01*
X126059792Y-111302259D01*
X126072862Y-111316776D01*
X126074969Y-111319243D01*
X126088520Y-111335977D01*
X126088532Y-111335990D01*
X126103756Y-111351214D01*
X126105991Y-111353569D01*
X126151566Y-111404185D01*
X126162551Y-111412166D01*
X126177340Y-111424798D01*
X127335201Y-112582659D01*
X127347835Y-112597450D01*
X127355815Y-112608434D01*
X127406447Y-112654023D01*
X127408778Y-112656236D01*
X127424014Y-112671472D01*
X127424018Y-112671475D01*
X127424020Y-112671477D01*
X127440756Y-112685030D01*
X127443224Y-112687138D01*
X127493826Y-112732700D01*
X127493829Y-112732702D01*
X127493831Y-112732704D01*
X127505587Y-112739491D01*
X127521619Y-112750510D01*
X127532161Y-112759047D01*
X127592824Y-112789956D01*
X127595678Y-112791505D01*
X127654669Y-112825564D01*
X127667574Y-112829757D01*
X127685542Y-112837199D01*
X127697637Y-112843362D01*
X127697639Y-112843362D01*
X127697640Y-112843363D01*
X127709164Y-112846450D01*
X127763441Y-112860993D01*
X127766520Y-112861906D01*
X127831298Y-112882954D01*
X127844795Y-112884372D01*
X127863921Y-112887918D01*
X127869567Y-112889430D01*
X127877029Y-112891430D01*
X127945041Y-112894993D01*
X127948264Y-112895247D01*
X127969694Y-112897500D01*
X127991239Y-112897500D01*
X127994482Y-112897584D01*
X128062493Y-112901149D01*
X128073678Y-112899377D01*
X128075899Y-112899026D01*
X128095294Y-112897500D01*
X132762704Y-112897500D01*
X132782103Y-112899026D01*
X132795507Y-112901150D01*
X132863530Y-112897584D01*
X132866774Y-112897500D01*
X132888306Y-112897500D01*
X132909734Y-112895247D01*
X132912943Y-112894994D01*
X132980971Y-112891430D01*
X132994073Y-112887918D01*
X133013211Y-112884372D01*
X133019036Y-112883759D01*
X133026702Y-112882954D01*
X133076104Y-112866901D01*
X133091479Y-112861906D01*
X133094563Y-112860991D01*
X133160363Y-112843362D01*
X133172451Y-112837202D01*
X133190423Y-112829757D01*
X133203331Y-112825564D01*
X133262347Y-112791489D01*
X133265117Y-112789985D01*
X133325839Y-112759047D01*
X133336391Y-112750501D01*
X133352412Y-112739490D01*
X133364169Y-112732704D01*
X133364172Y-112732700D01*
X133364174Y-112732700D01*
X133375704Y-112722317D01*
X133414812Y-112687103D01*
X133417242Y-112685030D01*
X133433986Y-112671472D01*
X133449240Y-112656216D01*
X133451542Y-112654031D01*
X133502185Y-112608434D01*
X133510165Y-112597449D01*
X133522794Y-112582662D01*
X135188660Y-110916795D01*
X135203450Y-110904164D01*
X135214434Y-110896185D01*
X135214437Y-110896180D01*
X135214440Y-110896179D01*
X135237588Y-110870469D01*
X135260023Y-110845551D01*
X135262225Y-110843230D01*
X135277472Y-110827985D01*
X135291055Y-110811209D01*
X135293098Y-110808818D01*
X135338704Y-110758169D01*
X135345486Y-110746420D01*
X135356512Y-110730378D01*
X135365048Y-110719839D01*
X135395980Y-110659127D01*
X135397519Y-110656296D01*
X135411403Y-110632249D01*
X135431564Y-110597331D01*
X135435756Y-110584426D01*
X135443201Y-110566452D01*
X135449362Y-110554363D01*
X135466989Y-110488573D01*
X135467896Y-110485506D01*
X135488954Y-110420702D01*
X135489964Y-110411089D01*
X135490372Y-110407211D01*
X135493920Y-110388068D01*
X135497430Y-110374971D01*
X135500994Y-110306943D01*
X135501247Y-110303734D01*
X135503500Y-110282306D01*
X135503500Y-110260774D01*
X135503585Y-110257528D01*
X135507150Y-110189507D01*
X135505026Y-110176101D01*
X135503500Y-110156704D01*
X135503500Y-82275942D01*
X136267780Y-82275942D01*
X136272225Y-82322966D01*
X136272500Y-82328804D01*
X136272500Y-88054366D01*
X136270761Y-88070113D01*
X136271032Y-88070139D01*
X136270297Y-88077906D01*
X136272469Y-88146990D01*
X136272500Y-88148938D01*
X136272500Y-88177859D01*
X136273384Y-88184856D01*
X136273842Y-88190679D01*
X136275326Y-88237889D01*
X136275327Y-88237891D01*
X136281022Y-88257495D01*
X136284967Y-88276542D01*
X136287526Y-88296797D01*
X136287527Y-88296800D01*
X136287528Y-88296803D01*
X136304914Y-88340716D01*
X136306806Y-88346244D01*
X136319981Y-88391592D01*
X136330372Y-88409162D01*
X136338932Y-88426635D01*
X136346447Y-88445617D01*
X136374209Y-88483827D01*
X136377416Y-88488710D01*
X136401458Y-88529362D01*
X136401462Y-88529366D01*
X136415889Y-88543793D01*
X136428526Y-88558588D01*
X136440528Y-88575107D01*
X136476931Y-88605222D01*
X136481231Y-88609135D01*
X137506695Y-89634599D01*
X138499378Y-90627282D01*
X138532863Y-90688605D01*
X138535018Y-90702001D01*
X138535816Y-90709590D01*
X138552458Y-90867928D01*
X138552459Y-90867931D01*
X138611470Y-91049549D01*
X138611473Y-91049556D01*
X138706960Y-91214944D01*
X138834747Y-91356866D01*
X138989248Y-91469118D01*
X139163712Y-91546794D01*
X139350513Y-91586500D01*
X139541487Y-91586500D01*
X139728288Y-91546794D01*
X139902752Y-91469118D01*
X140057253Y-91356866D01*
X140185040Y-91214944D01*
X140280527Y-91049556D01*
X140339542Y-90867928D01*
X140359504Y-90678000D01*
X140339542Y-90488072D01*
X140280527Y-90306444D01*
X140185040Y-90141056D01*
X140057253Y-89999134D01*
X139902752Y-89886882D01*
X139728288Y-89809206D01*
X139728286Y-89809205D01*
X139541487Y-89769500D01*
X139484767Y-89769500D01*
X139417728Y-89749815D01*
X139397086Y-89733181D01*
X137575819Y-87911914D01*
X137560577Y-87884000D01*
X138532496Y-87884000D01*
X138552458Y-88073928D01*
X138552459Y-88073931D01*
X138611470Y-88255549D01*
X138611473Y-88255556D01*
X138706960Y-88420944D01*
X138834747Y-88562866D01*
X138989248Y-88675118D01*
X139163712Y-88752794D01*
X139350513Y-88792500D01*
X139541487Y-88792500D01*
X139728288Y-88752794D01*
X139902752Y-88675118D01*
X140057253Y-88562866D01*
X140185040Y-88420944D01*
X140280527Y-88255556D01*
X140339542Y-88073928D01*
X140359504Y-87884000D01*
X140339542Y-87694072D01*
X140280527Y-87512444D01*
X140218857Y-87405628D01*
X140185041Y-87347057D01*
X140185036Y-87347050D01*
X140111350Y-87265213D01*
X140081120Y-87202221D01*
X140079500Y-87182241D01*
X140079500Y-83251756D01*
X140099185Y-83184717D01*
X140111346Y-83168788D01*
X140185040Y-83086944D01*
X140280527Y-82921556D01*
X140339542Y-82739928D01*
X140359504Y-82550000D01*
X140339542Y-82360072D01*
X140280527Y-82178444D01*
X140185040Y-82013056D01*
X140061850Y-81876239D01*
X140057254Y-81871135D01*
X140037318Y-81856650D01*
X139902752Y-81758882D01*
X139728288Y-81681206D01*
X139728286Y-81681205D01*
X139541487Y-81641500D01*
X139350513Y-81641500D01*
X139163714Y-81681205D01*
X139163711Y-81681206D01*
X139163712Y-81681206D01*
X138998536Y-81754747D01*
X138989246Y-81758883D01*
X138834745Y-81871135D01*
X138706959Y-82013057D01*
X138611473Y-82178443D01*
X138611470Y-82178450D01*
X138561486Y-82332286D01*
X138552458Y-82360072D01*
X138548305Y-82399590D01*
X138534408Y-82531813D01*
X138532496Y-82550000D01*
X138552458Y-82739928D01*
X138552459Y-82739931D01*
X138611470Y-82921549D01*
X138611473Y-82921556D01*
X138652499Y-82992616D01*
X138706960Y-83086944D01*
X138780649Y-83168784D01*
X138810880Y-83231775D01*
X138812500Y-83251756D01*
X138812500Y-87182241D01*
X138792815Y-87249280D01*
X138780650Y-87265213D01*
X138706963Y-87347050D01*
X138706958Y-87347057D01*
X138611473Y-87512443D01*
X138611470Y-87512450D01*
X138568663Y-87644198D01*
X138552458Y-87694072D01*
X138532496Y-87884000D01*
X137560577Y-87884000D01*
X137542334Y-87850591D01*
X137539500Y-87824233D01*
X137539500Y-82609766D01*
X137559185Y-82542727D01*
X137575819Y-82522085D01*
X139392787Y-80705118D01*
X139454110Y-80671633D01*
X139480468Y-80668799D01*
X139537188Y-80668799D01*
X139723989Y-80629093D01*
X139898453Y-80551417D01*
X140052954Y-80439165D01*
X140180741Y-80297243D01*
X140276228Y-80131855D01*
X140335243Y-79950227D01*
X140355205Y-79760299D01*
X140335243Y-79570371D01*
X140280196Y-79400957D01*
X140276230Y-79388749D01*
X140276229Y-79388748D01*
X140276228Y-79388743D01*
X140180741Y-79223355D01*
X140065682Y-79095569D01*
X140052955Y-79081434D01*
X140044378Y-79075202D01*
X139898453Y-78969181D01*
X139723989Y-78891505D01*
X139723987Y-78891504D01*
X139537188Y-78851799D01*
X139346214Y-78851799D01*
X139159415Y-78891504D01*
X138984947Y-78969182D01*
X138830446Y-79081434D01*
X138702660Y-79223356D01*
X138607174Y-79388742D01*
X138607171Y-79388749D01*
X138549129Y-79567385D01*
X138548159Y-79570371D01*
X138533168Y-79713000D01*
X138530720Y-79736294D01*
X138504135Y-79800908D01*
X138495080Y-79811013D01*
X136517179Y-81788914D01*
X136504820Y-81798818D01*
X136504993Y-81799027D01*
X136498981Y-81804000D01*
X136451673Y-81854377D01*
X136450320Y-81855773D01*
X136429873Y-81876221D01*
X136429857Y-81876239D01*
X136425531Y-81881814D01*
X136421747Y-81886244D01*
X136389419Y-81920671D01*
X136389412Y-81920681D01*
X136379579Y-81938567D01*
X136368903Y-81954820D01*
X136356386Y-81970957D01*
X136356385Y-81970959D01*
X136337625Y-82014310D01*
X136335055Y-82019556D01*
X136312303Y-82060941D01*
X136312303Y-82060942D01*
X136307225Y-82080720D01*
X136300925Y-82099122D01*
X136292818Y-82117857D01*
X136285431Y-82164495D01*
X136284246Y-82170216D01*
X136272500Y-82215965D01*
X136272500Y-82236384D01*
X136270973Y-82255783D01*
X136267780Y-82275941D01*
X136267780Y-82275942D01*
X135503500Y-82275942D01*
X135503500Y-80173320D01*
X135523185Y-80106281D01*
X135539819Y-80085639D01*
X145363639Y-70261819D01*
X145424962Y-70228334D01*
X145451320Y-70225500D01*
X153693704Y-70225500D01*
X153713103Y-70227026D01*
X153726507Y-70229150D01*
X153794530Y-70225584D01*
X153797774Y-70225500D01*
X153819306Y-70225500D01*
X153840734Y-70223247D01*
X153843943Y-70222994D01*
X153911971Y-70219430D01*
X153925073Y-70215918D01*
X153944211Y-70212372D01*
X153950036Y-70211759D01*
X153957702Y-70210954D01*
X154007104Y-70194901D01*
X154022479Y-70189906D01*
X154025563Y-70188991D01*
X154091363Y-70171362D01*
X154103451Y-70165202D01*
X154121423Y-70157757D01*
X154134331Y-70153564D01*
X154193347Y-70119489D01*
X154196117Y-70117985D01*
X154256839Y-70087047D01*
X154267391Y-70078501D01*
X154283412Y-70067490D01*
X154295169Y-70060704D01*
X154295172Y-70060700D01*
X154295174Y-70060700D01*
X154306704Y-70050317D01*
X154345812Y-70015103D01*
X154348227Y-70013042D01*
X154364986Y-69999472D01*
X154380240Y-69984216D01*
X154382542Y-69982031D01*
X154433185Y-69936434D01*
X154441165Y-69925449D01*
X154453794Y-69910662D01*
X157083774Y-67280681D01*
X157145095Y-67247198D01*
X157200398Y-67247789D01*
X157223674Y-67253378D01*
X157480000Y-67273551D01*
X157736326Y-67253378D01*
X157986340Y-67193355D01*
X158223887Y-67094960D01*
X158443116Y-66960616D01*
X158638631Y-66793631D01*
X158805616Y-66598116D01*
X158939960Y-66378887D01*
X159038355Y-66141340D01*
X159098378Y-65891326D01*
X159118551Y-65635000D01*
X159098378Y-65378674D01*
X159038355Y-65128660D01*
X159008489Y-65056555D01*
X158939960Y-64891112D01*
X158841766Y-64730876D01*
X158805616Y-64671884D01*
X158805615Y-64671883D01*
X158805614Y-64671881D01*
X158745518Y-64601518D01*
X158638631Y-64476369D01*
X158531742Y-64385078D01*
X158443118Y-64309385D01*
X158443113Y-64309382D01*
X158223887Y-64175039D01*
X157986340Y-64076644D01*
X157736322Y-64016621D01*
X157736323Y-64016621D01*
X157503940Y-63998333D01*
X157480000Y-63996449D01*
X157479999Y-63996449D01*
X157223676Y-64016621D01*
X156973659Y-64076644D01*
X156736112Y-64175039D01*
X156516886Y-64309382D01*
X156516881Y-64309385D01*
X156321369Y-64476369D01*
X156154385Y-64671881D01*
X156154382Y-64671886D01*
X156020039Y-64891112D01*
X155921644Y-65128659D01*
X155861621Y-65378676D01*
X155841449Y-65635000D01*
X155861621Y-65891323D01*
X155861622Y-65891326D01*
X155867208Y-65914595D01*
X155867209Y-65914597D01*
X155863718Y-65984380D01*
X155834316Y-66031225D01*
X153443361Y-68422181D01*
X153382038Y-68455666D01*
X153355680Y-68458500D01*
X145113296Y-68458500D01*
X145093896Y-68456973D01*
X145080493Y-68454850D01*
X145012469Y-68458415D01*
X145009226Y-68458500D01*
X144987694Y-68458500D01*
X144978574Y-68459458D01*
X144966276Y-68460750D01*
X144963044Y-68461004D01*
X144895032Y-68464569D01*
X144895027Y-68464570D01*
X144881910Y-68468084D01*
X144862798Y-68471626D01*
X144849303Y-68473045D01*
X144849291Y-68473047D01*
X144794809Y-68490749D01*
X144784534Y-68494088D01*
X144781432Y-68495007D01*
X144715642Y-68512635D01*
X144715635Y-68512638D01*
X144703537Y-68518802D01*
X144685579Y-68526240D01*
X144679278Y-68528288D01*
X144672668Y-68530436D01*
X144672663Y-68530438D01*
X144634283Y-68552597D01*
X144613672Y-68564497D01*
X144610843Y-68566033D01*
X144550159Y-68596954D01*
X144550152Y-68596958D01*
X144539604Y-68605499D01*
X144523586Y-68616508D01*
X144511832Y-68623294D01*
X144461216Y-68668867D01*
X144458752Y-68670972D01*
X144442024Y-68684519D01*
X144442004Y-68684536D01*
X144426770Y-68699770D01*
X144424420Y-68701999D01*
X144373812Y-68747567D01*
X144365831Y-68758552D01*
X144353199Y-68773341D01*
X134051338Y-79075202D01*
X134036549Y-79087834D01*
X134025568Y-79095812D01*
X134025563Y-79095817D01*
X133979999Y-79146420D01*
X133977770Y-79148770D01*
X133962536Y-79164004D01*
X133962519Y-79164024D01*
X133948972Y-79180752D01*
X133946867Y-79183216D01*
X133901294Y-79233832D01*
X133894508Y-79245586D01*
X133883499Y-79261604D01*
X133874958Y-79272152D01*
X133874954Y-79272159D01*
X133844033Y-79332843D01*
X133842497Y-79335672D01*
X133838886Y-79341928D01*
X133808438Y-79394663D01*
X133808436Y-79394668D01*
X133804242Y-79407576D01*
X133796802Y-79425537D01*
X133790638Y-79437635D01*
X133790635Y-79437642D01*
X133773007Y-79503432D01*
X133772086Y-79506543D01*
X133751047Y-79571291D01*
X133751045Y-79571303D01*
X133749626Y-79584798D01*
X133746084Y-79603910D01*
X133742570Y-79617027D01*
X133742569Y-79617032D01*
X133739004Y-79685044D01*
X133738750Y-79688276D01*
X133736500Y-79709698D01*
X133736500Y-79731224D01*
X133736415Y-79734469D01*
X133732850Y-79802493D01*
X133734940Y-79815691D01*
X133734973Y-79815895D01*
X133736500Y-79835295D01*
X133736499Y-109818680D01*
X133716814Y-109885719D01*
X133700180Y-109906361D01*
X132512361Y-111094181D01*
X132451038Y-111127666D01*
X132424680Y-111130500D01*
X130758138Y-111130500D01*
X130691099Y-111110815D01*
X130645344Y-111058011D01*
X130635400Y-110988853D01*
X130656564Y-110935376D01*
X130674403Y-110909899D01*
X130723523Y-110839749D01*
X130820284Y-110632243D01*
X130879543Y-110411087D01*
X130899498Y-110183000D01*
X130897197Y-110156704D01*
X130893796Y-110117832D01*
X130879543Y-109954913D01*
X130820284Y-109733757D01*
X130723523Y-109526251D01*
X130592198Y-109338700D01*
X130430300Y-109176802D01*
X130242749Y-109045477D01*
X130242745Y-109045475D01*
X130035249Y-108948718D01*
X130035235Y-108948713D01*
X129919770Y-108917775D01*
X129860109Y-108881410D01*
X129829580Y-108818563D01*
X129837875Y-108749188D01*
X129882360Y-108695310D01*
X129919770Y-108678225D01*
X130035243Y-108647284D01*
X130242749Y-108550523D01*
X130430300Y-108419198D01*
X130592198Y-108257300D01*
X130723523Y-108069749D01*
X130820284Y-107862243D01*
X130879543Y-107641087D01*
X130899498Y-107413000D01*
X130879543Y-107184913D01*
X130820284Y-106963757D01*
X130812515Y-106947097D01*
X130748031Y-106808809D01*
X130723523Y-106756251D01*
X130592198Y-106568700D01*
X130430300Y-106406802D01*
X130242749Y-106275477D01*
X130242745Y-106275475D01*
X130035249Y-106178718D01*
X130035235Y-106178713D01*
X129919770Y-106147775D01*
X129860109Y-106111410D01*
X129829580Y-106048563D01*
X129837875Y-105979188D01*
X129882360Y-105925310D01*
X129919770Y-105908225D01*
X130035243Y-105877284D01*
X130242749Y-105780523D01*
X130430300Y-105649198D01*
X130592198Y-105487300D01*
X130723523Y-105299749D01*
X130820284Y-105092243D01*
X130879543Y-104871087D01*
X130899498Y-104643000D01*
X130894842Y-104589787D01*
X130885611Y-104484269D01*
X130879543Y-104414913D01*
X130820284Y-104193757D01*
X130799125Y-104148382D01*
X130773302Y-104093003D01*
X130723523Y-103986251D01*
X130592198Y-103798700D01*
X130430300Y-103636802D01*
X130242749Y-103505477D01*
X130242745Y-103505475D01*
X130035249Y-103408718D01*
X130035235Y-103408713D01*
X129919770Y-103377775D01*
X129860109Y-103341410D01*
X129829580Y-103278563D01*
X129837875Y-103209188D01*
X129882360Y-103155310D01*
X129919770Y-103138225D01*
X130035243Y-103107284D01*
X130242749Y-103010523D01*
X130430300Y-102879198D01*
X130592198Y-102717300D01*
X130723523Y-102529749D01*
X130820284Y-102322243D01*
X130879543Y-102101087D01*
X130899498Y-101873000D01*
X130879543Y-101644913D01*
X130820284Y-101423757D01*
X130723523Y-101216251D01*
X130592198Y-101028700D01*
X130430300Y-100866802D01*
X130242749Y-100735477D01*
X130242745Y-100735475D01*
X130035249Y-100638718D01*
X130035235Y-100638713D01*
X129919770Y-100607775D01*
X129860109Y-100571410D01*
X129829580Y-100508563D01*
X129837875Y-100439188D01*
X129882360Y-100385310D01*
X129919770Y-100368225D01*
X130035243Y-100337284D01*
X130242749Y-100240523D01*
X130430300Y-100109198D01*
X130592198Y-99947300D01*
X130723523Y-99759749D01*
X130820284Y-99552243D01*
X130879543Y-99331087D01*
X130899498Y-99103000D01*
X130879543Y-98874913D01*
X130820284Y-98653757D01*
X130723523Y-98446251D01*
X130592198Y-98258700D01*
X130430300Y-98096802D01*
X130242749Y-97965477D01*
X130242745Y-97965475D01*
X130035249Y-97868718D01*
X130035235Y-97868713D01*
X129919770Y-97837775D01*
X129860109Y-97801410D01*
X129829580Y-97738563D01*
X129837875Y-97669188D01*
X129882360Y-97615310D01*
X129919770Y-97598225D01*
X129987204Y-97580156D01*
X130035243Y-97567284D01*
X130242749Y-97470523D01*
X130430300Y-97339198D01*
X130592198Y-97177300D01*
X130723523Y-96989749D01*
X130820284Y-96782243D01*
X130879543Y-96561087D01*
X130899498Y-96333000D01*
X130879543Y-96104913D01*
X130820284Y-95883757D01*
X130723523Y-95676251D01*
X130592198Y-95488700D01*
X130430300Y-95326802D01*
X130242749Y-95195477D01*
X130242745Y-95195475D01*
X130035249Y-95098718D01*
X130035235Y-95098713D01*
X129919770Y-95067775D01*
X129860109Y-95031410D01*
X129829580Y-94968563D01*
X129837875Y-94899188D01*
X129882360Y-94845310D01*
X129919770Y-94828225D01*
X129931627Y-94825048D01*
X130035243Y-94797284D01*
X130242749Y-94700523D01*
X130430300Y-94569198D01*
X130592198Y-94407300D01*
X130723523Y-94219749D01*
X130820284Y-94012243D01*
X130879543Y-93791087D01*
X130899498Y-93563000D01*
X130898121Y-93547265D01*
X130885611Y-93404268D01*
X130879543Y-93334913D01*
X130820284Y-93113757D01*
X130723523Y-92906251D01*
X130592198Y-92718700D01*
X130430300Y-92556802D01*
X130242749Y-92425477D01*
X130242745Y-92425475D01*
X130035249Y-92328718D01*
X130035235Y-92328713D01*
X129919770Y-92297775D01*
X129860109Y-92261410D01*
X129829580Y-92198563D01*
X129837875Y-92129188D01*
X129882360Y-92075310D01*
X129919770Y-92058225D01*
X129980591Y-92041928D01*
X130035243Y-92027284D01*
X130242749Y-91930523D01*
X130430300Y-91799198D01*
X130592198Y-91637300D01*
X130723523Y-91449749D01*
X130820284Y-91242243D01*
X130879543Y-91021087D01*
X130896647Y-90825583D01*
X130899498Y-90793001D01*
X130899498Y-90792998D01*
X130888043Y-90662073D01*
X130879543Y-90564913D01*
X130820284Y-90343757D01*
X130723523Y-90136251D01*
X130592198Y-89948700D01*
X130430300Y-89786802D01*
X130242749Y-89655477D01*
X130242745Y-89655475D01*
X130035249Y-89558718D01*
X130035235Y-89558713D01*
X129919770Y-89527775D01*
X129860109Y-89491410D01*
X129829580Y-89428563D01*
X129837875Y-89359188D01*
X129882360Y-89305310D01*
X129919770Y-89288225D01*
X130035243Y-89257284D01*
X130242749Y-89160523D01*
X130430300Y-89029198D01*
X130592198Y-88867300D01*
X130723523Y-88679749D01*
X130820284Y-88472243D01*
X130879543Y-88251087D01*
X130899498Y-88023000D01*
X130879543Y-87794913D01*
X130820284Y-87573757D01*
X130791693Y-87512444D01*
X130741890Y-87405640D01*
X130723523Y-87366251D01*
X130592198Y-87178700D01*
X130430300Y-87016802D01*
X130242749Y-86885477D01*
X130242745Y-86885475D01*
X130035249Y-86788718D01*
X130035235Y-86788713D01*
X129924066Y-86758926D01*
X129919769Y-86757774D01*
X129860109Y-86721410D01*
X129829580Y-86658563D01*
X129837875Y-86589188D01*
X129882360Y-86535310D01*
X129919770Y-86518225D01*
X130029555Y-86488808D01*
X130035243Y-86487284D01*
X130242749Y-86390523D01*
X130430300Y-86259198D01*
X130592198Y-86097300D01*
X130723523Y-85909749D01*
X130820284Y-85702243D01*
X130879543Y-85481087D01*
X130899498Y-85253000D01*
X130879543Y-85024913D01*
X130820284Y-84803757D01*
X130723523Y-84596251D01*
X130592198Y-84408700D01*
X130430300Y-84246802D01*
X130242749Y-84115477D01*
X130242745Y-84115475D01*
X130035249Y-84018718D01*
X130035235Y-84018713D01*
X129919770Y-83987775D01*
X129860109Y-83951410D01*
X129829580Y-83888563D01*
X129837875Y-83819188D01*
X129882360Y-83765310D01*
X129919770Y-83748225D01*
X129968585Y-83735145D01*
X130035243Y-83717284D01*
X130242749Y-83620523D01*
X130430300Y-83489198D01*
X130592198Y-83327300D01*
X130723523Y-83139749D01*
X130820284Y-82932243D01*
X130879543Y-82711087D01*
X130899498Y-82483000D01*
X130879543Y-82254913D01*
X130820284Y-82033757D01*
X130810631Y-82013057D01*
X130749432Y-81881814D01*
X130723523Y-81826251D01*
X130592198Y-81638700D01*
X130430300Y-81476802D01*
X130242749Y-81345477D01*
X130230652Y-81339836D01*
X130035249Y-81248718D01*
X130035235Y-81248713D01*
X129919770Y-81217775D01*
X129860109Y-81181410D01*
X129829580Y-81118563D01*
X129837875Y-81049188D01*
X129882360Y-80995310D01*
X129919770Y-80978225D01*
X130035243Y-80947284D01*
X130242749Y-80850523D01*
X130430300Y-80719198D01*
X130592198Y-80557300D01*
X130723523Y-80369749D01*
X130820284Y-80162243D01*
X130879543Y-79941087D01*
X130899498Y-79713000D01*
X130879543Y-79484913D01*
X130820284Y-79263757D01*
X130806329Y-79233831D01*
X130723524Y-79056254D01*
X130723523Y-79056252D01*
X130723523Y-79056251D01*
X130592198Y-78868700D01*
X130430300Y-78706802D01*
X130242749Y-78575477D01*
X130201154Y-78556081D01*
X130054900Y-78487882D01*
X130002460Y-78441710D01*
X129983308Y-78374517D01*
X130003524Y-78307635D01*
X130056689Y-78262301D01*
X130107304Y-78251500D01*
X130434638Y-78251500D01*
X130434654Y-78251499D01*
X130461692Y-78248591D01*
X130495201Y-78244989D01*
X130632204Y-78193889D01*
X130749261Y-78106261D01*
X130836889Y-77989204D01*
X130867531Y-77907050D01*
X130909400Y-77851119D01*
X130974865Y-77826702D01*
X130977248Y-77826555D01*
X130978291Y-77826500D01*
X130978306Y-77826500D01*
X130999734Y-77824247D01*
X131002943Y-77823994D01*
X131070971Y-77820430D01*
X131084073Y-77816918D01*
X131103211Y-77813372D01*
X131109036Y-77812759D01*
X131116702Y-77811954D01*
X131166104Y-77795901D01*
X131181479Y-77790906D01*
X131184563Y-77789991D01*
X131250363Y-77772362D01*
X131262451Y-77766202D01*
X131280423Y-77758757D01*
X131293331Y-77754564D01*
X131352347Y-77720489D01*
X131355117Y-77718985D01*
X131415839Y-77688047D01*
X131426391Y-77679501D01*
X131442412Y-77668490D01*
X131454169Y-77661704D01*
X131454172Y-77661700D01*
X131454174Y-77661700D01*
X131465704Y-77651317D01*
X131504812Y-77616103D01*
X131507227Y-77614042D01*
X131523986Y-77600472D01*
X131539240Y-77585216D01*
X131541542Y-77583031D01*
X131592185Y-77537434D01*
X131600165Y-77526449D01*
X131612794Y-77511662D01*
X141843775Y-67280681D01*
X141905096Y-67247198D01*
X141960403Y-67247790D01*
X141983674Y-67253378D01*
X142240000Y-67273551D01*
X142496326Y-67253378D01*
X142746340Y-67193355D01*
X142983887Y-67094960D01*
X143203116Y-66960616D01*
X143398631Y-66793631D01*
X143565616Y-66598116D01*
X143699960Y-66378887D01*
X143798355Y-66141340D01*
X143858378Y-65891326D01*
X143878551Y-65635000D01*
X145689975Y-65635000D01*
X145710042Y-65889989D01*
X145769752Y-66138702D01*
X145867634Y-66375012D01*
X145867636Y-66375015D01*
X146001275Y-66593095D01*
X146001286Y-66593110D01*
X146004533Y-66596911D01*
X146004535Y-66596911D01*
X146642804Y-65958642D01*
X146666059Y-66012553D01*
X146770756Y-66153185D01*
X146905062Y-66265882D01*
X146996665Y-66311886D01*
X146358087Y-66950464D01*
X146358087Y-66950465D01*
X146361888Y-66953712D01*
X146361898Y-66953719D01*
X146579984Y-67087363D01*
X146579987Y-67087365D01*
X146816297Y-67185247D01*
X147065011Y-67244957D01*
X147065010Y-67244957D01*
X147319999Y-67265024D01*
X147574989Y-67244957D01*
X147823702Y-67185247D01*
X148060012Y-67087365D01*
X148060015Y-67087363D01*
X148278103Y-66953719D01*
X148281912Y-66950464D01*
X147645945Y-66314498D01*
X147658891Y-66309787D01*
X147805373Y-66213445D01*
X147925688Y-66085918D01*
X147998447Y-65959894D01*
X148635464Y-66596912D01*
X148638719Y-66593103D01*
X148772363Y-66375015D01*
X148772365Y-66375012D01*
X148870247Y-66138702D01*
X148929957Y-65889989D01*
X148950024Y-65635000D01*
X150769975Y-65635000D01*
X150790042Y-65889989D01*
X150849752Y-66138702D01*
X150947634Y-66375012D01*
X150947636Y-66375015D01*
X151081275Y-66593095D01*
X151081286Y-66593110D01*
X151084533Y-66596911D01*
X151084535Y-66596911D01*
X151722804Y-65958642D01*
X151746059Y-66012553D01*
X151850756Y-66153185D01*
X151985062Y-66265882D01*
X152076665Y-66311886D01*
X151438087Y-66950464D01*
X151438087Y-66950465D01*
X151441888Y-66953712D01*
X151441898Y-66953719D01*
X151659984Y-67087363D01*
X151659987Y-67087365D01*
X151896297Y-67185247D01*
X152145011Y-67244957D01*
X152145010Y-67244957D01*
X152399999Y-67265024D01*
X152654989Y-67244957D01*
X152903702Y-67185247D01*
X153140012Y-67087365D01*
X153140015Y-67087363D01*
X153358103Y-66953719D01*
X153361912Y-66950464D01*
X152725945Y-66314498D01*
X152738891Y-66309787D01*
X152885373Y-66213445D01*
X153005688Y-66085918D01*
X153078447Y-65959894D01*
X153715464Y-66596912D01*
X153718719Y-66593103D01*
X153852363Y-66375015D01*
X153852365Y-66375012D01*
X153950247Y-66138702D01*
X154009957Y-65889989D01*
X154030024Y-65634999D01*
X154009957Y-65380010D01*
X153950247Y-65131297D01*
X153852365Y-64894987D01*
X153852363Y-64894984D01*
X153718719Y-64676898D01*
X153718712Y-64676888D01*
X153715465Y-64673087D01*
X153715464Y-64673087D01*
X153077195Y-65311355D01*
X153053941Y-65257447D01*
X152949244Y-65116815D01*
X152814938Y-65004118D01*
X152723334Y-64958112D01*
X153361911Y-64319535D01*
X153361911Y-64319533D01*
X153358110Y-64316286D01*
X153358095Y-64316275D01*
X153140015Y-64182636D01*
X153140012Y-64182634D01*
X152903702Y-64084752D01*
X152654988Y-64025042D01*
X152654989Y-64025042D01*
X152400000Y-64004975D01*
X152145010Y-64025042D01*
X151896297Y-64084752D01*
X151659987Y-64182634D01*
X151659984Y-64182636D01*
X151441897Y-64316280D01*
X151438087Y-64319534D01*
X152074054Y-64955501D01*
X152061109Y-64960213D01*
X151914627Y-65056555D01*
X151794312Y-65184082D01*
X151721552Y-65310105D01*
X151084534Y-64673087D01*
X151081280Y-64676897D01*
X150947636Y-64894984D01*
X150947634Y-64894987D01*
X150849752Y-65131297D01*
X150790042Y-65380010D01*
X150769975Y-65635000D01*
X148950024Y-65635000D01*
X148950024Y-65634999D01*
X148929957Y-65380010D01*
X148870247Y-65131297D01*
X148772365Y-64894987D01*
X148772363Y-64894984D01*
X148638719Y-64676898D01*
X148638712Y-64676888D01*
X148635465Y-64673087D01*
X148635464Y-64673087D01*
X147997195Y-65311355D01*
X147973941Y-65257447D01*
X147869244Y-65116815D01*
X147734938Y-65004118D01*
X147643334Y-64958112D01*
X148281911Y-64319535D01*
X148281911Y-64319533D01*
X148278110Y-64316286D01*
X148278095Y-64316275D01*
X148060015Y-64182636D01*
X148060012Y-64182634D01*
X147823702Y-64084752D01*
X147574988Y-64025042D01*
X147574989Y-64025042D01*
X147320000Y-64004975D01*
X147065010Y-64025042D01*
X146816297Y-64084752D01*
X146579987Y-64182634D01*
X146579984Y-64182636D01*
X146361897Y-64316280D01*
X146358087Y-64319534D01*
X146994054Y-64955501D01*
X146981109Y-64960213D01*
X146834627Y-65056555D01*
X146714312Y-65184082D01*
X146641552Y-65310105D01*
X146004534Y-64673087D01*
X146001280Y-64676897D01*
X145867636Y-64894984D01*
X145867634Y-64894987D01*
X145769752Y-65131297D01*
X145710042Y-65380010D01*
X145689975Y-65635000D01*
X143878551Y-65635000D01*
X143858378Y-65378674D01*
X143798355Y-65128660D01*
X143768489Y-65056555D01*
X143699960Y-64891112D01*
X143601766Y-64730876D01*
X143565616Y-64671884D01*
X143565615Y-64671883D01*
X143565614Y-64671881D01*
X143505518Y-64601518D01*
X143398631Y-64476369D01*
X143291742Y-64385078D01*
X143203118Y-64309385D01*
X143203113Y-64309382D01*
X142983887Y-64175039D01*
X142746340Y-64076644D01*
X142496322Y-64016621D01*
X142496323Y-64016621D01*
X142240000Y-63996449D01*
X141983676Y-64016621D01*
X141733659Y-64076644D01*
X141496112Y-64175039D01*
X141276886Y-64309382D01*
X141276881Y-64309385D01*
X141081369Y-64476369D01*
X140914385Y-64671881D01*
X140914382Y-64671886D01*
X140780039Y-64891112D01*
X140681644Y-65128659D01*
X140621621Y-65378676D01*
X140601449Y-65635000D01*
X140621621Y-65891321D01*
X140621621Y-65891324D01*
X140621622Y-65891326D01*
X140627208Y-65914597D01*
X140623718Y-65984378D01*
X140594316Y-66031224D01*
X130880447Y-75745093D01*
X130819124Y-75778578D01*
X130749432Y-75773594D01*
X130718455Y-75756678D01*
X130632207Y-75692112D01*
X130632206Y-75692111D01*
X130495203Y-75641011D01*
X130434654Y-75634500D01*
X130434638Y-75634500D01*
X128737362Y-75634500D01*
X128737345Y-75634500D01*
X128676797Y-75641011D01*
X128676795Y-75641011D01*
X128539795Y-75692111D01*
X128422739Y-75779739D01*
X128335111Y-75896795D01*
X128284011Y-76033795D01*
X128284011Y-76033797D01*
X128277500Y-76094345D01*
X128277500Y-77791654D01*
X128284011Y-77852202D01*
X128284011Y-77852204D01*
X128314329Y-77933486D01*
X128335111Y-77989204D01*
X128422739Y-78106261D01*
X128539796Y-78193889D01*
X128676799Y-78244989D01*
X128704050Y-78247918D01*
X128737345Y-78251499D01*
X128737362Y-78251500D01*
X129064696Y-78251500D01*
X129131735Y-78271185D01*
X129177490Y-78323989D01*
X129187434Y-78393147D01*
X129158409Y-78456703D01*
X129117100Y-78487882D01*
X128929254Y-78575475D01*
X128929252Y-78575476D01*
X128929249Y-78575477D01*
X128929251Y-78575477D01*
X128741700Y-78706802D01*
X128741698Y-78706803D01*
X128741695Y-78706806D01*
X128579806Y-78868695D01*
X128579803Y-78868698D01*
X128579802Y-78868700D01*
X128563834Y-78891505D01*
X128448476Y-79056252D01*
X128448475Y-79056254D01*
X128351718Y-79263750D01*
X128351714Y-79263761D01*
X128292457Y-79484910D01*
X128292456Y-79484918D01*
X128272502Y-79712998D01*
X128272502Y-79713001D01*
X128292456Y-79941081D01*
X128292457Y-79941089D01*
X128351714Y-80162238D01*
X128351718Y-80162249D01*
X128414666Y-80297241D01*
X128448477Y-80369749D01*
X128579802Y-80557300D01*
X128741700Y-80719198D01*
X128929251Y-80850523D01*
X129054091Y-80908736D01*
X129136750Y-80947281D01*
X129136752Y-80947281D01*
X129136757Y-80947284D01*
X129136764Y-80947286D01*
X129252230Y-80978225D01*
X129311890Y-81014590D01*
X129342419Y-81077437D01*
X129334124Y-81146813D01*
X129289639Y-81200691D01*
X129252230Y-81217775D01*
X129136761Y-81248714D01*
X129136750Y-81248718D01*
X128929254Y-81345475D01*
X128929252Y-81345476D01*
X128929249Y-81345477D01*
X128929251Y-81345477D01*
X128741700Y-81476802D01*
X128741698Y-81476803D01*
X128741695Y-81476806D01*
X128579806Y-81638695D01*
X128579803Y-81638698D01*
X128579802Y-81638700D01*
X128527964Y-81712732D01*
X128448476Y-81826252D01*
X128448475Y-81826254D01*
X128351718Y-82033750D01*
X128351714Y-82033761D01*
X128292457Y-82254910D01*
X128292456Y-82254918D01*
X128272502Y-82482998D01*
X128272502Y-82483001D01*
X128292456Y-82711081D01*
X128292457Y-82711089D01*
X128351714Y-82932238D01*
X128351718Y-82932249D01*
X128448475Y-83139745D01*
X128448477Y-83139749D01*
X128579802Y-83327300D01*
X128741700Y-83489198D01*
X128929251Y-83620523D01*
X129054091Y-83678736D01*
X129136750Y-83717281D01*
X129136752Y-83717281D01*
X129136757Y-83717284D01*
X129141015Y-83718425D01*
X129252230Y-83748225D01*
X129311890Y-83784590D01*
X129342419Y-83847437D01*
X129334124Y-83916813D01*
X129289639Y-83970691D01*
X129252230Y-83987775D01*
X129136761Y-84018714D01*
X129136750Y-84018718D01*
X128929254Y-84115475D01*
X128929252Y-84115476D01*
X128929249Y-84115477D01*
X128929251Y-84115477D01*
X128741700Y-84246802D01*
X128741698Y-84246803D01*
X128741695Y-84246806D01*
X128579806Y-84408695D01*
X128579803Y-84408698D01*
X128579802Y-84408700D01*
X128557039Y-84441209D01*
X128448476Y-84596252D01*
X128448475Y-84596254D01*
X128351718Y-84803750D01*
X128351714Y-84803761D01*
X128292457Y-85024910D01*
X128292456Y-85024918D01*
X128272502Y-85252998D01*
X128272502Y-85253001D01*
X128292456Y-85481081D01*
X128292457Y-85481089D01*
X128351714Y-85702238D01*
X128351718Y-85702249D01*
X128448475Y-85909745D01*
X128448477Y-85909749D01*
X128579802Y-86097300D01*
X128741700Y-86259198D01*
X128929251Y-86390523D01*
X128992107Y-86419833D01*
X129136750Y-86487281D01*
X129136752Y-86487281D01*
X129136757Y-86487284D01*
X129142433Y-86488805D01*
X129252230Y-86518225D01*
X129311890Y-86554590D01*
X129342419Y-86617437D01*
X129334124Y-86686813D01*
X129289639Y-86740691D01*
X129252230Y-86757774D01*
X129247934Y-86758926D01*
X129136761Y-86788714D01*
X129136750Y-86788718D01*
X128929254Y-86885475D01*
X128929252Y-86885476D01*
X128929249Y-86885477D01*
X128929251Y-86885477D01*
X128741700Y-87016802D01*
X128741698Y-87016803D01*
X128741695Y-87016806D01*
X128579806Y-87178695D01*
X128579803Y-87178698D01*
X128579802Y-87178700D01*
X128561353Y-87205048D01*
X128448476Y-87366252D01*
X128448475Y-87366254D01*
X128351718Y-87573750D01*
X128351714Y-87573761D01*
X128292457Y-87794910D01*
X128292456Y-87794918D01*
X128272502Y-88022998D01*
X128272502Y-88023001D01*
X128292456Y-88251081D01*
X128292457Y-88251089D01*
X128351714Y-88472238D01*
X128351718Y-88472249D01*
X128448475Y-88679745D01*
X128448477Y-88679749D01*
X128579802Y-88867300D01*
X128741700Y-89029198D01*
X128929251Y-89160523D01*
X129009956Y-89198156D01*
X129136750Y-89257281D01*
X129136752Y-89257281D01*
X129136757Y-89257284D01*
X129136764Y-89257286D01*
X129252230Y-89288225D01*
X129311890Y-89324590D01*
X129342419Y-89387437D01*
X129334124Y-89456813D01*
X129289639Y-89510691D01*
X129252230Y-89527775D01*
X129136761Y-89558714D01*
X129136750Y-89558718D01*
X128929254Y-89655475D01*
X128929252Y-89655476D01*
X128929249Y-89655477D01*
X128929251Y-89655477D01*
X128741700Y-89786802D01*
X128741698Y-89786803D01*
X128741695Y-89786806D01*
X128579806Y-89948695D01*
X128579803Y-89948698D01*
X128579802Y-89948700D01*
X128544488Y-89999134D01*
X128448476Y-90136252D01*
X128448475Y-90136254D01*
X128351718Y-90343750D01*
X128351714Y-90343761D01*
X128292457Y-90564910D01*
X128292456Y-90564918D01*
X128272502Y-90792998D01*
X128272502Y-90793001D01*
X128292456Y-91021081D01*
X128292457Y-91021089D01*
X128351714Y-91242238D01*
X128351718Y-91242249D01*
X128448475Y-91449745D01*
X128448477Y-91449749D01*
X128579802Y-91637300D01*
X128741700Y-91799198D01*
X128929251Y-91930523D01*
X129009956Y-91968156D01*
X129136750Y-92027281D01*
X129136752Y-92027281D01*
X129136757Y-92027284D01*
X129136764Y-92027286D01*
X129252230Y-92058225D01*
X129311890Y-92094590D01*
X129342419Y-92157437D01*
X129334124Y-92226813D01*
X129289639Y-92280691D01*
X129252230Y-92297775D01*
X129136761Y-92328714D01*
X129136750Y-92328718D01*
X128929254Y-92425475D01*
X128929252Y-92425476D01*
X128879947Y-92460000D01*
X128741700Y-92556802D01*
X128741698Y-92556803D01*
X128741695Y-92556806D01*
X128579806Y-92718695D01*
X128579803Y-92718698D01*
X128579802Y-92718700D01*
X128501534Y-92830478D01*
X128448476Y-92906252D01*
X128448475Y-92906254D01*
X128351718Y-93113750D01*
X128351714Y-93113761D01*
X128292457Y-93334910D01*
X128292456Y-93334918D01*
X128272502Y-93562998D01*
X128272502Y-93563001D01*
X128292456Y-93791081D01*
X128292457Y-93791089D01*
X128351714Y-94012238D01*
X128351718Y-94012249D01*
X128444812Y-94211890D01*
X128448477Y-94219749D01*
X128579802Y-94407300D01*
X128741700Y-94569198D01*
X128929251Y-94700523D01*
X129054091Y-94758736D01*
X129136750Y-94797281D01*
X129136752Y-94797281D01*
X129136757Y-94797284D01*
X129174454Y-94807385D01*
X129252230Y-94828225D01*
X129311890Y-94864590D01*
X129342419Y-94927437D01*
X129334124Y-94996813D01*
X129289639Y-95050691D01*
X129252230Y-95067775D01*
X129136761Y-95098714D01*
X129136750Y-95098718D01*
X128929254Y-95195475D01*
X128929252Y-95195476D01*
X128929249Y-95195477D01*
X128929251Y-95195477D01*
X128741700Y-95326802D01*
X128741698Y-95326803D01*
X128741695Y-95326806D01*
X128579806Y-95488695D01*
X128448476Y-95676252D01*
X128448475Y-95676254D01*
X128351718Y-95883750D01*
X128351714Y-95883761D01*
X128292457Y-96104910D01*
X128292456Y-96104918D01*
X128272502Y-96332998D01*
X128272502Y-96333001D01*
X128292456Y-96561081D01*
X128292457Y-96561089D01*
X128351714Y-96782238D01*
X128351718Y-96782249D01*
X128448475Y-96989745D01*
X128448477Y-96989749D01*
X128579802Y-97177300D01*
X128741700Y-97339198D01*
X128929251Y-97470523D01*
X129009956Y-97508156D01*
X129136750Y-97567281D01*
X129136752Y-97567281D01*
X129136757Y-97567284D01*
X129136764Y-97567286D01*
X129252230Y-97598225D01*
X129311890Y-97634590D01*
X129342419Y-97697437D01*
X129334124Y-97766813D01*
X129289639Y-97820691D01*
X129252230Y-97837775D01*
X129136761Y-97868714D01*
X129136750Y-97868718D01*
X128929254Y-97965475D01*
X128929252Y-97965476D01*
X128929249Y-97965477D01*
X128929251Y-97965477D01*
X128741700Y-98096802D01*
X128741698Y-98096803D01*
X128741695Y-98096806D01*
X128579806Y-98258695D01*
X128579803Y-98258698D01*
X128579802Y-98258700D01*
X128501534Y-98370478D01*
X128448476Y-98446252D01*
X128448475Y-98446254D01*
X128351718Y-98653750D01*
X128351714Y-98653761D01*
X128292457Y-98874910D01*
X128292456Y-98874918D01*
X128272502Y-99102998D01*
X128272502Y-99103001D01*
X128292456Y-99331081D01*
X128292457Y-99331089D01*
X128351714Y-99552238D01*
X128351718Y-99552249D01*
X128448475Y-99759745D01*
X128448477Y-99759749D01*
X128579802Y-99947300D01*
X128741700Y-100109198D01*
X128929251Y-100240523D01*
X129009956Y-100278156D01*
X129136750Y-100337281D01*
X129136752Y-100337281D01*
X129136757Y-100337284D01*
X129136764Y-100337286D01*
X129252230Y-100368225D01*
X129311890Y-100404590D01*
X129342419Y-100467437D01*
X129334124Y-100536813D01*
X129289639Y-100590691D01*
X129252230Y-100607775D01*
X129136761Y-100638714D01*
X129136750Y-100638718D01*
X128929254Y-100735475D01*
X128929252Y-100735476D01*
X128929249Y-100735477D01*
X128929251Y-100735477D01*
X128741700Y-100866802D01*
X128741698Y-100866803D01*
X128741695Y-100866806D01*
X128579806Y-101028695D01*
X128448476Y-101216252D01*
X128448475Y-101216254D01*
X128351718Y-101423750D01*
X128351714Y-101423761D01*
X128292457Y-101644910D01*
X128292456Y-101644918D01*
X128272502Y-101872998D01*
X128272502Y-101873001D01*
X128292456Y-102101081D01*
X128292457Y-102101089D01*
X128351714Y-102322238D01*
X128351718Y-102322249D01*
X128448475Y-102529745D01*
X128448477Y-102529749D01*
X128579802Y-102717300D01*
X128741700Y-102879198D01*
X128929251Y-103010523D01*
X129009956Y-103048156D01*
X129136750Y-103107281D01*
X129136752Y-103107281D01*
X129136757Y-103107284D01*
X129184213Y-103120000D01*
X129252230Y-103138225D01*
X129311890Y-103174590D01*
X129342419Y-103237437D01*
X129334124Y-103306813D01*
X129289639Y-103360691D01*
X129252230Y-103377775D01*
X129136761Y-103408714D01*
X129136750Y-103408718D01*
X128929254Y-103505475D01*
X128929252Y-103505476D01*
X128910235Y-103518792D01*
X128741700Y-103636802D01*
X128741698Y-103636803D01*
X128741695Y-103636806D01*
X128579806Y-103798695D01*
X128448476Y-103986252D01*
X128448475Y-103986254D01*
X128351718Y-104193750D01*
X128351714Y-104193761D01*
X128292457Y-104414910D01*
X128292456Y-104414918D01*
X128272502Y-104642998D01*
X128272502Y-104643001D01*
X128292456Y-104871081D01*
X128292457Y-104871089D01*
X128351714Y-105092238D01*
X128351718Y-105092249D01*
X128395267Y-105185640D01*
X128448477Y-105299749D01*
X128579802Y-105487300D01*
X128741700Y-105649198D01*
X128929251Y-105780523D01*
X129045975Y-105834952D01*
X129136750Y-105877281D01*
X129136752Y-105877281D01*
X129136757Y-105877284D01*
X129201679Y-105894680D01*
X129252230Y-105908225D01*
X129311890Y-105944590D01*
X129342419Y-106007437D01*
X129334124Y-106076813D01*
X129289639Y-106130691D01*
X129252230Y-106147775D01*
X129136761Y-106178714D01*
X129136750Y-106178718D01*
X128929254Y-106275475D01*
X128929252Y-106275476D01*
X128929249Y-106275477D01*
X128929251Y-106275477D01*
X128741700Y-106406802D01*
X128741698Y-106406803D01*
X128741695Y-106406806D01*
X128579806Y-106568695D01*
X128579803Y-106568698D01*
X128579802Y-106568700D01*
X128517624Y-106657499D01*
X128448476Y-106756252D01*
X128448475Y-106756254D01*
X128351718Y-106963750D01*
X128351714Y-106963761D01*
X128292457Y-107184910D01*
X128292456Y-107184918D01*
X128272502Y-107412998D01*
X128272502Y-107413001D01*
X128292456Y-107641081D01*
X128292457Y-107641089D01*
X128351714Y-107862238D01*
X128351718Y-107862249D01*
X128448475Y-108069745D01*
X128448477Y-108069749D01*
X128579802Y-108257300D01*
X128741700Y-108419198D01*
X128929251Y-108550523D01*
X129012261Y-108589231D01*
X129136750Y-108647281D01*
X129136752Y-108647281D01*
X129136757Y-108647284D01*
X129136764Y-108647286D01*
X129252230Y-108678225D01*
X129311890Y-108714590D01*
X129342419Y-108777437D01*
X129334124Y-108846813D01*
X129289639Y-108900691D01*
X129252230Y-108917775D01*
X129136761Y-108948714D01*
X129136750Y-108948718D01*
X128929254Y-109045475D01*
X128929252Y-109045476D01*
X128929249Y-109045477D01*
X128929251Y-109045477D01*
X128741700Y-109176802D01*
X128741698Y-109176803D01*
X128741695Y-109176806D01*
X128579806Y-109338695D01*
X128579803Y-109338698D01*
X128579802Y-109338700D01*
X128500545Y-109451890D01*
X128448476Y-109526252D01*
X128448475Y-109526254D01*
X128351718Y-109733750D01*
X128351714Y-109733761D01*
X128292457Y-109954910D01*
X128292456Y-109954918D01*
X128272502Y-110182998D01*
X128272502Y-110183001D01*
X128292456Y-110411081D01*
X128292457Y-110411089D01*
X128351714Y-110632238D01*
X128351718Y-110632249D01*
X128436916Y-110814957D01*
X128448477Y-110839749D01*
X128469988Y-110870470D01*
X128492315Y-110936675D01*
X128475305Y-111004443D01*
X128424357Y-111052256D01*
X128355648Y-111064934D01*
X128290991Y-111038453D01*
X128280732Y-111029274D01*
X127665818Y-110414361D01*
X127632333Y-110353038D01*
X127629499Y-110326680D01*
X127629499Y-110156704D01*
X127629499Y-109816356D01*
X127649184Y-109749321D01*
X127665809Y-109728688D01*
X127752198Y-109642300D01*
X127883523Y-109454749D01*
X127980284Y-109247243D01*
X128039543Y-109026087D01*
X128059498Y-108798000D01*
X128039543Y-108569913D01*
X127980284Y-108348757D01*
X127883523Y-108141251D01*
X127752198Y-107953700D01*
X127590300Y-107791802D01*
X127402749Y-107660477D01*
X127402745Y-107660475D01*
X127195249Y-107563718D01*
X127195235Y-107563713D01*
X127079770Y-107532775D01*
X127020109Y-107496410D01*
X126989580Y-107433563D01*
X126997875Y-107364188D01*
X127042360Y-107310310D01*
X127079770Y-107293225D01*
X127121931Y-107281928D01*
X127195243Y-107262284D01*
X127402749Y-107165523D01*
X127590300Y-107034198D01*
X127752198Y-106872300D01*
X127883523Y-106684749D01*
X127980284Y-106477243D01*
X128039543Y-106256087D01*
X128059498Y-106028000D01*
X128039543Y-105799913D01*
X127980284Y-105578757D01*
X127883523Y-105371251D01*
X127752198Y-105183700D01*
X127590300Y-105021802D01*
X127402749Y-104890477D01*
X127402745Y-104890475D01*
X127195249Y-104793718D01*
X127195237Y-104793714D01*
X127063350Y-104758375D01*
X127003690Y-104722010D01*
X126973161Y-104659163D01*
X126981456Y-104589787D01*
X127025941Y-104535909D01*
X127063351Y-104518825D01*
X127192317Y-104484269D01*
X127192331Y-104484264D01*
X127398478Y-104388136D01*
X127471472Y-104337025D01*
X126878534Y-103744086D01*
X126888315Y-103742680D01*
X127019100Y-103682952D01*
X127127761Y-103588798D01*
X127205493Y-103467844D01*
X127229077Y-103387523D01*
X127825025Y-103983472D01*
X127876136Y-103910478D01*
X127972264Y-103704331D01*
X127972269Y-103704317D01*
X128031139Y-103484610D01*
X128031141Y-103484599D01*
X128050966Y-103258002D01*
X128050966Y-103257997D01*
X128031141Y-103031400D01*
X128031139Y-103031389D01*
X127972269Y-102811682D01*
X127972265Y-102811673D01*
X127876133Y-102605516D01*
X127876131Y-102605512D01*
X127825026Y-102532526D01*
X127825025Y-102532526D01*
X127229076Y-103128474D01*
X127205493Y-103048156D01*
X127127761Y-102927202D01*
X127019100Y-102833048D01*
X126888315Y-102773320D01*
X126878531Y-102771913D01*
X127471472Y-102178973D01*
X127398483Y-102127866D01*
X127398481Y-102127865D01*
X127192326Y-102031734D01*
X127192317Y-102031730D01*
X127046932Y-101992775D01*
X126987271Y-101956410D01*
X126956742Y-101893563D01*
X126965037Y-101824188D01*
X127009522Y-101770310D01*
X127046932Y-101753225D01*
X127192317Y-101714269D01*
X127192331Y-101714264D01*
X127398478Y-101618136D01*
X127471472Y-101567025D01*
X126878534Y-100974086D01*
X126888315Y-100972680D01*
X127019100Y-100912952D01*
X127127761Y-100818798D01*
X127205493Y-100697844D01*
X127229076Y-100617523D01*
X127825025Y-101213472D01*
X127876136Y-101140478D01*
X127972264Y-100934331D01*
X127972269Y-100934317D01*
X128031139Y-100714610D01*
X128031141Y-100714599D01*
X128050966Y-100488002D01*
X128050966Y-100487997D01*
X128031141Y-100261400D01*
X128031139Y-100261389D01*
X127972269Y-100041682D01*
X127972265Y-100041673D01*
X127876133Y-99835516D01*
X127876131Y-99835512D01*
X127825026Y-99762526D01*
X127825025Y-99762526D01*
X127229076Y-100358475D01*
X127205493Y-100278156D01*
X127127761Y-100157202D01*
X127019100Y-100063048D01*
X126888315Y-100003320D01*
X126878531Y-100001913D01*
X127471472Y-99408973D01*
X127398483Y-99357866D01*
X127398481Y-99357865D01*
X127192326Y-99261734D01*
X127192317Y-99261730D01*
X127046932Y-99222775D01*
X126987271Y-99186410D01*
X126956742Y-99123563D01*
X126965037Y-99054188D01*
X127009522Y-99000310D01*
X127046932Y-98983225D01*
X127192317Y-98944269D01*
X127192331Y-98944264D01*
X127398478Y-98848136D01*
X127471472Y-98797025D01*
X126878534Y-98204086D01*
X126888315Y-98202680D01*
X127019100Y-98142952D01*
X127127761Y-98048798D01*
X127205493Y-97927844D01*
X127229076Y-97847523D01*
X127825025Y-98443472D01*
X127876136Y-98370478D01*
X127972264Y-98164331D01*
X127972269Y-98164317D01*
X128031139Y-97944610D01*
X128031141Y-97944599D01*
X128050966Y-97718002D01*
X128050966Y-97717997D01*
X128031141Y-97491400D01*
X128031139Y-97491389D01*
X127972269Y-97271682D01*
X127972265Y-97271673D01*
X127876133Y-97065516D01*
X127876131Y-97065512D01*
X127825026Y-96992526D01*
X127825025Y-96992526D01*
X127229076Y-97588475D01*
X127205493Y-97508156D01*
X127127761Y-97387202D01*
X127019100Y-97293048D01*
X126888315Y-97233320D01*
X126878531Y-97231913D01*
X127471472Y-96638973D01*
X127398483Y-96587866D01*
X127398481Y-96587865D01*
X127192326Y-96491734D01*
X127192317Y-96491730D01*
X127046932Y-96452775D01*
X126987271Y-96416410D01*
X126956742Y-96353563D01*
X126965037Y-96284188D01*
X127009522Y-96230310D01*
X127046932Y-96213225D01*
X127192317Y-96174269D01*
X127192331Y-96174264D01*
X127398478Y-96078136D01*
X127471472Y-96027025D01*
X126878534Y-95434086D01*
X126888315Y-95432680D01*
X127019100Y-95372952D01*
X127127761Y-95278798D01*
X127205493Y-95157844D01*
X127229076Y-95077523D01*
X127825025Y-95673472D01*
X127876136Y-95600478D01*
X127972264Y-95394331D01*
X127972269Y-95394317D01*
X128031139Y-95174610D01*
X128031141Y-95174599D01*
X128050966Y-94948002D01*
X128050966Y-94947997D01*
X128031141Y-94721400D01*
X128031139Y-94721389D01*
X127972269Y-94501682D01*
X127972265Y-94501673D01*
X127876133Y-94295516D01*
X127876131Y-94295512D01*
X127825026Y-94222526D01*
X127825025Y-94222526D01*
X127229076Y-94818475D01*
X127205493Y-94738156D01*
X127127761Y-94617202D01*
X127019100Y-94523048D01*
X126888315Y-94463320D01*
X126878531Y-94461913D01*
X127471472Y-93868973D01*
X127398483Y-93817866D01*
X127398481Y-93817865D01*
X127192326Y-93721734D01*
X127192317Y-93721730D01*
X127046932Y-93682775D01*
X126987271Y-93646410D01*
X126956742Y-93583563D01*
X126965037Y-93514188D01*
X127009522Y-93460310D01*
X127046932Y-93443225D01*
X127192317Y-93404269D01*
X127192331Y-93404264D01*
X127398478Y-93308136D01*
X127471472Y-93257025D01*
X126878534Y-92664086D01*
X126888315Y-92662680D01*
X127019100Y-92602952D01*
X127127761Y-92508798D01*
X127205493Y-92387844D01*
X127229076Y-92307523D01*
X127825025Y-92903472D01*
X127876136Y-92830478D01*
X127972264Y-92624331D01*
X127972269Y-92624317D01*
X128031139Y-92404610D01*
X128031141Y-92404599D01*
X128050966Y-92178002D01*
X128050966Y-92177997D01*
X128031141Y-91951400D01*
X128031139Y-91951389D01*
X127972269Y-91731682D01*
X127972265Y-91731673D01*
X127876133Y-91525516D01*
X127876131Y-91525512D01*
X127825026Y-91452526D01*
X127825025Y-91452526D01*
X127229076Y-92048475D01*
X127205493Y-91968156D01*
X127127761Y-91847202D01*
X127019100Y-91753048D01*
X126888315Y-91693320D01*
X126878533Y-91691913D01*
X127471472Y-91098974D01*
X127471471Y-91098973D01*
X127398483Y-91047866D01*
X127398481Y-91047865D01*
X127192326Y-90951734D01*
X127192319Y-90951731D01*
X127046931Y-90912774D01*
X126987271Y-90876408D01*
X126956742Y-90813561D01*
X126965037Y-90744186D01*
X127009522Y-90690308D01*
X127046932Y-90673224D01*
X127192317Y-90634269D01*
X127192331Y-90634264D01*
X127398478Y-90538136D01*
X127471472Y-90487025D01*
X126878534Y-89894086D01*
X126888315Y-89892680D01*
X127019100Y-89832952D01*
X127127761Y-89738798D01*
X127205493Y-89617844D01*
X127229076Y-89537523D01*
X127825025Y-90133472D01*
X127876136Y-90060478D01*
X127972264Y-89854331D01*
X127972269Y-89854317D01*
X128031139Y-89634610D01*
X128031141Y-89634599D01*
X128050966Y-89408002D01*
X128050966Y-89407997D01*
X128031141Y-89181400D01*
X128031139Y-89181389D01*
X127972269Y-88961682D01*
X127972265Y-88961673D01*
X127876133Y-88755516D01*
X127876131Y-88755512D01*
X127825026Y-88682526D01*
X127825025Y-88682526D01*
X127229076Y-89278475D01*
X127205493Y-89198156D01*
X127127761Y-89077202D01*
X127019100Y-88983048D01*
X126888315Y-88923320D01*
X126878533Y-88921913D01*
X127471472Y-88328974D01*
X127471471Y-88328973D01*
X127398483Y-88277866D01*
X127398481Y-88277865D01*
X127192326Y-88181734D01*
X127192320Y-88181731D01*
X127063350Y-88147174D01*
X127003690Y-88110809D01*
X126973161Y-88047962D01*
X126981456Y-87978586D01*
X127025941Y-87924708D01*
X127063347Y-87907625D01*
X127195243Y-87872284D01*
X127402749Y-87775523D01*
X127590300Y-87644198D01*
X127752198Y-87482300D01*
X127883523Y-87294749D01*
X127980284Y-87087243D01*
X128039543Y-86866087D01*
X128059498Y-86638000D01*
X128039543Y-86409913D01*
X127980284Y-86188757D01*
X127883523Y-85981251D01*
X127752198Y-85793700D01*
X127590300Y-85631802D01*
X127402749Y-85500477D01*
X127402745Y-85500475D01*
X127195249Y-85403718D01*
X127195235Y-85403713D01*
X127079770Y-85372775D01*
X127020109Y-85336410D01*
X126989580Y-85273563D01*
X126997875Y-85204188D01*
X127042360Y-85150310D01*
X127079770Y-85133225D01*
X127195243Y-85102284D01*
X127402749Y-85005523D01*
X127590300Y-84874198D01*
X127752198Y-84712300D01*
X127883523Y-84524749D01*
X127980284Y-84317243D01*
X128039543Y-84096087D01*
X128057699Y-83888563D01*
X128059498Y-83868001D01*
X128059498Y-83867998D01*
X128052201Y-83784590D01*
X128039543Y-83639913D01*
X127980284Y-83418757D01*
X127883523Y-83211251D01*
X127752198Y-83023700D01*
X127590300Y-82861802D01*
X127402749Y-82730477D01*
X127402745Y-82730475D01*
X127195249Y-82633718D01*
X127195235Y-82633713D01*
X127079770Y-82602775D01*
X127020109Y-82566410D01*
X126989580Y-82503563D01*
X126997875Y-82434188D01*
X127042360Y-82380310D01*
X127079770Y-82363225D01*
X127195243Y-82332284D01*
X127402749Y-82235523D01*
X127590300Y-82104198D01*
X127752198Y-81942300D01*
X127883523Y-81754749D01*
X127980284Y-81547243D01*
X128039543Y-81326087D01*
X128059498Y-81098000D01*
X128039543Y-80869913D01*
X127980284Y-80648757D01*
X127883523Y-80441251D01*
X127752198Y-80253700D01*
X127590300Y-80091802D01*
X127402749Y-79960477D01*
X127402745Y-79960475D01*
X127195249Y-79863718D01*
X127195235Y-79863713D01*
X127079770Y-79832775D01*
X127020109Y-79796410D01*
X126989580Y-79733563D01*
X126997875Y-79664188D01*
X127042360Y-79610310D01*
X127079770Y-79593225D01*
X127111220Y-79584798D01*
X127195243Y-79562284D01*
X127402749Y-79465523D01*
X127590300Y-79334198D01*
X127752198Y-79172300D01*
X127883523Y-78984749D01*
X127980284Y-78777243D01*
X128039543Y-78556087D01*
X128056647Y-78360583D01*
X128059498Y-78328001D01*
X128059498Y-78327998D01*
X128043116Y-78140753D01*
X128039543Y-78099913D01*
X127980284Y-77878757D01*
X127949133Y-77811954D01*
X127938888Y-77789983D01*
X127883523Y-77671251D01*
X127752198Y-77483700D01*
X127590300Y-77321802D01*
X127402749Y-77190477D01*
X127402745Y-77190475D01*
X127195249Y-77093718D01*
X127195238Y-77093714D01*
X126974089Y-77034457D01*
X126974081Y-77034456D01*
X126746002Y-77014502D01*
X126745998Y-77014502D01*
X126517918Y-77034456D01*
X126517910Y-77034457D01*
X126296761Y-77093714D01*
X126296750Y-77093718D01*
X126089254Y-77190475D01*
X126089252Y-77190476D01*
X126089249Y-77190477D01*
X126089251Y-77190477D01*
X125901700Y-77321802D01*
X125901698Y-77321803D01*
X125901695Y-77321806D01*
X125739806Y-77483695D01*
X125739803Y-77483698D01*
X125739802Y-77483700D01*
X125702177Y-77537434D01*
X125608476Y-77671252D01*
X125608475Y-77671254D01*
X125511718Y-77878750D01*
X125511714Y-77878761D01*
X125452457Y-78099910D01*
X125452456Y-78099918D01*
X125432502Y-78327998D01*
X125432502Y-78328001D01*
X125452456Y-78556081D01*
X125452457Y-78556089D01*
X125511714Y-78777238D01*
X125511718Y-78777249D01*
X125608475Y-78984745D01*
X125608477Y-78984749D01*
X125739802Y-79172300D01*
X125901700Y-79334198D01*
X126089251Y-79465523D01*
X126184633Y-79510000D01*
X126296750Y-79562281D01*
X126296752Y-79562281D01*
X126296757Y-79562284D01*
X126330397Y-79571298D01*
X126412230Y-79593225D01*
X126471890Y-79629590D01*
X126502419Y-79692437D01*
X126494124Y-79761813D01*
X126449639Y-79815691D01*
X126412230Y-79832775D01*
X126296761Y-79863714D01*
X126296750Y-79863718D01*
X126089254Y-79960475D01*
X126089252Y-79960476D01*
X126089249Y-79960477D01*
X126089251Y-79960477D01*
X125901700Y-80091802D01*
X125901698Y-80091803D01*
X125901695Y-80091806D01*
X125739806Y-80253695D01*
X125608476Y-80441252D01*
X125608475Y-80441254D01*
X125511718Y-80648750D01*
X125511714Y-80648761D01*
X125452457Y-80869910D01*
X125452456Y-80869918D01*
X125432502Y-81097998D01*
X125432502Y-81098001D01*
X125452456Y-81326081D01*
X125452457Y-81326089D01*
X125511714Y-81547238D01*
X125511718Y-81547249D01*
X125588880Y-81712723D01*
X125608477Y-81754749D01*
X125739802Y-81942300D01*
X125901700Y-82104198D01*
X126089251Y-82235523D01*
X126175933Y-82275943D01*
X126296750Y-82332281D01*
X126296752Y-82332281D01*
X126296757Y-82332284D01*
X126400462Y-82360072D01*
X126412230Y-82363225D01*
X126471890Y-82399590D01*
X126502419Y-82462437D01*
X126494124Y-82531813D01*
X126449639Y-82585691D01*
X126412230Y-82602775D01*
X126296761Y-82633714D01*
X126296750Y-82633718D01*
X126089254Y-82730475D01*
X126089252Y-82730476D01*
X126075749Y-82739931D01*
X125901700Y-82861802D01*
X125901698Y-82861803D01*
X125901695Y-82861806D01*
X125739806Y-83023695D01*
X125739803Y-83023698D01*
X125739802Y-83023700D01*
X125695519Y-83086943D01*
X125608476Y-83211252D01*
X125608475Y-83211254D01*
X125511718Y-83418750D01*
X125511714Y-83418761D01*
X125452457Y-83639910D01*
X125452456Y-83639918D01*
X125432502Y-83867998D01*
X125432502Y-83868001D01*
X125452456Y-84096081D01*
X125452457Y-84096089D01*
X125511714Y-84317238D01*
X125511718Y-84317249D01*
X125556097Y-84412420D01*
X125608477Y-84524749D01*
X125739802Y-84712300D01*
X125901700Y-84874198D01*
X126089251Y-85005523D01*
X126214091Y-85063736D01*
X126296750Y-85102281D01*
X126296752Y-85102281D01*
X126296757Y-85102284D01*
X126296764Y-85102286D01*
X126412230Y-85133225D01*
X126471890Y-85169590D01*
X126502419Y-85232437D01*
X126494124Y-85301813D01*
X126449639Y-85355691D01*
X126412230Y-85372775D01*
X126296761Y-85403714D01*
X126296750Y-85403718D01*
X126089254Y-85500475D01*
X126089252Y-85500476D01*
X126043355Y-85532614D01*
X125901700Y-85631802D01*
X125901698Y-85631803D01*
X125901695Y-85631806D01*
X125739806Y-85793695D01*
X125608476Y-85981252D01*
X125608475Y-85981254D01*
X125511718Y-86188750D01*
X125511714Y-86188761D01*
X125452457Y-86409910D01*
X125452456Y-86409918D01*
X125432502Y-86637998D01*
X125432502Y-86638001D01*
X125452456Y-86866081D01*
X125452457Y-86866089D01*
X125511714Y-87087238D01*
X125511718Y-87087249D01*
X125594704Y-87265213D01*
X125608477Y-87294749D01*
X125739802Y-87482300D01*
X125901700Y-87644198D01*
X126089251Y-87775523D01*
X126193711Y-87824233D01*
X126296750Y-87872281D01*
X126296752Y-87872281D01*
X126296757Y-87872284D01*
X126296762Y-87872285D01*
X126296764Y-87872286D01*
X126325553Y-87880000D01*
X126428649Y-87907624D01*
X126488309Y-87943989D01*
X126518838Y-88006836D01*
X126510543Y-88076211D01*
X126466058Y-88130089D01*
X126428649Y-88147174D01*
X126299680Y-88181731D01*
X126299673Y-88181734D01*
X126093513Y-88277868D01*
X126020527Y-88328972D01*
X126020526Y-88328973D01*
X126613467Y-88921913D01*
X126603685Y-88923320D01*
X126472900Y-88983048D01*
X126364239Y-89077202D01*
X126286507Y-89198156D01*
X126262923Y-89278476D01*
X125666973Y-88682526D01*
X125666972Y-88682527D01*
X125615868Y-88755513D01*
X125519734Y-88961673D01*
X125519730Y-88961682D01*
X125460860Y-89181389D01*
X125460858Y-89181400D01*
X125441034Y-89407997D01*
X125441034Y-89408002D01*
X125460858Y-89634599D01*
X125460860Y-89634610D01*
X125519730Y-89854317D01*
X125519734Y-89854326D01*
X125615865Y-90060481D01*
X125615866Y-90060483D01*
X125666973Y-90133471D01*
X125666974Y-90133472D01*
X126262922Y-89537523D01*
X126286507Y-89617844D01*
X126364239Y-89738798D01*
X126472900Y-89832952D01*
X126603685Y-89892680D01*
X126613466Y-89894086D01*
X126020526Y-90487025D01*
X126020526Y-90487026D01*
X126093512Y-90538131D01*
X126093516Y-90538133D01*
X126299673Y-90634265D01*
X126299679Y-90634268D01*
X126445068Y-90673225D01*
X126504728Y-90709590D01*
X126535257Y-90772437D01*
X126526962Y-90841813D01*
X126482477Y-90895690D01*
X126445068Y-90912775D01*
X126299679Y-90951731D01*
X126299673Y-90951734D01*
X126093513Y-91047868D01*
X126020527Y-91098972D01*
X126020526Y-91098973D01*
X126613467Y-91691913D01*
X126603685Y-91693320D01*
X126472900Y-91753048D01*
X126364239Y-91847202D01*
X126286507Y-91968156D01*
X126262923Y-92048476D01*
X125666973Y-91452526D01*
X125666972Y-91452527D01*
X125615868Y-91525513D01*
X125519734Y-91731673D01*
X125519730Y-91731682D01*
X125460860Y-91951389D01*
X125460858Y-91951400D01*
X125441034Y-92177997D01*
X125441034Y-92178002D01*
X125460858Y-92404599D01*
X125460860Y-92404610D01*
X125519730Y-92624317D01*
X125519734Y-92624326D01*
X125615865Y-92830481D01*
X125615866Y-92830483D01*
X125666973Y-92903471D01*
X125666974Y-92903472D01*
X126262922Y-92307523D01*
X126286507Y-92387844D01*
X126364239Y-92508798D01*
X126472900Y-92602952D01*
X126603685Y-92662680D01*
X126613466Y-92664086D01*
X126020526Y-93257025D01*
X126020526Y-93257026D01*
X126093512Y-93308131D01*
X126093516Y-93308133D01*
X126299673Y-93404265D01*
X126299679Y-93404268D01*
X126445068Y-93443225D01*
X126504728Y-93479590D01*
X126535257Y-93542437D01*
X126526962Y-93611813D01*
X126482477Y-93665690D01*
X126445068Y-93682775D01*
X126299679Y-93721731D01*
X126299673Y-93721734D01*
X126093513Y-93817868D01*
X126020526Y-93868973D01*
X126613465Y-94461913D01*
X126603685Y-94463320D01*
X126472900Y-94523048D01*
X126364239Y-94617202D01*
X126286507Y-94738156D01*
X126262923Y-94818476D01*
X125666973Y-94222526D01*
X125666972Y-94222527D01*
X125615868Y-94295513D01*
X125519734Y-94501673D01*
X125519730Y-94501682D01*
X125460860Y-94721389D01*
X125460858Y-94721400D01*
X125441034Y-94947997D01*
X125441034Y-94948002D01*
X125460858Y-95174599D01*
X125460860Y-95174610D01*
X125519730Y-95394317D01*
X125519734Y-95394326D01*
X125615865Y-95600481D01*
X125615866Y-95600483D01*
X125666973Y-95673471D01*
X125666974Y-95673472D01*
X126262922Y-95077523D01*
X126286507Y-95157844D01*
X126364239Y-95278798D01*
X126472900Y-95372952D01*
X126603685Y-95432680D01*
X126613466Y-95434086D01*
X126020526Y-96027025D01*
X126020526Y-96027026D01*
X126093512Y-96078131D01*
X126093516Y-96078133D01*
X126299673Y-96174265D01*
X126299679Y-96174268D01*
X126445068Y-96213225D01*
X126504728Y-96249590D01*
X126535257Y-96312437D01*
X126526962Y-96381813D01*
X126482477Y-96435690D01*
X126445068Y-96452775D01*
X126299679Y-96491731D01*
X126299673Y-96491734D01*
X126093513Y-96587868D01*
X126020526Y-96638973D01*
X126613465Y-97231913D01*
X126603685Y-97233320D01*
X126472900Y-97293048D01*
X126364239Y-97387202D01*
X126286507Y-97508156D01*
X126262923Y-97588476D01*
X125666973Y-96992526D01*
X125666972Y-96992527D01*
X125615868Y-97065513D01*
X125519734Y-97271673D01*
X125519730Y-97271682D01*
X125460860Y-97491389D01*
X125460858Y-97491400D01*
X125441034Y-97717997D01*
X125441034Y-97718002D01*
X125460858Y-97944599D01*
X125460860Y-97944610D01*
X125519730Y-98164317D01*
X125519734Y-98164326D01*
X125615865Y-98370481D01*
X125615866Y-98370483D01*
X125666973Y-98443471D01*
X125666974Y-98443472D01*
X126262922Y-97847523D01*
X126286507Y-97927844D01*
X126364239Y-98048798D01*
X126472900Y-98142952D01*
X126603685Y-98202680D01*
X126613466Y-98204086D01*
X126020526Y-98797025D01*
X126020526Y-98797026D01*
X126093512Y-98848131D01*
X126093516Y-98848133D01*
X126299673Y-98944265D01*
X126299679Y-98944268D01*
X126445068Y-98983225D01*
X126504728Y-99019590D01*
X126535257Y-99082437D01*
X126526962Y-99151813D01*
X126482477Y-99205690D01*
X126445068Y-99222775D01*
X126299679Y-99261731D01*
X126299673Y-99261734D01*
X126093513Y-99357868D01*
X126020526Y-99408973D01*
X126613465Y-100001913D01*
X126603685Y-100003320D01*
X126472900Y-100063048D01*
X126364239Y-100157202D01*
X126286507Y-100278156D01*
X126262923Y-100358476D01*
X125666973Y-99762526D01*
X125666972Y-99762527D01*
X125615868Y-99835513D01*
X125519734Y-100041673D01*
X125519730Y-100041682D01*
X125460860Y-100261389D01*
X125460858Y-100261400D01*
X125441034Y-100487997D01*
X125441034Y-100488002D01*
X125460858Y-100714599D01*
X125460860Y-100714610D01*
X125519730Y-100934317D01*
X125519734Y-100934326D01*
X125615865Y-101140481D01*
X125615866Y-101140483D01*
X125666973Y-101213471D01*
X125666974Y-101213472D01*
X126262922Y-100617523D01*
X126286507Y-100697844D01*
X126364239Y-100818798D01*
X126472900Y-100912952D01*
X126603685Y-100972680D01*
X126613466Y-100974086D01*
X126020526Y-101567025D01*
X126020526Y-101567026D01*
X126093512Y-101618131D01*
X126093516Y-101618133D01*
X126299673Y-101714265D01*
X126299679Y-101714268D01*
X126445068Y-101753225D01*
X126504728Y-101789590D01*
X126535257Y-101852437D01*
X126526962Y-101921813D01*
X126482477Y-101975690D01*
X126445068Y-101992775D01*
X126299679Y-102031731D01*
X126299673Y-102031734D01*
X126093513Y-102127868D01*
X126020526Y-102178973D01*
X126613465Y-102771913D01*
X126603685Y-102773320D01*
X126472900Y-102833048D01*
X126364239Y-102927202D01*
X126286507Y-103048156D01*
X126262923Y-103128476D01*
X125666973Y-102532526D01*
X125666972Y-102532527D01*
X125615868Y-102605513D01*
X125519734Y-102811673D01*
X125519730Y-102811682D01*
X125460860Y-103031389D01*
X125460858Y-103031400D01*
X125441034Y-103257997D01*
X125441034Y-103258002D01*
X125460858Y-103484599D01*
X125460860Y-103484610D01*
X125519730Y-103704317D01*
X125519734Y-103704326D01*
X125615865Y-103910481D01*
X125615866Y-103910483D01*
X125666973Y-103983471D01*
X125666974Y-103983472D01*
X126262922Y-103387523D01*
X126286507Y-103467844D01*
X126364239Y-103588798D01*
X126472900Y-103682952D01*
X126603685Y-103742680D01*
X126613466Y-103744086D01*
X126020526Y-104337025D01*
X126020526Y-104337026D01*
X126093512Y-104388131D01*
X126093516Y-104388133D01*
X126299673Y-104484265D01*
X126299682Y-104484269D01*
X126428648Y-104518825D01*
X126488309Y-104555190D01*
X126518838Y-104618037D01*
X126510543Y-104687412D01*
X126466058Y-104741290D01*
X126428649Y-104758375D01*
X126296762Y-104793714D01*
X126296750Y-104793718D01*
X126089254Y-104890475D01*
X126089252Y-104890476D01*
X126089249Y-104890477D01*
X126089251Y-104890477D01*
X125901700Y-105021802D01*
X125901698Y-105021803D01*
X125901695Y-105021806D01*
X125739806Y-105183695D01*
X125739803Y-105183698D01*
X125739802Y-105183700D01*
X125658546Y-105299745D01*
X125608476Y-105371252D01*
X125608475Y-105371254D01*
X125511718Y-105578750D01*
X125511714Y-105578761D01*
X125452457Y-105799910D01*
X125452456Y-105799918D01*
X125432502Y-106027998D01*
X125432502Y-106028001D01*
X125452456Y-106256081D01*
X125452457Y-106256089D01*
X125511714Y-106477238D01*
X125511718Y-106477249D01*
X125608475Y-106684745D01*
X125608477Y-106684749D01*
X125739802Y-106872300D01*
X125901700Y-107034198D01*
X126089251Y-107165523D01*
X126214091Y-107223736D01*
X126296750Y-107262281D01*
X126296752Y-107262281D01*
X126296757Y-107262284D01*
X126412231Y-107293225D01*
X126471889Y-107329588D01*
X126502419Y-107392435D01*
X126494125Y-107461811D01*
X126449640Y-107515689D01*
X126412230Y-107532774D01*
X126296762Y-107563714D01*
X126296750Y-107563718D01*
X126089254Y-107660475D01*
X126089252Y-107660476D01*
X126089249Y-107660477D01*
X126089251Y-107660477D01*
X125901700Y-107791802D01*
X125901698Y-107791803D01*
X125901695Y-107791806D01*
X125739806Y-107953695D01*
X125739803Y-107953698D01*
X125739802Y-107953700D01*
X125658546Y-108069745D01*
X125608476Y-108141252D01*
X125608475Y-108141254D01*
X125511718Y-108348750D01*
X125511714Y-108348761D01*
X125452457Y-108569910D01*
X125452456Y-108569918D01*
X125432502Y-108797998D01*
X125432502Y-108798001D01*
X121920500Y-108798001D01*
X121920500Y-70013005D01*
X126772540Y-70013005D01*
X126792357Y-70328012D01*
X126792359Y-70328020D01*
X126851505Y-70638072D01*
X126851507Y-70638077D01*
X126949044Y-70938267D01*
X126949046Y-70938272D01*
X127083436Y-71223865D01*
X127083442Y-71223876D01*
X127252561Y-71490365D01*
X127252563Y-71490368D01*
X127252568Y-71490375D01*
X127453767Y-71733582D01*
X127453772Y-71733588D01*
X127683858Y-71949652D01*
X127683868Y-71949660D01*
X127939209Y-72135176D01*
X127939214Y-72135178D01*
X127939221Y-72135184D01*
X128215821Y-72287247D01*
X128215826Y-72287249D01*
X128215828Y-72287250D01*
X128215829Y-72287251D01*
X128509294Y-72403442D01*
X128509297Y-72403443D01*
X128815021Y-72481939D01*
X128815025Y-72481940D01*
X128880717Y-72490238D01*
X129128167Y-72521499D01*
X129128176Y-72521499D01*
X129128179Y-72521500D01*
X129128181Y-72521500D01*
X129443819Y-72521500D01*
X129443821Y-72521500D01*
X129443824Y-72521499D01*
X129443832Y-72521499D01*
X129630692Y-72497892D01*
X129756975Y-72481940D01*
X130062702Y-72403443D01*
X130062705Y-72403442D01*
X130356170Y-72287251D01*
X130356171Y-72287250D01*
X130356169Y-72287250D01*
X130356179Y-72287247D01*
X130632779Y-72135184D01*
X130888140Y-71949654D01*
X131118233Y-71733582D01*
X131319432Y-71490375D01*
X131488562Y-71223869D01*
X131622956Y-70938266D01*
X131720495Y-70638072D01*
X131779641Y-70328020D01*
X131785862Y-70229150D01*
X131799460Y-70013005D01*
X131799460Y-70012994D01*
X131779642Y-69697987D01*
X131779641Y-69697980D01*
X131720495Y-69387928D01*
X131622956Y-69087734D01*
X131488562Y-68802131D01*
X131375070Y-68623296D01*
X131319438Y-68535634D01*
X131319436Y-68535632D01*
X131319432Y-68535625D01*
X131118233Y-68292418D01*
X131118232Y-68292417D01*
X131118227Y-68292411D01*
X130888141Y-68076347D01*
X130888131Y-68076339D01*
X130632790Y-67890823D01*
X130632783Y-67890818D01*
X130632779Y-67890816D01*
X130356179Y-67738753D01*
X130356176Y-67738751D01*
X130356171Y-67738749D01*
X130356170Y-67738748D01*
X130062705Y-67622557D01*
X130062702Y-67622556D01*
X129756978Y-67544060D01*
X129756965Y-67544058D01*
X129443832Y-67504500D01*
X129443821Y-67504500D01*
X129128179Y-67504500D01*
X129128167Y-67504500D01*
X128815034Y-67544058D01*
X128815021Y-67544060D01*
X128509297Y-67622556D01*
X128509294Y-67622557D01*
X128215829Y-67738748D01*
X128215828Y-67738749D01*
X127939221Y-67890816D01*
X127939209Y-67890823D01*
X127683868Y-68076339D01*
X127683858Y-68076347D01*
X127453772Y-68292411D01*
X127346417Y-68422181D01*
X127260331Y-68526242D01*
X127252561Y-68535634D01*
X127083442Y-68802123D01*
X127083436Y-68802134D01*
X126949046Y-69087727D01*
X126949044Y-69087732D01*
X126858537Y-69366283D01*
X126851505Y-69387928D01*
X126818220Y-69562409D01*
X126792357Y-69697987D01*
X126772540Y-70012994D01*
X126772540Y-70013005D01*
X121920500Y-70013005D01*
X121920500Y-60185000D01*
X135696547Y-60185000D01*
X135716339Y-60486966D01*
X135775376Y-60783766D01*
X135775378Y-60783773D01*
X135775380Y-60783779D01*
X135872644Y-61070312D01*
X135872648Y-61070322D01*
X136006488Y-61341722D01*
X136006492Y-61341729D01*
X136174612Y-61593339D01*
X136374141Y-61820858D01*
X136601660Y-62020387D01*
X136853270Y-62188507D01*
X136853277Y-62188511D01*
X137124677Y-62322351D01*
X137124687Y-62322355D01*
X137329796Y-62391979D01*
X137411234Y-62419624D01*
X137708034Y-62478661D01*
X138010000Y-62498453D01*
X138311966Y-62478661D01*
X138608766Y-62419624D01*
X138801813Y-62354093D01*
X138895312Y-62322355D01*
X138895322Y-62322351D01*
X139166727Y-62188509D01*
X139418341Y-62020386D01*
X139645858Y-61820858D01*
X139845386Y-61593341D01*
X140013509Y-61341727D01*
X140147352Y-61070320D01*
X140244624Y-60783766D01*
X140303661Y-60486966D01*
X140323453Y-60185000D01*
X140303661Y-59883034D01*
X140244624Y-59586234D01*
X140147352Y-59299680D01*
X140129500Y-59263479D01*
X140013514Y-59028283D01*
X140013505Y-59028268D01*
X140011242Y-59024881D01*
X139845386Y-58776659D01*
X139801670Y-58726811D01*
X139645858Y-58549141D01*
X139418339Y-58349612D01*
X139166729Y-58181492D01*
X139166722Y-58181488D01*
X138895322Y-58047648D01*
X138895312Y-58047644D01*
X138608779Y-57950380D01*
X138608773Y-57950378D01*
X138608766Y-57950376D01*
X138311966Y-57891339D01*
X138010000Y-57871547D01*
X138009999Y-57871547D01*
X137859017Y-57881442D01*
X137708034Y-57891339D01*
X137708028Y-57891340D01*
X137708023Y-57891341D01*
X137411239Y-57950375D01*
X137411225Y-57950378D01*
X137124684Y-58047646D01*
X137124663Y-58047655D01*
X136853283Y-58181485D01*
X136853268Y-58181494D01*
X136601657Y-58349615D01*
X136374141Y-58549141D01*
X136174615Y-58776657D01*
X136006494Y-59028268D01*
X136006485Y-59028283D01*
X135872655Y-59299663D01*
X135872646Y-59299684D01*
X135775378Y-59586225D01*
X135775376Y-59586233D01*
X135775376Y-59586234D01*
X135716339Y-59883034D01*
X135696547Y-60185000D01*
X121920500Y-60185000D01*
X121920500Y-56004500D01*
X121940185Y-55937461D01*
X121992989Y-55891706D01*
X122044500Y-55880500D01*
X163705500Y-55880500D01*
X163772539Y-55900185D01*
G37*
%TD.AperFunction*%
%TD*%
M02*
