%TF.GenerationSoftware,KiCad,Pcbnew,6.0.7-f9a2dced07~116~ubuntu20.04.1*%
%TF.CreationDate,2023-05-24T09:43:38-07:00*%
%TF.ProjectId,gw-adapters,67772d61-6461-4707-9465-72732e6b6963,rev?*%
%TF.SameCoordinates,Original*%
%TF.FileFunction,Drillmap*%
%TF.FilePolarity,Positive*%
%FSLAX45Y45*%
G04 Gerber Fmt 4.5, Leading zero omitted, Abs format (unit mm)*
G04 Created by KiCad (PCBNEW 6.0.7-f9a2dced07~116~ubuntu20.04.1) date 2023-05-24 09:43:38*
%MOMM*%
%LPD*%
G01*
G04 APERTURE LIST*
%ADD10C,0.100000*%
%ADD11C,0.200000*%
%ADD12C,0.150000*%
%ADD13C,0.230000*%
%ADD14C,0.320000*%
G04 APERTURE END LIST*
D10*
X16383000Y-5588000D02*
X12192000Y-5588000D01*
X12192000Y-5588000D02*
X12192000Y-12700000D01*
X12192000Y-12700000D02*
X16383000Y-12700000D01*
X16383000Y-12700000D02*
X16383000Y-5588000D01*
D11*
D10*
X12874000Y-7559500D02*
X12974000Y-7659500D01*
X12974000Y-7559500D02*
X12874000Y-7659500D01*
X12874000Y-7836500D02*
X12974000Y-7936500D01*
X12974000Y-7836500D02*
X12874000Y-7936500D01*
X12874000Y-8113500D02*
X12974000Y-8213500D01*
X12974000Y-8113500D02*
X12874000Y-8213500D01*
X12874000Y-8390500D02*
X12974000Y-8490500D01*
X12974000Y-8390500D02*
X12874000Y-8490500D01*
X12874000Y-8667500D02*
X12974000Y-8767500D01*
X12974000Y-8667500D02*
X12874000Y-8767500D01*
X12874000Y-8944500D02*
X12974000Y-9044500D01*
X12974000Y-8944500D02*
X12874000Y-9044500D01*
X12874000Y-9221500D02*
X12974000Y-9321500D01*
X12974000Y-9221500D02*
X12874000Y-9321500D01*
X12874000Y-9498500D02*
X12974000Y-9598500D01*
X12974000Y-9498500D02*
X12874000Y-9598500D01*
X12874000Y-9775500D02*
X12974000Y-9875500D01*
X12974000Y-9775500D02*
X12874000Y-9875500D01*
X12874000Y-10052500D02*
X12974000Y-10152500D01*
X12974000Y-10052500D02*
X12874000Y-10152500D01*
X12874000Y-10329500D02*
X12974000Y-10429500D01*
X12974000Y-10329500D02*
X12874000Y-10429500D01*
X12874000Y-10606500D02*
X12974000Y-10706500D01*
X12974000Y-10606500D02*
X12874000Y-10706500D01*
X13158000Y-7421000D02*
X13258000Y-7521000D01*
X13258000Y-7421000D02*
X13158000Y-7521000D01*
X13158000Y-7698000D02*
X13258000Y-7798000D01*
X13258000Y-7698000D02*
X13158000Y-7798000D01*
X13158000Y-7975000D02*
X13258000Y-8075000D01*
X13258000Y-7975000D02*
X13158000Y-8075000D01*
X13158000Y-8252000D02*
X13258000Y-8352000D01*
X13258000Y-8252000D02*
X13158000Y-8352000D01*
X13158000Y-8529000D02*
X13258000Y-8629000D01*
X13258000Y-8529000D02*
X13158000Y-8629000D01*
X13158000Y-8806000D02*
X13258000Y-8906000D01*
X13258000Y-8806000D02*
X13158000Y-8906000D01*
X13158000Y-9083000D02*
X13258000Y-9183000D01*
X13258000Y-9083000D02*
X13158000Y-9183000D01*
X13158000Y-9360000D02*
X13258000Y-9460000D01*
X13258000Y-9360000D02*
X13158000Y-9460000D01*
X13158000Y-9637000D02*
X13258000Y-9737000D01*
X13258000Y-9637000D02*
X13158000Y-9737000D01*
X13158000Y-9914000D02*
X13258000Y-10014000D01*
X13258000Y-9914000D02*
X13158000Y-10014000D01*
X13158000Y-10191000D02*
X13258000Y-10291000D01*
X13258000Y-10191000D02*
X13158000Y-10291000D01*
X13158000Y-10468000D02*
X13258000Y-10568000D01*
X13258000Y-10468000D02*
X13158000Y-10568000D01*
X13158000Y-10745000D02*
X13258000Y-10845000D01*
X13258000Y-10745000D02*
X13158000Y-10845000D01*
X15897500Y-7697000D02*
X15997500Y-7797000D01*
X15997500Y-7697000D02*
X15897500Y-7797000D01*
X15897500Y-7951000D02*
X15997500Y-8051000D01*
X15997500Y-7951000D02*
X15897500Y-8051000D01*
X15897500Y-8205000D02*
X15997500Y-8305000D01*
X15997500Y-8205000D02*
X15897500Y-8305000D01*
X15897500Y-8459000D02*
X15997500Y-8559000D01*
X15997500Y-8459000D02*
X15897500Y-8559000D01*
X15897500Y-8713000D02*
X15997500Y-8813000D01*
X15997500Y-8713000D02*
X15897500Y-8813000D01*
X15897500Y-8967000D02*
X15997500Y-9067000D01*
X15997500Y-8967000D02*
X15897500Y-9067000D01*
X15897500Y-9221000D02*
X15997500Y-9321000D01*
X15997500Y-9221000D02*
X15897500Y-9321000D01*
X15897500Y-9475000D02*
X15997500Y-9575000D01*
X15997500Y-9475000D02*
X15897500Y-9575000D01*
X15897500Y-9729000D02*
X15997500Y-9829000D01*
X15997500Y-9729000D02*
X15897500Y-9829000D01*
X15897500Y-9983000D02*
X15997500Y-10083000D01*
X15997500Y-9983000D02*
X15897500Y-10083000D01*
X15897500Y-10237000D02*
X15997500Y-10337000D01*
X15997500Y-10237000D02*
X15897500Y-10337000D01*
X15897500Y-10491000D02*
X15997500Y-10591000D01*
X15997500Y-10491000D02*
X15897500Y-10591000D01*
X15897500Y-10745000D02*
X15997500Y-10845000D01*
X15997500Y-10745000D02*
X15897500Y-10845000D01*
X15897500Y-10999000D02*
X15997500Y-11099000D01*
X15997500Y-10999000D02*
X15897500Y-11099000D01*
X15897500Y-11253000D02*
X15997500Y-11353000D01*
X15997500Y-11253000D02*
X15897500Y-11353000D01*
X15897500Y-11507000D02*
X15997500Y-11607000D01*
X15997500Y-11507000D02*
X15897500Y-11607000D01*
X15897500Y-11761000D02*
X15997500Y-11861000D01*
X15997500Y-11761000D02*
X15897500Y-11861000D01*
X16151500Y-7697000D02*
X16251500Y-7797000D01*
X16251500Y-7697000D02*
X16151500Y-7797000D01*
X16151500Y-7951000D02*
X16251500Y-8051000D01*
X16251500Y-7951000D02*
X16151500Y-8051000D01*
X16151500Y-8205000D02*
X16251500Y-8305000D01*
X16251500Y-8205000D02*
X16151500Y-8305000D01*
X16151500Y-8459000D02*
X16251500Y-8559000D01*
X16251500Y-8459000D02*
X16151500Y-8559000D01*
X16151500Y-8713000D02*
X16251500Y-8813000D01*
X16251500Y-8713000D02*
X16151500Y-8813000D01*
X16151500Y-8967000D02*
X16251500Y-9067000D01*
X16251500Y-8967000D02*
X16151500Y-9067000D01*
X16151500Y-9221000D02*
X16251500Y-9321000D01*
X16251500Y-9221000D02*
X16151500Y-9321000D01*
X16151500Y-9475000D02*
X16251500Y-9575000D01*
X16251500Y-9475000D02*
X16151500Y-9575000D01*
X16151500Y-9729000D02*
X16251500Y-9829000D01*
X16251500Y-9729000D02*
X16151500Y-9829000D01*
X16151500Y-9983000D02*
X16251500Y-10083000D01*
X16251500Y-9983000D02*
X16151500Y-10083000D01*
X16151500Y-10237000D02*
X16251500Y-10337000D01*
X16251500Y-10237000D02*
X16151500Y-10337000D01*
X16151500Y-10491000D02*
X16251500Y-10591000D01*
X16251500Y-10491000D02*
X16151500Y-10591000D01*
X16151500Y-10745000D02*
X16251500Y-10845000D01*
X16251500Y-10745000D02*
X16151500Y-10845000D01*
X16151500Y-10999000D02*
X16251500Y-11099000D01*
X16251500Y-10999000D02*
X16151500Y-11099000D01*
X16151500Y-11253000D02*
X16251500Y-11353000D01*
X16251500Y-11253000D02*
X16151500Y-11353000D01*
X16151500Y-11507000D02*
X16251500Y-11607000D01*
X16251500Y-11507000D02*
X16151500Y-11607000D01*
X16151500Y-11761000D02*
X16251500Y-11861000D01*
X16251500Y-11761000D02*
X16151500Y-11861000D01*
D12*
X14299000Y-6563500D02*
G75*
G03*
X14299000Y-6563500I-75000J0D01*
G01*
X14807000Y-6563500D02*
G75*
G03*
X14807000Y-6563500I-75000J0D01*
G01*
X15315000Y-6563500D02*
G75*
G03*
X15315000Y-6563500I-75000J0D01*
G01*
X15823000Y-6563500D02*
G75*
G03*
X15823000Y-6563500I-75000J0D01*
G01*
D13*
X13801000Y-5903500D02*
X13801000Y-6133500D01*
X13686000Y-6018500D02*
X13916000Y-6018500D01*
X16171000Y-5903500D02*
X16171000Y-6133500D01*
X16056000Y-6018500D02*
X16286000Y-6018500D01*
D14*
X13291138Y-6891138D02*
X13291138Y-6664862D01*
X13064862Y-6664862D01*
X13064862Y-6891138D01*
X13291138Y-6891138D01*
X13291138Y-11601138D02*
X13291138Y-11374862D01*
X13064862Y-11374862D01*
X13064862Y-11601138D01*
X13291138Y-11601138D01*
D11*
X12444619Y-13015476D02*
X12444619Y-12815476D01*
X12492238Y-12815476D01*
X12520809Y-12825000D01*
X12539857Y-12844048D01*
X12549381Y-12863095D01*
X12558905Y-12901190D01*
X12558905Y-12929762D01*
X12549381Y-12967857D01*
X12539857Y-12986905D01*
X12520809Y-13005952D01*
X12492238Y-13015476D01*
X12444619Y-13015476D01*
X12644619Y-13015476D02*
X12644619Y-12882143D01*
X12644619Y-12920238D02*
X12654143Y-12901190D01*
X12663667Y-12891667D01*
X12682714Y-12882143D01*
X12701762Y-12882143D01*
X12768428Y-13015476D02*
X12768428Y-12882143D01*
X12768428Y-12815476D02*
X12758905Y-12825000D01*
X12768428Y-12834524D01*
X12777952Y-12825000D01*
X12768428Y-12815476D01*
X12768428Y-12834524D01*
X12892238Y-13015476D02*
X12873190Y-13005952D01*
X12863667Y-12986905D01*
X12863667Y-12815476D01*
X12997000Y-13015476D02*
X12977952Y-13005952D01*
X12968428Y-12986905D01*
X12968428Y-12815476D01*
X13225571Y-13015476D02*
X13225571Y-12815476D01*
X13292238Y-12958333D01*
X13358905Y-12815476D01*
X13358905Y-13015476D01*
X13539857Y-13015476D02*
X13539857Y-12910714D01*
X13530333Y-12891667D01*
X13511286Y-12882143D01*
X13473190Y-12882143D01*
X13454143Y-12891667D01*
X13539857Y-13005952D02*
X13520809Y-13015476D01*
X13473190Y-13015476D01*
X13454143Y-13005952D01*
X13444619Y-12986905D01*
X13444619Y-12967857D01*
X13454143Y-12948809D01*
X13473190Y-12939286D01*
X13520809Y-12939286D01*
X13539857Y-12929762D01*
X13635095Y-12882143D02*
X13635095Y-13082143D01*
X13635095Y-12891667D02*
X13654143Y-12882143D01*
X13692238Y-12882143D01*
X13711286Y-12891667D01*
X13720809Y-12901190D01*
X13730333Y-12920238D01*
X13730333Y-12977381D01*
X13720809Y-12996428D01*
X13711286Y-13005952D01*
X13692238Y-13015476D01*
X13654143Y-13015476D01*
X13635095Y-13005952D01*
X13816048Y-12996428D02*
X13825571Y-13005952D01*
X13816048Y-13015476D01*
X13806524Y-13005952D01*
X13816048Y-12996428D01*
X13816048Y-13015476D01*
X13816048Y-12891667D02*
X13825571Y-12901190D01*
X13816048Y-12910714D01*
X13806524Y-12901190D01*
X13816048Y-12891667D01*
X13816048Y-12910714D01*
D10*
X12087000Y-13295000D02*
X12187000Y-13395000D01*
X12187000Y-13295000D02*
X12087000Y-13395000D01*
D11*
X12549381Y-13435476D02*
X12435095Y-13435476D01*
X12492238Y-13435476D02*
X12492238Y-13235476D01*
X12473190Y-13264048D01*
X12454143Y-13283095D01*
X12435095Y-13292619D01*
X12635095Y-13416428D02*
X12644619Y-13425952D01*
X12635095Y-13435476D01*
X12625571Y-13425952D01*
X12635095Y-13416428D01*
X12635095Y-13435476D01*
X12768428Y-13235476D02*
X12787476Y-13235476D01*
X12806524Y-13245000D01*
X12816048Y-13254524D01*
X12825571Y-13273571D01*
X12835095Y-13311667D01*
X12835095Y-13359286D01*
X12825571Y-13397381D01*
X12816048Y-13416428D01*
X12806524Y-13425952D01*
X12787476Y-13435476D01*
X12768428Y-13435476D01*
X12749381Y-13425952D01*
X12739857Y-13416428D01*
X12730333Y-13397381D01*
X12720809Y-13359286D01*
X12720809Y-13311667D01*
X12730333Y-13273571D01*
X12739857Y-13254524D01*
X12749381Y-13245000D01*
X12768428Y-13235476D01*
X12958905Y-13235476D02*
X12977952Y-13235476D01*
X12997000Y-13245000D01*
X13006524Y-13254524D01*
X13016048Y-13273571D01*
X13025571Y-13311667D01*
X13025571Y-13359286D01*
X13016048Y-13397381D01*
X13006524Y-13416428D01*
X12997000Y-13425952D01*
X12977952Y-13435476D01*
X12958905Y-13435476D01*
X12939857Y-13425952D01*
X12930333Y-13416428D01*
X12920809Y-13397381D01*
X12911286Y-13359286D01*
X12911286Y-13311667D01*
X12920809Y-13273571D01*
X12930333Y-13254524D01*
X12939857Y-13245000D01*
X12958905Y-13235476D01*
X13149381Y-13235476D02*
X13168428Y-13235476D01*
X13187476Y-13245000D01*
X13197000Y-13254524D01*
X13206524Y-13273571D01*
X13216048Y-13311667D01*
X13216048Y-13359286D01*
X13206524Y-13397381D01*
X13197000Y-13416428D01*
X13187476Y-13425952D01*
X13168428Y-13435476D01*
X13149381Y-13435476D01*
X13130333Y-13425952D01*
X13120809Y-13416428D01*
X13111286Y-13397381D01*
X13101762Y-13359286D01*
X13101762Y-13311667D01*
X13111286Y-13273571D01*
X13120809Y-13254524D01*
X13130333Y-13245000D01*
X13149381Y-13235476D01*
X13301762Y-13435476D02*
X13301762Y-13302143D01*
X13301762Y-13321190D02*
X13311286Y-13311667D01*
X13330333Y-13302143D01*
X13358905Y-13302143D01*
X13377952Y-13311667D01*
X13387476Y-13330714D01*
X13387476Y-13435476D01*
X13387476Y-13330714D02*
X13397000Y-13311667D01*
X13416048Y-13302143D01*
X13444619Y-13302143D01*
X13463667Y-13311667D01*
X13473190Y-13330714D01*
X13473190Y-13435476D01*
X13568428Y-13435476D02*
X13568428Y-13302143D01*
X13568428Y-13321190D02*
X13577952Y-13311667D01*
X13597000Y-13302143D01*
X13625571Y-13302143D01*
X13644619Y-13311667D01*
X13654143Y-13330714D01*
X13654143Y-13435476D01*
X13654143Y-13330714D02*
X13663667Y-13311667D01*
X13682714Y-13302143D01*
X13711286Y-13302143D01*
X13730333Y-13311667D01*
X13739857Y-13330714D01*
X13739857Y-13435476D01*
X14130333Y-13225952D02*
X13958905Y-13483095D01*
X14387476Y-13235476D02*
X14406524Y-13235476D01*
X14425571Y-13245000D01*
X14435095Y-13254524D01*
X14444619Y-13273571D01*
X14454143Y-13311667D01*
X14454143Y-13359286D01*
X14444619Y-13397381D01*
X14435095Y-13416428D01*
X14425571Y-13425952D01*
X14406524Y-13435476D01*
X14387476Y-13435476D01*
X14368428Y-13425952D01*
X14358905Y-13416428D01*
X14349381Y-13397381D01*
X14339857Y-13359286D01*
X14339857Y-13311667D01*
X14349381Y-13273571D01*
X14358905Y-13254524D01*
X14368428Y-13245000D01*
X14387476Y-13235476D01*
X14539857Y-13416428D02*
X14549381Y-13425952D01*
X14539857Y-13435476D01*
X14530333Y-13425952D01*
X14539857Y-13416428D01*
X14539857Y-13435476D01*
X14673190Y-13235476D02*
X14692238Y-13235476D01*
X14711286Y-13245000D01*
X14720809Y-13254524D01*
X14730333Y-13273571D01*
X14739857Y-13311667D01*
X14739857Y-13359286D01*
X14730333Y-13397381D01*
X14720809Y-13416428D01*
X14711286Y-13425952D01*
X14692238Y-13435476D01*
X14673190Y-13435476D01*
X14654143Y-13425952D01*
X14644619Y-13416428D01*
X14635095Y-13397381D01*
X14625571Y-13359286D01*
X14625571Y-13311667D01*
X14635095Y-13273571D01*
X14644619Y-13254524D01*
X14654143Y-13245000D01*
X14673190Y-13235476D01*
X14806524Y-13235476D02*
X14930333Y-13235476D01*
X14863667Y-13311667D01*
X14892238Y-13311667D01*
X14911286Y-13321190D01*
X14920809Y-13330714D01*
X14930333Y-13349762D01*
X14930333Y-13397381D01*
X14920809Y-13416428D01*
X14911286Y-13425952D01*
X14892238Y-13435476D01*
X14835095Y-13435476D01*
X14816048Y-13425952D01*
X14806524Y-13416428D01*
X15025571Y-13435476D02*
X15063667Y-13435476D01*
X15082714Y-13425952D01*
X15092238Y-13416428D01*
X15111286Y-13387857D01*
X15120809Y-13349762D01*
X15120809Y-13273571D01*
X15111286Y-13254524D01*
X15101762Y-13245000D01*
X15082714Y-13235476D01*
X15044619Y-13235476D01*
X15025571Y-13245000D01*
X15016048Y-13254524D01*
X15006524Y-13273571D01*
X15006524Y-13321190D01*
X15016048Y-13340238D01*
X15025571Y-13349762D01*
X15044619Y-13359286D01*
X15082714Y-13359286D01*
X15101762Y-13349762D01*
X15111286Y-13340238D01*
X15120809Y-13321190D01*
X15292238Y-13302143D02*
X15292238Y-13435476D01*
X15244619Y-13225952D02*
X15197000Y-13368809D01*
X15320809Y-13368809D01*
X15387476Y-13235476D02*
X15387476Y-13273571D01*
X15463667Y-13235476D02*
X15463667Y-13273571D01*
X15758905Y-13511667D02*
X15749381Y-13502143D01*
X15730333Y-13473571D01*
X15720809Y-13454524D01*
X15711286Y-13425952D01*
X15701762Y-13378333D01*
X15701762Y-13340238D01*
X15711286Y-13292619D01*
X15720809Y-13264048D01*
X15730333Y-13245000D01*
X15749381Y-13216428D01*
X15758905Y-13206905D01*
X15930333Y-13235476D02*
X15835095Y-13235476D01*
X15825571Y-13330714D01*
X15835095Y-13321190D01*
X15854143Y-13311667D01*
X15901762Y-13311667D01*
X15920809Y-13321190D01*
X15930333Y-13330714D01*
X15939857Y-13349762D01*
X15939857Y-13397381D01*
X15930333Y-13416428D01*
X15920809Y-13425952D01*
X15901762Y-13435476D01*
X15854143Y-13435476D01*
X15835095Y-13425952D01*
X15825571Y-13416428D01*
X16035095Y-13435476D02*
X16073190Y-13435476D01*
X16092238Y-13425952D01*
X16101762Y-13416428D01*
X16120809Y-13387857D01*
X16130333Y-13349762D01*
X16130333Y-13273571D01*
X16120809Y-13254524D01*
X16111286Y-13245000D01*
X16092238Y-13235476D01*
X16054143Y-13235476D01*
X16035095Y-13245000D01*
X16025571Y-13254524D01*
X16016048Y-13273571D01*
X16016048Y-13321190D01*
X16025571Y-13340238D01*
X16035095Y-13349762D01*
X16054143Y-13359286D01*
X16092238Y-13359286D01*
X16111286Y-13349762D01*
X16120809Y-13340238D01*
X16130333Y-13321190D01*
X16368428Y-13435476D02*
X16368428Y-13235476D01*
X16454143Y-13435476D02*
X16454143Y-13330714D01*
X16444619Y-13311667D01*
X16425571Y-13302143D01*
X16397000Y-13302143D01*
X16377952Y-13311667D01*
X16368428Y-13321190D01*
X16577952Y-13435476D02*
X16558905Y-13425952D01*
X16549381Y-13416428D01*
X16539857Y-13397381D01*
X16539857Y-13340238D01*
X16549381Y-13321190D01*
X16558905Y-13311667D01*
X16577952Y-13302143D01*
X16606524Y-13302143D01*
X16625571Y-13311667D01*
X16635095Y-13321190D01*
X16644619Y-13340238D01*
X16644619Y-13397381D01*
X16635095Y-13416428D01*
X16625571Y-13425952D01*
X16606524Y-13435476D01*
X16577952Y-13435476D01*
X16758905Y-13435476D02*
X16739857Y-13425952D01*
X16730333Y-13406905D01*
X16730333Y-13235476D01*
X16911286Y-13425952D02*
X16892238Y-13435476D01*
X16854143Y-13435476D01*
X16835095Y-13425952D01*
X16825571Y-13406905D01*
X16825571Y-13330714D01*
X16835095Y-13311667D01*
X16854143Y-13302143D01*
X16892238Y-13302143D01*
X16911286Y-13311667D01*
X16920810Y-13330714D01*
X16920810Y-13349762D01*
X16825571Y-13368809D01*
X16997000Y-13425952D02*
X17016048Y-13435476D01*
X17054143Y-13435476D01*
X17073190Y-13425952D01*
X17082714Y-13406905D01*
X17082714Y-13397381D01*
X17073190Y-13378333D01*
X17054143Y-13368809D01*
X17025571Y-13368809D01*
X17006524Y-13359286D01*
X16997000Y-13340238D01*
X16997000Y-13330714D01*
X17006524Y-13311667D01*
X17025571Y-13302143D01*
X17054143Y-13302143D01*
X17073190Y-13311667D01*
X17149381Y-13511667D02*
X17158905Y-13502143D01*
X17177952Y-13473571D01*
X17187476Y-13454524D01*
X17197000Y-13425952D01*
X17206524Y-13378333D01*
X17206524Y-13340238D01*
X17197000Y-13292619D01*
X17187476Y-13264048D01*
X17177952Y-13245000D01*
X17158905Y-13216428D01*
X17149381Y-13206905D01*
D12*
X12187000Y-13609000D02*
G75*
G03*
X12187000Y-13609000I-75000J0D01*
G01*
D11*
X12549381Y-13699476D02*
X12435095Y-13699476D01*
X12492238Y-13699476D02*
X12492238Y-13499476D01*
X12473190Y-13528048D01*
X12454143Y-13547095D01*
X12435095Y-13556619D01*
X12635095Y-13680428D02*
X12644619Y-13689952D01*
X12635095Y-13699476D01*
X12625571Y-13689952D01*
X12635095Y-13680428D01*
X12635095Y-13699476D01*
X12825571Y-13499476D02*
X12730333Y-13499476D01*
X12720809Y-13594714D01*
X12730333Y-13585190D01*
X12749381Y-13575667D01*
X12797000Y-13575667D01*
X12816048Y-13585190D01*
X12825571Y-13594714D01*
X12835095Y-13613762D01*
X12835095Y-13661381D01*
X12825571Y-13680428D01*
X12816048Y-13689952D01*
X12797000Y-13699476D01*
X12749381Y-13699476D01*
X12730333Y-13689952D01*
X12720809Y-13680428D01*
X12958905Y-13499476D02*
X12977952Y-13499476D01*
X12997000Y-13509000D01*
X13006524Y-13518524D01*
X13016048Y-13537571D01*
X13025571Y-13575667D01*
X13025571Y-13623286D01*
X13016048Y-13661381D01*
X13006524Y-13680428D01*
X12997000Y-13689952D01*
X12977952Y-13699476D01*
X12958905Y-13699476D01*
X12939857Y-13689952D01*
X12930333Y-13680428D01*
X12920809Y-13661381D01*
X12911286Y-13623286D01*
X12911286Y-13575667D01*
X12920809Y-13537571D01*
X12930333Y-13518524D01*
X12939857Y-13509000D01*
X12958905Y-13499476D01*
X13149381Y-13499476D02*
X13168428Y-13499476D01*
X13187476Y-13509000D01*
X13197000Y-13518524D01*
X13206524Y-13537571D01*
X13216048Y-13575667D01*
X13216048Y-13623286D01*
X13206524Y-13661381D01*
X13197000Y-13680428D01*
X13187476Y-13689952D01*
X13168428Y-13699476D01*
X13149381Y-13699476D01*
X13130333Y-13689952D01*
X13120809Y-13680428D01*
X13111286Y-13661381D01*
X13101762Y-13623286D01*
X13101762Y-13575667D01*
X13111286Y-13537571D01*
X13120809Y-13518524D01*
X13130333Y-13509000D01*
X13149381Y-13499476D01*
X13301762Y-13699476D02*
X13301762Y-13566143D01*
X13301762Y-13585190D02*
X13311286Y-13575667D01*
X13330333Y-13566143D01*
X13358905Y-13566143D01*
X13377952Y-13575667D01*
X13387476Y-13594714D01*
X13387476Y-13699476D01*
X13387476Y-13594714D02*
X13397000Y-13575667D01*
X13416048Y-13566143D01*
X13444619Y-13566143D01*
X13463667Y-13575667D01*
X13473190Y-13594714D01*
X13473190Y-13699476D01*
X13568428Y-13699476D02*
X13568428Y-13566143D01*
X13568428Y-13585190D02*
X13577952Y-13575667D01*
X13597000Y-13566143D01*
X13625571Y-13566143D01*
X13644619Y-13575667D01*
X13654143Y-13594714D01*
X13654143Y-13699476D01*
X13654143Y-13594714D02*
X13663667Y-13575667D01*
X13682714Y-13566143D01*
X13711286Y-13566143D01*
X13730333Y-13575667D01*
X13739857Y-13594714D01*
X13739857Y-13699476D01*
X14130333Y-13489952D02*
X13958905Y-13747095D01*
X14387476Y-13499476D02*
X14406524Y-13499476D01*
X14425571Y-13509000D01*
X14435095Y-13518524D01*
X14444619Y-13537571D01*
X14454143Y-13575667D01*
X14454143Y-13623286D01*
X14444619Y-13661381D01*
X14435095Y-13680428D01*
X14425571Y-13689952D01*
X14406524Y-13699476D01*
X14387476Y-13699476D01*
X14368428Y-13689952D01*
X14358905Y-13680428D01*
X14349381Y-13661381D01*
X14339857Y-13623286D01*
X14339857Y-13575667D01*
X14349381Y-13537571D01*
X14358905Y-13518524D01*
X14368428Y-13509000D01*
X14387476Y-13499476D01*
X14539857Y-13680428D02*
X14549381Y-13689952D01*
X14539857Y-13699476D01*
X14530333Y-13689952D01*
X14539857Y-13680428D01*
X14539857Y-13699476D01*
X14673190Y-13499476D02*
X14692238Y-13499476D01*
X14711286Y-13509000D01*
X14720809Y-13518524D01*
X14730333Y-13537571D01*
X14739857Y-13575667D01*
X14739857Y-13623286D01*
X14730333Y-13661381D01*
X14720809Y-13680428D01*
X14711286Y-13689952D01*
X14692238Y-13699476D01*
X14673190Y-13699476D01*
X14654143Y-13689952D01*
X14644619Y-13680428D01*
X14635095Y-13661381D01*
X14625571Y-13623286D01*
X14625571Y-13575667D01*
X14635095Y-13537571D01*
X14644619Y-13518524D01*
X14654143Y-13509000D01*
X14673190Y-13499476D01*
X14920809Y-13499476D02*
X14825571Y-13499476D01*
X14816048Y-13594714D01*
X14825571Y-13585190D01*
X14844619Y-13575667D01*
X14892238Y-13575667D01*
X14911286Y-13585190D01*
X14920809Y-13594714D01*
X14930333Y-13613762D01*
X14930333Y-13661381D01*
X14920809Y-13680428D01*
X14911286Y-13689952D01*
X14892238Y-13699476D01*
X14844619Y-13699476D01*
X14825571Y-13689952D01*
X14816048Y-13680428D01*
X15025571Y-13699476D02*
X15063667Y-13699476D01*
X15082714Y-13689952D01*
X15092238Y-13680428D01*
X15111286Y-13651857D01*
X15120809Y-13613762D01*
X15120809Y-13537571D01*
X15111286Y-13518524D01*
X15101762Y-13509000D01*
X15082714Y-13499476D01*
X15044619Y-13499476D01*
X15025571Y-13509000D01*
X15016048Y-13518524D01*
X15006524Y-13537571D01*
X15006524Y-13585190D01*
X15016048Y-13604238D01*
X15025571Y-13613762D01*
X15044619Y-13623286D01*
X15082714Y-13623286D01*
X15101762Y-13613762D01*
X15111286Y-13604238D01*
X15120809Y-13585190D01*
X15311286Y-13699476D02*
X15197000Y-13699476D01*
X15254143Y-13699476D02*
X15254143Y-13499476D01*
X15235095Y-13528048D01*
X15216048Y-13547095D01*
X15197000Y-13556619D01*
X15387476Y-13499476D02*
X15387476Y-13537571D01*
X15463667Y-13499476D02*
X15463667Y-13537571D01*
X15758905Y-13775667D02*
X15749381Y-13766143D01*
X15730333Y-13737571D01*
X15720809Y-13718524D01*
X15711286Y-13689952D01*
X15701762Y-13642333D01*
X15701762Y-13604238D01*
X15711286Y-13556619D01*
X15720809Y-13528048D01*
X15730333Y-13509000D01*
X15749381Y-13480428D01*
X15758905Y-13470905D01*
X15920809Y-13566143D02*
X15920809Y-13699476D01*
X15873190Y-13489952D02*
X15825571Y-13632809D01*
X15949381Y-13632809D01*
X16177952Y-13699476D02*
X16177952Y-13499476D01*
X16263667Y-13699476D02*
X16263667Y-13594714D01*
X16254143Y-13575667D01*
X16235095Y-13566143D01*
X16206524Y-13566143D01*
X16187476Y-13575667D01*
X16177952Y-13585190D01*
X16387476Y-13699476D02*
X16368428Y-13689952D01*
X16358905Y-13680428D01*
X16349381Y-13661381D01*
X16349381Y-13604238D01*
X16358905Y-13585190D01*
X16368428Y-13575667D01*
X16387476Y-13566143D01*
X16416048Y-13566143D01*
X16435095Y-13575667D01*
X16444619Y-13585190D01*
X16454143Y-13604238D01*
X16454143Y-13661381D01*
X16444619Y-13680428D01*
X16435095Y-13689952D01*
X16416048Y-13699476D01*
X16387476Y-13699476D01*
X16568428Y-13699476D02*
X16549381Y-13689952D01*
X16539857Y-13670905D01*
X16539857Y-13499476D01*
X16720809Y-13689952D02*
X16701762Y-13699476D01*
X16663667Y-13699476D01*
X16644619Y-13689952D01*
X16635095Y-13670905D01*
X16635095Y-13594714D01*
X16644619Y-13575667D01*
X16663667Y-13566143D01*
X16701762Y-13566143D01*
X16720809Y-13575667D01*
X16730333Y-13594714D01*
X16730333Y-13613762D01*
X16635095Y-13632809D01*
X16806524Y-13689952D02*
X16825571Y-13699476D01*
X16863667Y-13699476D01*
X16882714Y-13689952D01*
X16892238Y-13670905D01*
X16892238Y-13661381D01*
X16882714Y-13642333D01*
X16863667Y-13632809D01*
X16835095Y-13632809D01*
X16816048Y-13623286D01*
X16806524Y-13604238D01*
X16806524Y-13594714D01*
X16816048Y-13575667D01*
X16835095Y-13566143D01*
X16863667Y-13566143D01*
X16882714Y-13575667D01*
X16958905Y-13775667D02*
X16968429Y-13766143D01*
X16987476Y-13737571D01*
X16997000Y-13718524D01*
X17006524Y-13689952D01*
X17016048Y-13642333D01*
X17016048Y-13604238D01*
X17006524Y-13556619D01*
X16997000Y-13528048D01*
X16987476Y-13509000D01*
X16968429Y-13480428D01*
X16958905Y-13470905D01*
X12087000Y-13779000D02*
X12087000Y-13979000D01*
X11987000Y-13879000D02*
X12187000Y-13879000D01*
X12435095Y-13788524D02*
X12444619Y-13779000D01*
X12463667Y-13769476D01*
X12511286Y-13769476D01*
X12530333Y-13779000D01*
X12539857Y-13788524D01*
X12549381Y-13807571D01*
X12549381Y-13826619D01*
X12539857Y-13855190D01*
X12425571Y-13969476D01*
X12549381Y-13969476D01*
X12635095Y-13950428D02*
X12644619Y-13959952D01*
X12635095Y-13969476D01*
X12625571Y-13959952D01*
X12635095Y-13950428D01*
X12635095Y-13969476D01*
X12711286Y-13769476D02*
X12835095Y-13769476D01*
X12768428Y-13845667D01*
X12797000Y-13845667D01*
X12816048Y-13855190D01*
X12825571Y-13864714D01*
X12835095Y-13883762D01*
X12835095Y-13931381D01*
X12825571Y-13950428D01*
X12816048Y-13959952D01*
X12797000Y-13969476D01*
X12739857Y-13969476D01*
X12720809Y-13959952D01*
X12711286Y-13950428D01*
X12958905Y-13769476D02*
X12977952Y-13769476D01*
X12997000Y-13779000D01*
X13006524Y-13788524D01*
X13016048Y-13807571D01*
X13025571Y-13845667D01*
X13025571Y-13893286D01*
X13016048Y-13931381D01*
X13006524Y-13950428D01*
X12997000Y-13959952D01*
X12977952Y-13969476D01*
X12958905Y-13969476D01*
X12939857Y-13959952D01*
X12930333Y-13950428D01*
X12920809Y-13931381D01*
X12911286Y-13893286D01*
X12911286Y-13845667D01*
X12920809Y-13807571D01*
X12930333Y-13788524D01*
X12939857Y-13779000D01*
X12958905Y-13769476D01*
X13149381Y-13769476D02*
X13168428Y-13769476D01*
X13187476Y-13779000D01*
X13197000Y-13788524D01*
X13206524Y-13807571D01*
X13216048Y-13845667D01*
X13216048Y-13893286D01*
X13206524Y-13931381D01*
X13197000Y-13950428D01*
X13187476Y-13959952D01*
X13168428Y-13969476D01*
X13149381Y-13969476D01*
X13130333Y-13959952D01*
X13120809Y-13950428D01*
X13111286Y-13931381D01*
X13101762Y-13893286D01*
X13101762Y-13845667D01*
X13111286Y-13807571D01*
X13120809Y-13788524D01*
X13130333Y-13779000D01*
X13149381Y-13769476D01*
X13301762Y-13969476D02*
X13301762Y-13836143D01*
X13301762Y-13855190D02*
X13311286Y-13845667D01*
X13330333Y-13836143D01*
X13358905Y-13836143D01*
X13377952Y-13845667D01*
X13387476Y-13864714D01*
X13387476Y-13969476D01*
X13387476Y-13864714D02*
X13397000Y-13845667D01*
X13416048Y-13836143D01*
X13444619Y-13836143D01*
X13463667Y-13845667D01*
X13473190Y-13864714D01*
X13473190Y-13969476D01*
X13568428Y-13969476D02*
X13568428Y-13836143D01*
X13568428Y-13855190D02*
X13577952Y-13845667D01*
X13597000Y-13836143D01*
X13625571Y-13836143D01*
X13644619Y-13845667D01*
X13654143Y-13864714D01*
X13654143Y-13969476D01*
X13654143Y-13864714D02*
X13663667Y-13845667D01*
X13682714Y-13836143D01*
X13711286Y-13836143D01*
X13730333Y-13845667D01*
X13739857Y-13864714D01*
X13739857Y-13969476D01*
X14130333Y-13759952D02*
X13958905Y-14017095D01*
X14387476Y-13769476D02*
X14406524Y-13769476D01*
X14425571Y-13779000D01*
X14435095Y-13788524D01*
X14444619Y-13807571D01*
X14454143Y-13845667D01*
X14454143Y-13893286D01*
X14444619Y-13931381D01*
X14435095Y-13950428D01*
X14425571Y-13959952D01*
X14406524Y-13969476D01*
X14387476Y-13969476D01*
X14368428Y-13959952D01*
X14358905Y-13950428D01*
X14349381Y-13931381D01*
X14339857Y-13893286D01*
X14339857Y-13845667D01*
X14349381Y-13807571D01*
X14358905Y-13788524D01*
X14368428Y-13779000D01*
X14387476Y-13769476D01*
X14539857Y-13950428D02*
X14549381Y-13959952D01*
X14539857Y-13969476D01*
X14530333Y-13959952D01*
X14539857Y-13950428D01*
X14539857Y-13969476D01*
X14673190Y-13769476D02*
X14692238Y-13769476D01*
X14711286Y-13779000D01*
X14720809Y-13788524D01*
X14730333Y-13807571D01*
X14739857Y-13845667D01*
X14739857Y-13893286D01*
X14730333Y-13931381D01*
X14720809Y-13950428D01*
X14711286Y-13959952D01*
X14692238Y-13969476D01*
X14673190Y-13969476D01*
X14654143Y-13959952D01*
X14644619Y-13950428D01*
X14635095Y-13931381D01*
X14625571Y-13893286D01*
X14625571Y-13845667D01*
X14635095Y-13807571D01*
X14644619Y-13788524D01*
X14654143Y-13779000D01*
X14673190Y-13769476D01*
X14835095Y-13969476D02*
X14873190Y-13969476D01*
X14892238Y-13959952D01*
X14901762Y-13950428D01*
X14920809Y-13921857D01*
X14930333Y-13883762D01*
X14930333Y-13807571D01*
X14920809Y-13788524D01*
X14911286Y-13779000D01*
X14892238Y-13769476D01*
X14854143Y-13769476D01*
X14835095Y-13779000D01*
X14825571Y-13788524D01*
X14816048Y-13807571D01*
X14816048Y-13855190D01*
X14825571Y-13874238D01*
X14835095Y-13883762D01*
X14854143Y-13893286D01*
X14892238Y-13893286D01*
X14911286Y-13883762D01*
X14920809Y-13874238D01*
X14930333Y-13855190D01*
X15054143Y-13769476D02*
X15073190Y-13769476D01*
X15092238Y-13779000D01*
X15101762Y-13788524D01*
X15111286Y-13807571D01*
X15120809Y-13845667D01*
X15120809Y-13893286D01*
X15111286Y-13931381D01*
X15101762Y-13950428D01*
X15092238Y-13959952D01*
X15073190Y-13969476D01*
X15054143Y-13969476D01*
X15035095Y-13959952D01*
X15025571Y-13950428D01*
X15016048Y-13931381D01*
X15006524Y-13893286D01*
X15006524Y-13845667D01*
X15016048Y-13807571D01*
X15025571Y-13788524D01*
X15035095Y-13779000D01*
X15054143Y-13769476D01*
X15292238Y-13769476D02*
X15254143Y-13769476D01*
X15235095Y-13779000D01*
X15225571Y-13788524D01*
X15206524Y-13817095D01*
X15197000Y-13855190D01*
X15197000Y-13931381D01*
X15206524Y-13950428D01*
X15216048Y-13959952D01*
X15235095Y-13969476D01*
X15273190Y-13969476D01*
X15292238Y-13959952D01*
X15301762Y-13950428D01*
X15311286Y-13931381D01*
X15311286Y-13883762D01*
X15301762Y-13864714D01*
X15292238Y-13855190D01*
X15273190Y-13845667D01*
X15235095Y-13845667D01*
X15216048Y-13855190D01*
X15206524Y-13864714D01*
X15197000Y-13883762D01*
X15387476Y-13769476D02*
X15387476Y-13807571D01*
X15463667Y-13769476D02*
X15463667Y-13807571D01*
X15758905Y-14045667D02*
X15749381Y-14036143D01*
X15730333Y-14007571D01*
X15720809Y-13988524D01*
X15711286Y-13959952D01*
X15701762Y-13912333D01*
X15701762Y-13874238D01*
X15711286Y-13826619D01*
X15720809Y-13798048D01*
X15730333Y-13779000D01*
X15749381Y-13750428D01*
X15758905Y-13740905D01*
X15825571Y-13788524D02*
X15835095Y-13779000D01*
X15854143Y-13769476D01*
X15901762Y-13769476D01*
X15920809Y-13779000D01*
X15930333Y-13788524D01*
X15939857Y-13807571D01*
X15939857Y-13826619D01*
X15930333Y-13855190D01*
X15816048Y-13969476D01*
X15939857Y-13969476D01*
X16177952Y-13969476D02*
X16177952Y-13769476D01*
X16263667Y-13969476D02*
X16263667Y-13864714D01*
X16254143Y-13845667D01*
X16235095Y-13836143D01*
X16206524Y-13836143D01*
X16187476Y-13845667D01*
X16177952Y-13855190D01*
X16387476Y-13969476D02*
X16368428Y-13959952D01*
X16358905Y-13950428D01*
X16349381Y-13931381D01*
X16349381Y-13874238D01*
X16358905Y-13855190D01*
X16368428Y-13845667D01*
X16387476Y-13836143D01*
X16416048Y-13836143D01*
X16435095Y-13845667D01*
X16444619Y-13855190D01*
X16454143Y-13874238D01*
X16454143Y-13931381D01*
X16444619Y-13950428D01*
X16435095Y-13959952D01*
X16416048Y-13969476D01*
X16387476Y-13969476D01*
X16568428Y-13969476D02*
X16549381Y-13959952D01*
X16539857Y-13940905D01*
X16539857Y-13769476D01*
X16720809Y-13959952D02*
X16701762Y-13969476D01*
X16663667Y-13969476D01*
X16644619Y-13959952D01*
X16635095Y-13940905D01*
X16635095Y-13864714D01*
X16644619Y-13845667D01*
X16663667Y-13836143D01*
X16701762Y-13836143D01*
X16720809Y-13845667D01*
X16730333Y-13864714D01*
X16730333Y-13883762D01*
X16635095Y-13902809D01*
X16806524Y-13959952D02*
X16825571Y-13969476D01*
X16863667Y-13969476D01*
X16882714Y-13959952D01*
X16892238Y-13940905D01*
X16892238Y-13931381D01*
X16882714Y-13912333D01*
X16863667Y-13902809D01*
X16835095Y-13902809D01*
X16816048Y-13893286D01*
X16806524Y-13874238D01*
X16806524Y-13864714D01*
X16816048Y-13845667D01*
X16835095Y-13836143D01*
X16863667Y-13836143D01*
X16882714Y-13845667D01*
X16958905Y-14045667D02*
X16968429Y-14036143D01*
X16987476Y-14007571D01*
X16997000Y-13988524D01*
X17006524Y-13959952D01*
X17016048Y-13912333D01*
X17016048Y-13874238D01*
X17006524Y-13826619D01*
X16997000Y-13798048D01*
X16987476Y-13779000D01*
X16968429Y-13750428D01*
X16958905Y-13740905D01*
X12157711Y-14269711D02*
X12157711Y-14128289D01*
X12016289Y-14128289D01*
X12016289Y-14269711D01*
X12157711Y-14269711D01*
X12425571Y-14089476D02*
X12549381Y-14089476D01*
X12482714Y-14165667D01*
X12511286Y-14165667D01*
X12530333Y-14175190D01*
X12539857Y-14184714D01*
X12549381Y-14203762D01*
X12549381Y-14251381D01*
X12539857Y-14270428D01*
X12530333Y-14279952D01*
X12511286Y-14289476D01*
X12454143Y-14289476D01*
X12435095Y-14279952D01*
X12425571Y-14270428D01*
X12635095Y-14270428D02*
X12644619Y-14279952D01*
X12635095Y-14289476D01*
X12625571Y-14279952D01*
X12635095Y-14270428D01*
X12635095Y-14289476D01*
X12720809Y-14108524D02*
X12730333Y-14099000D01*
X12749381Y-14089476D01*
X12797000Y-14089476D01*
X12816048Y-14099000D01*
X12825571Y-14108524D01*
X12835095Y-14127571D01*
X12835095Y-14146619D01*
X12825571Y-14175190D01*
X12711286Y-14289476D01*
X12835095Y-14289476D01*
X12958905Y-14089476D02*
X12977952Y-14089476D01*
X12997000Y-14099000D01*
X13006524Y-14108524D01*
X13016048Y-14127571D01*
X13025571Y-14165667D01*
X13025571Y-14213286D01*
X13016048Y-14251381D01*
X13006524Y-14270428D01*
X12997000Y-14279952D01*
X12977952Y-14289476D01*
X12958905Y-14289476D01*
X12939857Y-14279952D01*
X12930333Y-14270428D01*
X12920809Y-14251381D01*
X12911286Y-14213286D01*
X12911286Y-14165667D01*
X12920809Y-14127571D01*
X12930333Y-14108524D01*
X12939857Y-14099000D01*
X12958905Y-14089476D01*
X13149381Y-14089476D02*
X13168428Y-14089476D01*
X13187476Y-14099000D01*
X13197000Y-14108524D01*
X13206524Y-14127571D01*
X13216048Y-14165667D01*
X13216048Y-14213286D01*
X13206524Y-14251381D01*
X13197000Y-14270428D01*
X13187476Y-14279952D01*
X13168428Y-14289476D01*
X13149381Y-14289476D01*
X13130333Y-14279952D01*
X13120809Y-14270428D01*
X13111286Y-14251381D01*
X13101762Y-14213286D01*
X13101762Y-14165667D01*
X13111286Y-14127571D01*
X13120809Y-14108524D01*
X13130333Y-14099000D01*
X13149381Y-14089476D01*
X13301762Y-14289476D02*
X13301762Y-14156143D01*
X13301762Y-14175190D02*
X13311286Y-14165667D01*
X13330333Y-14156143D01*
X13358905Y-14156143D01*
X13377952Y-14165667D01*
X13387476Y-14184714D01*
X13387476Y-14289476D01*
X13387476Y-14184714D02*
X13397000Y-14165667D01*
X13416048Y-14156143D01*
X13444619Y-14156143D01*
X13463667Y-14165667D01*
X13473190Y-14184714D01*
X13473190Y-14289476D01*
X13568428Y-14289476D02*
X13568428Y-14156143D01*
X13568428Y-14175190D02*
X13577952Y-14165667D01*
X13597000Y-14156143D01*
X13625571Y-14156143D01*
X13644619Y-14165667D01*
X13654143Y-14184714D01*
X13654143Y-14289476D01*
X13654143Y-14184714D02*
X13663667Y-14165667D01*
X13682714Y-14156143D01*
X13711286Y-14156143D01*
X13730333Y-14165667D01*
X13739857Y-14184714D01*
X13739857Y-14289476D01*
X14130333Y-14079952D02*
X13958905Y-14337095D01*
X14387476Y-14089476D02*
X14406524Y-14089476D01*
X14425571Y-14099000D01*
X14435095Y-14108524D01*
X14444619Y-14127571D01*
X14454143Y-14165667D01*
X14454143Y-14213286D01*
X14444619Y-14251381D01*
X14435095Y-14270428D01*
X14425571Y-14279952D01*
X14406524Y-14289476D01*
X14387476Y-14289476D01*
X14368428Y-14279952D01*
X14358905Y-14270428D01*
X14349381Y-14251381D01*
X14339857Y-14213286D01*
X14339857Y-14165667D01*
X14349381Y-14127571D01*
X14358905Y-14108524D01*
X14368428Y-14099000D01*
X14387476Y-14089476D01*
X14539857Y-14270428D02*
X14549381Y-14279952D01*
X14539857Y-14289476D01*
X14530333Y-14279952D01*
X14539857Y-14270428D01*
X14539857Y-14289476D01*
X14739857Y-14289476D02*
X14625571Y-14289476D01*
X14682714Y-14289476D02*
X14682714Y-14089476D01*
X14663667Y-14118048D01*
X14644619Y-14137095D01*
X14625571Y-14146619D01*
X14816048Y-14108524D02*
X14825571Y-14099000D01*
X14844619Y-14089476D01*
X14892238Y-14089476D01*
X14911286Y-14099000D01*
X14920809Y-14108524D01*
X14930333Y-14127571D01*
X14930333Y-14146619D01*
X14920809Y-14175190D01*
X14806524Y-14289476D01*
X14930333Y-14289476D01*
X15101762Y-14089476D02*
X15063667Y-14089476D01*
X15044619Y-14099000D01*
X15035095Y-14108524D01*
X15016048Y-14137095D01*
X15006524Y-14175190D01*
X15006524Y-14251381D01*
X15016048Y-14270428D01*
X15025571Y-14279952D01*
X15044619Y-14289476D01*
X15082714Y-14289476D01*
X15101762Y-14279952D01*
X15111286Y-14270428D01*
X15120809Y-14251381D01*
X15120809Y-14203762D01*
X15111286Y-14184714D01*
X15101762Y-14175190D01*
X15082714Y-14165667D01*
X15044619Y-14165667D01*
X15025571Y-14175190D01*
X15016048Y-14184714D01*
X15006524Y-14203762D01*
X15244619Y-14089476D02*
X15263667Y-14089476D01*
X15282714Y-14099000D01*
X15292238Y-14108524D01*
X15301762Y-14127571D01*
X15311286Y-14165667D01*
X15311286Y-14213286D01*
X15301762Y-14251381D01*
X15292238Y-14270428D01*
X15282714Y-14279952D01*
X15263667Y-14289476D01*
X15244619Y-14289476D01*
X15225571Y-14279952D01*
X15216048Y-14270428D01*
X15206524Y-14251381D01*
X15197000Y-14213286D01*
X15197000Y-14165667D01*
X15206524Y-14127571D01*
X15216048Y-14108524D01*
X15225571Y-14099000D01*
X15244619Y-14089476D01*
X15387476Y-14089476D02*
X15387476Y-14127571D01*
X15463667Y-14089476D02*
X15463667Y-14127571D01*
X15758905Y-14365667D02*
X15749381Y-14356143D01*
X15730333Y-14327571D01*
X15720809Y-14308524D01*
X15711286Y-14279952D01*
X15701762Y-14232333D01*
X15701762Y-14194238D01*
X15711286Y-14146619D01*
X15720809Y-14118048D01*
X15730333Y-14099000D01*
X15749381Y-14070428D01*
X15758905Y-14060905D01*
X15825571Y-14108524D02*
X15835095Y-14099000D01*
X15854143Y-14089476D01*
X15901762Y-14089476D01*
X15920809Y-14099000D01*
X15930333Y-14108524D01*
X15939857Y-14127571D01*
X15939857Y-14146619D01*
X15930333Y-14175190D01*
X15816048Y-14289476D01*
X15939857Y-14289476D01*
X16177952Y-14289476D02*
X16177952Y-14089476D01*
X16263667Y-14289476D02*
X16263667Y-14184714D01*
X16254143Y-14165667D01*
X16235095Y-14156143D01*
X16206524Y-14156143D01*
X16187476Y-14165667D01*
X16177952Y-14175190D01*
X16387476Y-14289476D02*
X16368428Y-14279952D01*
X16358905Y-14270428D01*
X16349381Y-14251381D01*
X16349381Y-14194238D01*
X16358905Y-14175190D01*
X16368428Y-14165667D01*
X16387476Y-14156143D01*
X16416048Y-14156143D01*
X16435095Y-14165667D01*
X16444619Y-14175190D01*
X16454143Y-14194238D01*
X16454143Y-14251381D01*
X16444619Y-14270428D01*
X16435095Y-14279952D01*
X16416048Y-14289476D01*
X16387476Y-14289476D01*
X16568428Y-14289476D02*
X16549381Y-14279952D01*
X16539857Y-14260905D01*
X16539857Y-14089476D01*
X16720809Y-14279952D02*
X16701762Y-14289476D01*
X16663667Y-14289476D01*
X16644619Y-14279952D01*
X16635095Y-14260905D01*
X16635095Y-14184714D01*
X16644619Y-14165667D01*
X16663667Y-14156143D01*
X16701762Y-14156143D01*
X16720809Y-14165667D01*
X16730333Y-14184714D01*
X16730333Y-14203762D01*
X16635095Y-14222809D01*
X16806524Y-14279952D02*
X16825571Y-14289476D01*
X16863667Y-14289476D01*
X16882714Y-14279952D01*
X16892238Y-14260905D01*
X16892238Y-14251381D01*
X16882714Y-14232333D01*
X16863667Y-14222809D01*
X16835095Y-14222809D01*
X16816048Y-14213286D01*
X16806524Y-14194238D01*
X16806524Y-14184714D01*
X16816048Y-14165667D01*
X16835095Y-14156143D01*
X16863667Y-14156143D01*
X16882714Y-14165667D01*
X16958905Y-14365667D02*
X16968429Y-14356143D01*
X16987476Y-14327571D01*
X16997000Y-14308524D01*
X17006524Y-14279952D01*
X17016048Y-14232333D01*
X17016048Y-14194238D01*
X17006524Y-14146619D01*
X16997000Y-14118048D01*
X16987476Y-14099000D01*
X16968429Y-14070428D01*
X16958905Y-14060905D01*
M02*
