%TF.GenerationSoftware,KiCad,Pcbnew,6.0.7-f9a2dced07~116~ubuntu20.04.1*%
%TF.CreationDate,2023-05-24T09:43:38-07:00*%
%TF.ProjectId,gw-adapters,67772d61-6461-4707-9465-72732e6b6963,rev?*%
%TF.SameCoordinates,Original*%
%TF.FileFunction,Drillmap*%
%TF.FilePolarity,Positive*%
%FSLAX45Y45*%
G04 Gerber Fmt 4.5, Leading zero omitted, Abs format (unit mm)*
G04 Created by KiCad (PCBNEW 6.0.7-f9a2dced07~116~ubuntu20.04.1) date 2023-05-24 09:43:38*
%MOMM*%
%LPD*%
G01*
G04 APERTURE LIST*
%ADD10C,0.100000*%
%ADD11C,0.200000*%
G04 APERTURE END LIST*
D10*
X16383000Y-5588000D02*
X12192000Y-5588000D01*
X12192000Y-5588000D02*
X12192000Y-12700000D01*
X12192000Y-12700000D02*
X16383000Y-12700000D01*
X16383000Y-12700000D02*
X16383000Y-5588000D01*
D11*
X12444619Y-13015476D02*
X12444619Y-12815476D01*
X12492238Y-12815476D01*
X12520809Y-12825000D01*
X12539857Y-12844048D01*
X12549381Y-12863095D01*
X12558905Y-12901190D01*
X12558905Y-12929762D01*
X12549381Y-12967857D01*
X12539857Y-12986905D01*
X12520809Y-13005952D01*
X12492238Y-13015476D01*
X12444619Y-13015476D01*
X12644619Y-13015476D02*
X12644619Y-12882143D01*
X12644619Y-12920238D02*
X12654143Y-12901190D01*
X12663667Y-12891667D01*
X12682714Y-12882143D01*
X12701762Y-12882143D01*
X12768428Y-13015476D02*
X12768428Y-12882143D01*
X12768428Y-12815476D02*
X12758905Y-12825000D01*
X12768428Y-12834524D01*
X12777952Y-12825000D01*
X12768428Y-12815476D01*
X12768428Y-12834524D01*
X12892238Y-13015476D02*
X12873190Y-13005952D01*
X12863667Y-12986905D01*
X12863667Y-12815476D01*
X12997000Y-13015476D02*
X12977952Y-13005952D01*
X12968428Y-12986905D01*
X12968428Y-12815476D01*
X13225571Y-13015476D02*
X13225571Y-12815476D01*
X13292238Y-12958333D01*
X13358905Y-12815476D01*
X13358905Y-13015476D01*
X13539857Y-13015476D02*
X13539857Y-12910714D01*
X13530333Y-12891667D01*
X13511286Y-12882143D01*
X13473190Y-12882143D01*
X13454143Y-12891667D01*
X13539857Y-13005952D02*
X13520809Y-13015476D01*
X13473190Y-13015476D01*
X13454143Y-13005952D01*
X13444619Y-12986905D01*
X13444619Y-12967857D01*
X13454143Y-12948809D01*
X13473190Y-12939286D01*
X13520809Y-12939286D01*
X13539857Y-12929762D01*
X13635095Y-12882143D02*
X13635095Y-13082143D01*
X13635095Y-12891667D02*
X13654143Y-12882143D01*
X13692238Y-12882143D01*
X13711286Y-12891667D01*
X13720809Y-12901190D01*
X13730333Y-12920238D01*
X13730333Y-12977381D01*
X13720809Y-12996428D01*
X13711286Y-13005952D01*
X13692238Y-13015476D01*
X13654143Y-13015476D01*
X13635095Y-13005952D01*
X13816048Y-12996428D02*
X13825571Y-13005952D01*
X13816048Y-13015476D01*
X13806524Y-13005952D01*
X13816048Y-12996428D01*
X13816048Y-13015476D01*
X13816048Y-12891667D02*
X13825571Y-12901190D01*
X13816048Y-12910714D01*
X13806524Y-12901190D01*
X13816048Y-12891667D01*
X13816048Y-12910714D01*
M02*
